<svg xmlns="http://www.w3.org/2000/svg" width="27.75" height="38.875" viewBox="0 0 27.75 38.875">
  <g id="Group_5380" data-name="Group 5380" transform="translate(3232.471 -1220.732)">
    <rect id="Rectangle_745" data-name="Rectangle 745" width="26" height="4" rx="2" transform="translate(-3231.596 1254.732)" fill="#fff" stroke="#004884" stroke-width="1.75"/>
    <path id="Rectangle_746" data-name="Rectangle 746" d="M8,0H8a8,8,0,0,1,8,8V20a0,0,0,0,1,0,0H0a0,0,0,0,1,0,0V8A8,8,0,0,1,8,0Z" transform="translate(-3226.596 1231.732)" fill="#fff" stroke="#004884" stroke-width="1.75"/>
    <g id="Path_9308" data-name="Path 9308" transform="translate(-62.991 -142.228)" fill="none">
      <path d="M-3159.331,1385.263s.942-.183,1.066-.853.149-2.355,1.14-3.173a5.326,5.326,0,0,1,3.024-1.215c.892-.05,1.016-1.339,1.016-1.339a1.15,1.15,0,0,0-1.016-1.016,6.363,6.363,0,0,0-4.933,2.107,6.793,6.793,0,0,0-1.438,4.636C-3160.372,1385.328-3159.331,1385.263-3159.331,1385.263Z" stroke="none"/>
      <path d="M -3159.37451171875 1385.264404296875 C -3159.572998046875 1385.264404296875 -3160.384033203125 1385.21484375 -3160.470947265625 1384.41064453125 C -3160.570068359375 1383.493408203125 -3160.396728515625 1381.51025390625 -3159.033203125 1379.77490234375 C -3157.7998046875 1378.205200195313 -3155.5322265625 1377.649658203125 -3154.413330078125 1377.649658203125 C -3154.295166015625 1377.649658203125 -3154.189697265625 1377.655883789063 -3154.099853515625 1377.667724609375 C -3153.157958984375 1377.791748046875 -3153.08349609375 1378.68408203125 -3153.08349609375 1378.68408203125 C -3153.08349609375 1378.68408203125 -3153.20751953125 1379.97314453125 -3154.099853515625 1380.022705078125 C -3154.992431640625 1380.072509765625 -3156.1328125 1380.41943359375 -3157.124267578125 1381.237548828125 C -3158.115966796875 1382.0556640625 -3158.140625 1383.7412109375 -3158.2646484375 1384.41064453125 C -3158.388671875 1385.080078125 -3159.330810546875 1385.263427734375 -3159.330810546875 1385.263427734375 C -3159.330810546875 1385.263427734375 -3159.3466796875 1385.264404296875 -3159.37451171875 1385.264404296875 Z" stroke="none" fill="#004884"/>
    </g>
    <g id="Rectangle_747" data-name="Rectangle 747" transform="translate(-3229.342 1224.442) rotate(45)" fill="#fff" stroke="#004884" stroke-width="1.75">
      <rect width="7.442" height="2.325" rx="1.163" stroke="none"/>
      <rect x="0.875" y="0.875" width="5.692" height="0.575" rx="0.288" fill="none"/>
    </g>
    <g id="Rectangle_748" data-name="Rectangle 748" transform="translate(-3217.069 1220.732) rotate(90)" fill="#fff" stroke="#004884" stroke-width="1.75">
      <rect width="7.442" height="2.325" rx="1.163" stroke="none"/>
      <rect x="0.875" y="0.875" width="5.692" height="0.575" rx="0.288" fill="none"/>
    </g>
    <g id="Rectangle_749" data-name="Rectangle 749" transform="translate(-3205.476 1226.086) rotate(135)" fill="#fff" stroke="#004884" stroke-width="2">
      <rect width="7.442" height="2.325" rx="1.163" stroke="none"/>
      <rect x="1" y="1" width="5.442" height="0.325" rx="0.163" fill="none"/>
    </g>
  </g>
</svg>
