<svg xmlns="http://www.w3.org/2000/svg" width="35.478" height="29.186" viewBox="0 0 35.478 29.186">
  <path id="u16" d="M94.252-41.074l-.739.412.739-.412L88.065-52.228A3.439,3.439,0,0,0,85.051-54H62.646a3.415,3.415,0,0,0-2.434,1.011A3.444,3.444,0,0,0,59.2-50.554V-28.26a3.415,3.415,0,0,0,1.011,2.434,3.444,3.444,0,0,0,2.434,1.011H85.051a3.447,3.447,0,0,0,3.013-1.772l6.18-11.147a3.454,3.454,0,0,0,.432-1.667A3.378,3.378,0,0,0,94.252-41.074ZM62.646-26.5a1.739,1.739,0,0,1-1.242-.516,1.739,1.739,0,0,1-.516-1.242V-50.554A1.739,1.739,0,0,1,61.4-51.8a1.739,1.739,0,0,1,1.242-.516h6.592a1.758,1.758,0,0,1,1.535.907L76.96-40.258a1.81,1.81,0,0,1,.167.419,1.9,1.9,0,0,1,.056.439,2.113,2.113,0,0,1-.014.216,1.791,1.791,0,0,1-.209.635L70.779-27.4a1.758,1.758,0,0,1-1.535.907h-6.6Zm9.55,0a.582.582,0,0,0,.056-.084l6.18-11.147a3.5,3.5,0,0,0,.391-1.158,3.134,3.134,0,0,0,.042-.509,3.406,3.406,0,0,0-.049-.53,3.448,3.448,0,0,0-.286-.935c-.035-.07-.063-.14-.1-.2l-6.18-11.161a.581.581,0,0,0-.056-.084h5.378a1.758,1.758,0,0,1,1.535.907l6.18,11.147a1.81,1.81,0,0,1,.167.419,1.9,1.9,0,0,1,.056.439,2.111,2.111,0,0,1-.014.216,1.791,1.791,0,0,1-.209.635L79.108-27.4a1.758,1.758,0,0,1-1.535.907H72.2ZM92.773-38.556l-6.18,11.147a1.758,1.758,0,0,1-1.535.907H80.524a.582.582,0,0,0,.056-.084l6.18-11.147a3.5,3.5,0,0,0,.391-1.158,3.135,3.135,0,0,0,.042-.509,3.4,3.4,0,0,0-.049-.53,3.448,3.448,0,0,0-.286-.935c-.035-.07-.063-.14-.1-.2L80.58-52.228a.583.583,0,0,0-.056-.084h4.534a1.758,1.758,0,0,1,1.535.907l6.18,11.147h0a1.762,1.762,0,0,1,.223.851A1.762,1.762,0,0,1,92.773-38.556Z" transform="translate(-59.2 54)" fill="#004884"/>
</svg>
