<svg xmlns="http://www.w3.org/2000/svg" width="33.494" height="33.494" viewBox="0 0 33.494 33.494">
  <g id="u286" transform="translate(49 -141)">
    <g id="Grupo_4827" data-name="Grupo 4827" transform="translate(-49 141)">
      <g id="Grupo_4826" data-name="Grupo 4826">
        <path id="Caminho_8806" data-name="Caminho 8806" d="M-32.253,141A16.737,16.737,0,0,0-49,157.747a16.737,16.737,0,0,0,16.747,16.747,16.737,16.737,0,0,0,16.747-16.747A16.737,16.737,0,0,0-32.253,141Zm0,31.159a14.426,14.426,0,0,1-14.412-14.412,14.426,14.426,0,0,1,14.412-14.412,14.426,14.426,0,0,1,14.412,14.412A14.426,14.426,0,0,1-32.253,172.159Z" transform="translate(49 -141)" fill="#004884"/>
      </g>
    </g>
    <g id="Grupo_4829" data-name="Grupo 4829" transform="translate(-33.424 154.319)">
      <g id="Grupo_4828" data-name="Grupo 4828">
        <path id="Caminho_8807" data-name="Caminho 8807" d="M190.271,344.6a1.17,1.17,0,0,0-1.171,1.171v9.584a1.171,1.171,0,1,0,2.342,0v-9.584A1.17,1.17,0,0,0,190.271,344.6Z" transform="translate(-189.1 -344.6)" fill="#004884"/>
      </g>
    </g>
    <g id="Grupo_4831" data-name="Grupo 4831" transform="translate(-33.424 149.256)">
      <g id="Grupo_4830" data-name="Grupo 4830">
        <path id="Caminho_8808" data-name="Caminho 8808" d="M190.271,267.2a1.17,1.17,0,0,0-1.171,1.171v1.4a1.171,1.171,0,1,0,2.342,0v-1.4A1.17,1.17,0,0,0,190.271,267.2Z" transform="translate(-189.1 -267.2)" fill="#004884"/>
      </g>
    </g>
  </g>
</svg>
