<svg xmlns="http://www.w3.org/2000/svg" width="33.05" height="33.05" viewBox="0 0 33.05 33.05">
  <g id="u293" transform="translate(49 -141)">
    <g id="Grupo_4833" data-name="Grupo 4833" transform="translate(-49 141)">
      <g id="Grupo_4832" data-name="Grupo 4832">
        <path id="Caminho_8812" data-name="Caminho 8812" d="M-16.918,141H-43.178a.967.967,0,0,0-.684.284l-4.854,4.854a.967.967,0,0,0-.284.684v26.259a.967.967,0,0,0,.968.968h31.113a.967.967,0,0,0,.968-.968V141.968A.967.967,0,0,0-16.918,141Zm-.968,31.114H-47.063V147.229l4.293-4.293h24.884Z" transform="translate(49 -141)" fill="#004884"/>
      </g>
    </g>
    <g id="Grupo_4838" data-name="Grupo 4838" transform="translate(-39.813 150.482)">
      <g id="Grupo_4835" data-name="Grupo 4835">
        <g id="Grupo_4834" data-name="Grupo 4834">
          <path id="Caminho_8813" data-name="Caminho 8813" d="M100.408,282.415l-2.571-2.571a.909.909,0,1,0-1.286,1.286l1.019,1.019H86.91a.91.91,0,1,0,0,1.819H97.57l-1.019,1.019a.909.909,0,0,0,1.286,1.286l2.571-2.571A.909.909,0,0,0,100.408,282.415Z" transform="translate(-86 -279.575)" fill="#004884"/>
        </g>
      </g>
      <g id="Grupo_4837" data-name="Grupo 4837" transform="translate(0.001 8.49)">
        <g id="Grupo_4836" data-name="Grupo 4836">
          <path id="Caminho_8814" data-name="Caminho 8814" d="M99.777,422.148H89.117l1.019-1.019a.909.909,0,1,0-1.286-1.286l-2.571,2.571a.909.909,0,0,0,0,1.286l2.571,2.571a.909.909,0,1,0,1.286-1.286l-1.019-1.019H99.777a.91.91,0,0,0,0-1.819Z" transform="translate(-86.012 -419.575)" fill="#004884"/>
        </g>
      </g>
    </g>
  </g>
</svg>
