<svg xmlns="http://www.w3.org/2000/svg" width="31.678" height="31.678" viewBox="0 0 31.678 31.678">
  <g id="u116" transform="translate(-1779 -95)">
    <path id="Caminho_8815" data-name="Caminho 8815" d="M22.132,27.868a13.551,13.551,0,0,0,4.791-4.2,11.336,11.336,0,0,0-1.547-4.552,4.4,4.4,0,0,0-3.262-2.095,8.477,8.477,0,0,1-12.551,0A4.4,4.4,0,0,0,6.3,19.118,11.337,11.337,0,0,0,4.755,23.67a13.552,13.552,0,0,0,4.791,4.2,13.228,13.228,0,0,0,6.293,1.547A13.228,13.228,0,0,0,22.132,27.868ZM20.638,16.113a6.54,6.54,0,0,0,1.989-4.8,6.54,6.54,0,0,0-1.989-4.8,6.54,6.54,0,0,0-4.8-1.989,6.54,6.54,0,0,0-4.8,1.989,6.54,6.54,0,0,0-1.989,4.8,6.54,6.54,0,0,0,1.989,4.8,6.54,6.54,0,0,0,4.8,1.989A6.54,6.54,0,0,0,20.638,16.113Zm9.785-6.426a15.682,15.682,0,0,1,0,12.295,16.124,16.124,0,0,1-3.368,5.056,15.734,15.734,0,0,1-5.047,3.385,15.747,15.747,0,0,1-12.321,0,15.563,15.563,0,0,1-8.432-8.432,15.7,15.7,0,0,1,0-12.3A15.563,15.563,0,0,1,9.687,1.255a15.7,15.7,0,0,1,12.3,0,15.563,15.563,0,0,1,8.432,8.432Z" transform="translate(1779 95)" fill="#004884"/>
  </g>
</svg>
