<svg xmlns="http://www.w3.org/2000/svg" width="33.494" height="33.494" viewBox="0 0 33.494 33.494">
  <g id="u269" transform="translate(49 -141)">
    <path id="Caminho_8809" data-name="Caminho 8809" d="M188.487,505.093a1.393,1.393,0,1,1-1.393-1.393A1.395,1.395,0,0,1,188.487,505.093Z" transform="translate(-219.346 -338.973)" fill="#004884"/>
    <path id="Caminho_8810" data-name="Caminho 8810" d="M-32.253,174.494A16.763,16.763,0,0,1-49,157.747,16.763,16.763,0,0,1-32.253,141a16.763,16.763,0,0,1,16.747,16.747A16.763,16.763,0,0,1-32.253,174.494Zm0-31.4a14.671,14.671,0,0,0-14.654,14.654A14.671,14.671,0,0,0-32.253,172.4,14.671,14.671,0,0,0-17.6,157.747,14.671,14.671,0,0,0-32.253,143.093Z" fill="#004884"/>
    <path id="Caminho_8811" data-name="Caminho 8811" d="M122.14,241.307a1.05,1.05,0,0,1-1.047-1.047v-1.406a3.155,3.155,0,0,1,2.093-2.963,4.326,4.326,0,0,0,2.787-3.657,3.84,3.84,0,1,0-7.68,0,1.047,1.047,0,1,1-2.093,0,5.933,5.933,0,1,1,11.867,0,6.412,6.412,0,0,1-4.187,5.626,1.044,1.044,0,0,0-.7.988v1.407A1.041,1.041,0,0,1,122.14,241.307Z" transform="translate(-154.393 -79.72)" fill="#004884"/>
  </g>
</svg>
