<svg xmlns="http://www.w3.org/2000/svg" width="24.129" height="30.494" viewBox="0 0 24.129 30.494">
  <g id="Top_Bar" data-name="Top Bar" transform="translate(0 -1.167)">
    <g id="Grupo_94" data-name="Grupo 94" transform="translate(0 1.167)">
      <path id="notification" d="M77.065,24.267a4.738,4.738,0,0,1-1.44-1.96c-1.241-2.625-1.5-6.324-1.5-8.964,0-.011,0-.023,0-.034a8.652,8.652,0,0,0-5.093-7.847V3.4A3.4,3.4,0,0,0,65.639,0h-.281a3.4,3.4,0,0,0-3.391,3.4V5.461a8.652,8.652,0,0,0-5.094,7.882c0,2.64-.26,6.339-1.5,8.964a4.738,4.738,0,0,1-1.44,1.96.868.868,0,0,0-.477.988.909.909,0,0,0,.9.7H60.9a4.6,4.6,0,0,0,9.2,0h6.548a.909.909,0,0,0,.9-.7A.869.869,0,0,0,77.065,24.267ZM63.754,3.4a1.608,1.608,0,0,1,1.6-1.607h.281a1.608,1.608,0,0,1,1.6,1.607V4.881a8.653,8.653,0,0,0-3.49,0V3.4ZM65.5,28.7a2.819,2.819,0,0,1-2.813-2.751h5.625A2.819,2.819,0,0,1,65.5,28.7Zm3.6-4.541H56.387a9.366,9.366,0,0,0,.468-.822c1.2-2.361,1.8-5.725,1.8-10a6.839,6.839,0,1,1,13.677,0c0,.011,0,.022,0,.033,0,4.257.61,7.609,1.8,9.963a9.373,9.373,0,0,0,.468.822Z" transform="translate(-53.434 0)" fill="#004884"/>
    </g>
  </g>
</svg>
