<svg xmlns="http://www.w3.org/2000/svg" width="52.787" height="37.207" viewBox="0 0 52.787 37.207">
  <g id="Subtraction_2" data-name="Subtraction 2" transform="translate(6456.394 5028)" fill="#e2ecff">
    <path d="M -6407.60791015625 -4991.29345703125 L -6453.3916015625 -4991.29345703125 C -6453.0390625 -4991.6923828125 -6452.7548828125 -4992.1689453125 -6452.474609375 -4992.63818359375 L -6452.46923828125 -4992.64697265625 C -6452.22265625 -4993.05908203125 -6451.96826171875 -4993.48486328125 -6451.6640625 -4993.8720703125 L -6451.6513671875 -4993.888671875 L -6451.6396484375 -4993.90625 L -6442.36279296875 -5008.0517578125 L -6442.19482421875 -5008.3076171875 L -6442.34619140625 -5008.57373046875 L -6451.623046875 -5024.8662109375 L -6451.630859375 -5024.87939453125 L -6451.63916015625 -5024.892578125 C -6451.90185546875 -5025.2939453125 -6452.13623046875 -5025.70068359375 -6452.32421875 -5026.02734375 C -6452.63818359375 -5026.5712890625 -6452.93408203125 -5027.083984375 -6453.2978515625 -5027.50048828125 L -6407.60791015625 -5027.50048828125 C -6405.677734375 -5027.50048828125 -6404.107421875 -5025.93017578125 -6404.107421875 -5024 L -6404.107421875 -4994.7939453125 C -6404.107421875 -4992.86376953125 -6405.677734375 -4991.29345703125 -6407.60791015625 -4991.29345703125 Z" stroke="none"/>
    <path d="M -6407.60791015625 -4991.79345703125 C -6405.95361328125 -4991.79345703125 -6404.607421875 -4993.1396484375 -6404.607421875 -4994.7939453125 L -6404.607421875 -5024 C -6404.607421875 -5025.654296875 -6405.95361328125 -5027.00048828125 -6407.60791015625 -5027.00048828125 L -6452.32080078125 -5027.00048828125 C -6452.171875 -5026.763671875 -6452.03125 -5026.51953125 -6451.89111328125 -5026.27685546875 C -6451.7060546875 -5025.95556640625 -6451.4755859375 -5025.55615234375 -6451.220703125 -5025.166015625 L -6451.2041015625 -5025.14013671875 L -6451.1884765625 -5025.11328125 L -6441.91162109375 -5008.82080078125 L -6441.60888671875 -5008.28955078125 L -6441.9443359375 -5007.77783203125 L -6451.22119140625 -4993.63232421875 L -6451.24462890625 -4993.5966796875 L -6451.27099609375 -4993.5634765625 C -6451.55517578125 -4993.201171875 -6451.79052734375 -4992.80712890625 -6452.0400390625 -4992.390625 L -6452.044921875 -4992.3818359375 C -6452.1611328125 -4992.18798828125 -6452.279296875 -4991.98974609375 -6452.404296875 -4991.79345703125 L -6407.60791015625 -4991.79345703125 M -6407.60791015625 -4990.79345703125 L -6456.19482421875 -4990.79345703125 C -6456.26806640625 -4990.79345703125 -6456.3330078125 -4990.794921875 -6456.39404296875 -4990.79833984375 L -6455.55224609375 -4990.79833984375 C -6454.15576171875 -4990.79833984375 -6453.5751953125 -4991.76953125 -6452.90380859375 -4992.89453125 C -6452.646484375 -4993.32470703125 -6452.38330078125 -4993.765625 -6452.0576171875 -4994.1806640625 L -6442.78076171875 -5008.326171875 L -6452.0576171875 -5024.61865234375 C -6452.3291015625 -5025.03369140625 -6452.56787109375 -5025.4482421875 -6452.759765625 -5025.78125 C -6453.5029296875 -5027.06982421875 -6454.03955078125 -5028.00048828125 -6455.55224609375 -5028.00048828125 L -6407.60791015625 -5028.00048828125 C -6405.40185546875 -5028.00048828125 -6403.607421875 -5026.2060546875 -6403.607421875 -5024 L -6403.607421875 -4994.7939453125 C -6403.607421875 -4992.587890625 -6405.40185546875 -4990.79345703125 -6407.60791015625 -4990.79345703125 Z" stroke="none" fill="#004884"/>
  </g>
</svg>
