<svg xmlns="http://www.w3.org/2000/svg" width="53.921" height="37.206" viewBox="0 0 53.921 37.206">
  <g id="Subtraction_2" data-name="Subtraction 2" transform="translate(-46.472)" fill="#fff">
    <path d="M 96.39181518554688 36.70600128173828 L 47.80441284179688 36.70600128173828 C 47.73998260498047 36.70600128173828 47.67575073242188 36.70426559448242 47.61177825927734 36.7008056640625 C 47.96343231201172 36.30238723754883 48.24674606323242 35.82828903198242 48.52465438842773 35.36325073242188 C 48.77242279052734 34.9486198425293 49.02860260009766 34.51992034912109 49.33622360229492 34.12802124023438 L 49.3493537902832 34.11128997802734 L 49.36102294921875 34.09349060058594 L 58.63731384277344 19.94819068908691 L 58.8050537109375 19.69241142272949 L 58.65370178222656 19.42660140991211 L 49.37741470336914 3.134800672531128 L 49.36979293823242 3.121410608291626 L 49.36136245727539 3.108520746231079 C 49.10063171386719 2.709870576858521 48.8740234375 2.316960573196411 48.6740837097168 1.970310688018799 C 48.3566780090332 1.41998028755188 48.06379699707031 0.9121806621551514 47.7060661315918 0.501353919506073 C 47.73879241943359 0.5004523396492004 47.77158355712891 0.5000006556510925 47.80441284179688 0.5000006556510925 L 96.39181518554688 0.5000006556510925 C 98.32199096679688 0.5000006556510925 99.89231109619141 2.069910526275635 99.89231109619141 3.999600648880005 L 99.89231109619141 33.20640182495117 C 99.89231109619141 35.13608932495117 98.32199096679688 36.70600128173828 96.39181518554688 36.70600128173828 Z" stroke="none"/>
    <path d="M 96.39181518554688 36.20600128173828 C 98.04629516601563 36.20600128173828 99.39231109619141 34.86038970947266 99.39231109619141 33.20640182495117 L 99.39231109619141 3.999600648880005 C 99.39231109619141 2.345610618591309 98.04629516601563 1.000000596046448 96.39181518554688 1.000000596046448 L 48.68031311035156 1.000000596046448 C 48.82587432861328 1.232710957527161 48.96560287475586 1.474971413612366 49.10721206665039 1.720500588417053 C 49.30386352539063 2.061470746994019 49.52675247192383 2.447920560836792 49.77981185913086 2.834850549697876 L 49.79667282104492 2.860630750656128 L 49.81192398071289 2.88740062713623 L 59.08821487426758 19.17920112609863 L 59.39090347290039 19.7108211517334 L 59.05543518066406 20.22239112854004 L 49.77914428710938 34.36769104003906 L 49.75580215454102 34.40327072143555 L 49.72952270507813 34.43674087524414 C 49.44152450561523 34.80366134643555 49.19362258911133 35.21850967407227 48.95385360717773 35.6197395324707 C 48.83694458007813 35.81536865234375 48.71916961669922 36.012451171875 48.59568023681641 36.20600128173828 L 96.39181518554688 36.20600128173828 M 96.39181518554688 37.20600128173828 L 47.80441284179688 37.20600128173828 C 47.34718322753906 37.20600128173828 46.89876174926758 37.12944030761719 46.47159194946289 36.97843933105469 C 47.18729400634766 36.62644195556641 47.62843322753906 35.88825225830078 48.09547424316406 35.10673141479492 C 48.35123443603516 34.67873001098633 48.61570358276367 34.23616027832031 48.94291305541992 33.81930160522461 L 58.21920394897461 19.67399978637695 L 48.94291305541992 3.382200717926025 C 48.67448425292969 2.971770524978638 48.44413375854492 2.572380542755127 48.24089431762695 2.220000743865967 C 47.70272445678711 1.286890625953674 47.27764511108398 0.5498606562614441 46.525634765625 0.2088806480169296 C 46.93845367431641 0.06965064257383347 47.36867523193359 6.408691319848003e-07 47.80441284179688 6.408691319848003e-07 L 96.39181518554688 6.408691319848003e-07 C 98.59768676757813 6.408691319848003e-07 100.3923110961914 1.79421067237854 100.3923110961914 3.999600648880005 L 100.3923110961914 33.20640182495117 C 100.3923110961914 35.41178894042969 98.59768676757813 37.20600128173828 96.39181518554688 37.20600128173828 Z" stroke="none" fill="#004884"/>
  </g>
</svg>
