<svg xmlns="http://www.w3.org/2000/svg" width="56.321" height="37.202" viewBox="0 0 56.321 37.202">
  <g id="Path_8752" data-name="Path 8752" fill="none">
    <path d="M3.382,0H43.966c1.868,0,2.18,1.484,3.382,3.382l8.973,16.292L47.348,33.82C46.2,35.326,45.833,37.2,43.966,37.2H3.382A3.382,3.382,0,0,1,0,33.82V3.382A3.382,3.382,0,0,1,3.382,0Z" stroke="none"/>
    <path d="M 3.381969451904297 1 C 2.068550109863281 1 1 2.068550109863281 1 3.381969451904297 L 1 33.81974029541016 C 1 35.1331672668457 2.068550109863281 36.20171737670898 3.381969451904297 36.20171737670898 L 43.96566009521484 36.20171737670898 C 44.67626190185547 36.20171737670898 44.97867965698242 35.7883186340332 45.66176223754883 34.60688018798828 C 45.90629196166992 34.18394088745117 46.1826171875 33.70599746704102 46.52504730224609 33.24965286254883 L 55.15966033935547 19.63780212402344 L 46.48617172241211 3.890666961669922 C 46.21841049194336 3.465919494628906 45.99320220947266 3.062431335449219 45.79402923583984 2.705589294433594 C 45.0102424621582 1.301307678222656 44.76654052734375 1 43.96566009521484 1 L 3.381969451904297 1 M 3.381969451904297 0 L 43.96566009521484 0 C 45.83348083496094 0 46.14545059204102 1.483539581298828 47.34764099121094 3.381969451904297 L 56.32110214233398 19.67371940612793 L 47.34764099121094 33.81974029541016 C 46.20346069335938 35.32577896118164 45.83348083496094 37.20171737670898 43.96566009521484 37.20171737670898 L 3.381969451904297 37.20171737670898 C 1.51416015625 37.20171737670898 0 35.68755722045898 0 33.81974029541016 L 0 3.381969451904297 C 0 1.51416015625 1.51416015625 0 3.381969451904297 0 Z" stroke="none" fill="#004884"/>
  </g>
</svg>
