<svg xmlns="http://www.w3.org/2000/svg" width="56.321" height="37.202" viewBox="0 0 56.321 37.202">
  <g id="Path_9309" data-name="Path 9309" fill="#fff">
    <path d="M 43.96566009521484 36.70171737670898 L 3.381981134414673 36.70171737670898 C 1.792851090431213 36.70171737670898 0.500001072883606 35.40886688232422 0.500001072883606 33.81974029541016 L 0.500001072883606 3.381978750228882 C 0.500001072883606 1.792848706245422 1.792851090431213 0.4999986886978149 3.381981134414673 0.4999986886978149 L 43.96566009521484 0.4999986886978149 C 45.08829116821289 0.4999986886978149 45.47130966186523 1.101468682289124 46.23063278198242 2.461918592453003 C 46.42868804931641 2.816762447357178 46.65291213989258 3.218485355377197 46.91699981689453 3.636496782302856 L 55.74037933349609 19.6557559967041 L 46.93647384643555 33.53448486328125 C 46.60703659057617 33.97088623046875 46.34658050537109 34.42134857177734 46.09461212158203 34.85714721679688 C 45.41349029541016 36.03519821166992 44.97879028320313 36.70171737670898 43.96566009521484 36.70171737670898 Z" stroke="none"/>
    <path d="M 3.381969451904297 1 C 2.068550109863281 1 1 2.068550109863281 1 3.381969451904297 L 1 33.81974029541016 C 1 35.1331672668457 2.068550109863281 36.20171737670898 3.381969451904297 36.20171737670898 L 43.96566009521484 36.20171737670898 C 44.67626190185547 36.20171737670898 44.97867965698242 35.7883186340332 45.66176223754883 34.60688018798828 C 45.90629196166992 34.18394088745117 46.1826171875 33.70599746704102 46.52504730224609 33.24965286254883 L 55.15966033935547 19.63780212402344 L 46.48617172241211 3.890666961669922 C 46.21841049194336 3.465919494628906 45.99320220947266 3.062431335449219 45.79402923583984 2.705589294433594 C 45.0102424621582 1.301307678222656 44.76654052734375 1 43.96566009521484 1 L 3.381969451904297 1 M 3.381969451904297 0 L 43.96566009521484 0 C 45.83348083496094 0 46.14545059204102 1.483539581298828 47.34764099121094 3.381969451904297 L 56.32110214233398 19.67371940612793 L 47.34764099121094 33.81974029541016 C 46.20346069335938 35.32577896118164 45.83348083496094 37.20171737670898 43.96566009521484 37.20171737670898 L 3.381969451904297 37.20171737670898 C 1.51416015625 37.20171737670898 0 35.68755722045898 0 33.81974029541016 L 0 3.381969451904297 C 0 1.51416015625 1.51416015625 0 3.381969451904297 0 Z" stroke="none" fill="#004884"/>
  </g>
</svg>
