<!-- Generator: Adobe Illustrator 19.0.0, SVG Export Plug-In  -->
<svg version="1.1"
	 xmlns="http://www.w3.org/2000/svg" xmlns:xlink="http://www.w3.org/1999/xlink" xmlns:a="http://ns.adobe.com/AdobeSVGViewerExtensions/3.0/"
	 x="0px" y="0px" width="127.1px" height="127.1px" viewBox="0 0 127.1 127.1" style="enable-background:new 0 0 127.1 127.1;"
	 xml:space="preserve">
<style type="text/css">
	.st0{fill:#024883;}
</style>
<defs>
</defs>
<g id="XMLID_15_">
	<path id="XMLID_19_" class="st0" d="M63.6,119.1C32.9,119.1,8,94.3,8,63.6S32.9,8,63.6,8"/>
	<path id="XMLID_16_" class="st0" d="M122.1,38.8c-4.8-11.4-12.9-21.1-23-28C89,4,76.7,0,63.6,0c-8.8,0-17.1,1.8-24.7,5
		c-11.4,4.8-21.1,12.9-28,23C4,38.2,0,50.4,0,63.6c0,8.8,1.8,17.1,5,24.7c4.8,11.4,12.9,21.1,23,28c10.1,6.9,22.4,10.9,35.5,10.9
		c8.8,0,17.1-1.8,24.7-5c11.4-4.8,21.1-12.9,28-23c6.9-10.1,10.9-22.4,10.9-35.5C127.1,54.8,125.4,46.4,122.1,38.8z M107.4,82.1
		c-3.6,8.5-9.6,15.8-17.2,20.9c-7.6,5.1-16.7,8.1-26.6,8.1c-6.6,0-12.8-1.3-18.5-3.7c-8.5-3.6-15.8-9.6-20.9-17.2
		C19,82.6,16,73.4,16,63.6c0-6.6,1.3-12.8,3.7-18.5c3.6-8.5,9.6-15.8,17.2-20.9C44.6,19,53.7,16,63.6,16c6.6,0,12.8,1.3,18.5,3.7
		c8.5,3.6,15.8,9.6,20.9,17.2c5.1,7.6,8.1,16.7,8.1,26.6C111.1,70.2,109.8,76.4,107.4,82.1z"/>
</g>
</svg>
