<?xml version="1.0" encoding="utf-8"?>
<!-- Generator: Adobe Illustrator 19.0.0, SVG Export Plug-In . SVG Version: 6.00 Build 0)  -->
<svg version="1.1" id="Capa_1" xmlns="http://www.w3.org/2000/svg" xmlns:xlink="http://www.w3.org/1999/xlink" x="0px" y="0px"
	 viewBox="-297 389 16 16" style="enable-background:new -297 389 16 16;" xml:space="preserve">
<style type="text/css">
	.st0{fill:#FFFFFF;}
	.st1{fill:#D7D7D7;}
</style>
<g>
	<path class="st0" d="M-289,390c3.9,0,7,3.1,7,7s-3.1,7-7,7s-7-3.1-7-7S-292.9,390-289,390z"/>
	<path class="st1" d="M-289,390v1c1.7,0,3.2,0.7,4.3,1.7c1.1,1.1,1.7,2.6,1.7,4.3c0,1.7-0.7,3.2-1.7,4.3c-1.1,1.1-2.6,1.7-4.3,1.7
		c-1.7,0-3.2-0.7-4.3-1.7c-1.1-1.1-1.7-2.6-1.7-4.3c0-1.7,0.7-3.2,1.7-4.3c1.1-1.1,2.6-1.7,4.3-1.7V390v-1c-2.2,0-4.2,0.9-5.7,2.3
		c-1.4,1.4-2.3,3.5-2.3,5.7c0,2.2,0.9,4.2,2.3,5.7c1.4,1.4,3.5,2.3,5.7,2.3c2.2,0,4.2-0.9,5.7-2.3c1.4-1.4,2.3-3.5,2.3-5.7
		c0-2.2-0.9-4.2-2.3-5.7c-1.4-1.4-3.5-2.3-5.7-2.3V390z"/>
</g>
</svg>
