<?xml version="1.0" encoding="utf-8"?>
<svg version="1.1" xmlns:xlink="http://www.w3.org/1999/xlink" width="16px" height="16px" xmlns="http://www.w3.org/2000/svg">
  <g transform="matrix(1 0 0 1 -468 0 )">
    <path d="M 476 1  C 479.92 1  483 4.08  483 8  C 483 11.92  479.92 15  476 15  C 472.08 15  469 11.92  469 8  C 469 4.08  472.08 1  476 1  Z " fill-rule="nonzero" fill="#004884" stroke="none" />
    <path d="M 476 1  C 479.92 1  483 4.08  483 8  C 483 11.92  479.92 15  476 15  C 472.08 15  469 11.92  469 8  C 469 4.08  472.08 1  476 1  Z " stroke-width="2" stroke="#004884" fill="none" />
  </g>
</svg>