<svg xmlns="http://www.w3.org/2000/svg" width="53.955" height="37.202" viewBox="0 0 53.955 37.202">
  <path id="Subtraction_1" data-name="Subtraction 1" d="M85.092,36.7H43.975c1.006,0,1.44-.669,2.12-1.845a12.542,12.542,0,0,1,.842-1.322l8.8-13.879L46.917,3.637c-.255-.4-.47-.787-.687-1.175C45.472,1.1,45.089.5,43.966.5H85.092c1.182,0,1.582.6,2.372,1.968l.009.016c.2.35.433.747.7,1.158l9.157,16.012L88.2,33.527a12.619,12.619,0,0,0-.873,1.32C86.615,36.032,86.161,36.7,85.092,36.7Z" transform="translate(-43.966 0)" fill="#fff" stroke="#004884" stroke-width="1"/>
</svg>
