<svg xmlns="http://www.w3.org/2000/svg" width="53.953" height="37.202" viewBox="0 0 53.953 37.202">
  <g id="Subtraction_1" data-name="Subtraction 1" transform="translate(6457.034 5028)" fill="none">
    <path d="M-6415.908-4990.8h-41.118c1.344,0,1.9-.973,2.552-2.095a12.146,12.146,0,0,1,.82-1.288l8.975-14.146-8.975-16.292c-.253-.4-.471-.79-.664-1.134l-.016-.028c-.719-1.289-1.238-2.22-2.7-2.22h41.126c1.52,0,2.059.93,2.8,2.217.206.356.438.755.707,1.165l9.316,16.292-9.316,14.146a11.98,11.98,0,0,0-.851,1.288C-6413.922-4991.769-6414.5-4990.8-6415.908-4990.8Z" stroke="none"/>
    <path d="M -6415.90771484375 -4991.79833984375 C -6415.1396484375 -4991.79833984375 -6414.82080078125 -4992.21533203125 -6414.10498046875 -4993.40771484375 C -6413.8388671875 -4993.8515625 -6413.56396484375 -4994.31005859375 -6413.208984375 -4994.76513671875 L -6404.25341796875 -5008.36328125 L -6413.24951171875 -5024.095703125 C -6413.53125 -5024.5263671875 -6413.7734375 -5024.94482421875 -6413.96875 -5025.28173828125 C -6414.72509765625 -5026.58740234375 -6415.00732421875 -5027.00048828125 -6415.90771484375 -5027.00048828125 L -6453.88037109375 -5027.00048828125 C -6453.734375 -5026.76123046875 -6453.59716796875 -5026.51513671875 -6453.46044921875 -5026.2705078125 L -6453.4443359375 -5026.2412109375 L -6453.4345703125 -5026.2236328125 C -6453.2509765625 -5025.8955078125 -6453.04248046875 -5025.5234375 -6452.80859375 -5025.15380859375 L -6452.7919921875 -5025.1279296875 L -6452.77734375 -5025.10107421875 L -6443.80224609375 -5008.80859375 L -6443.5166015625 -5008.2900390625 L -6443.833984375 -5007.79052734375 L -6452.80908203125 -4993.64501953125 L -6452.83154296875 -4993.609375 L -6452.85693359375 -4993.576171875 C -6453.13330078125 -4993.2119140625 -6453.37109375 -4992.80078125 -6453.6015625 -4992.40283203125 L -6453.60791015625 -4992.39208984375 C -6453.71923828125 -4992.19921875 -6453.8349609375 -4991.9990234375 -6453.9599609375 -4991.79833984375 L -6415.90771484375 -4991.79833984375 M -6415.90771484375 -4990.79833984375 L -6457.025390625 -4990.79833984375 C -6455.68115234375 -4990.80224609375 -6455.12158203125 -4991.77099609375 -6454.47314453125 -4992.89306640625 C -6454.2255859375 -4993.32080078125 -6453.97021484375 -4993.76318359375 -6453.6533203125 -4994.1806640625 L -6444.67822265625 -5008.326171875 L -6453.6533203125 -5024.61865234375 C -6453.90625 -5025.01806640625 -6454.1240234375 -5025.408203125 -6454.31689453125 -5025.7529296875 L -6454.33251953125 -5025.78076171875 C -6455.05126953125 -5027.0693359375 -6455.57080078125 -5028.00048828125 -6457.03369140625 -5028.00048828125 L -6415.90771484375 -5028.00048828125 C -6414.38818359375 -5028.00048828125 -6413.84912109375 -5027.0703125 -6413.103515625 -5025.783203125 C -6412.8974609375 -5025.42724609375 -6412.666015625 -5025.0283203125 -6412.396484375 -5024.61865234375 L -6403.08056640625 -5008.326171875 L -6412.396484375 -4994.1806640625 C -6412.72509765625 -4993.76416015625 -6412.99072265625 -4993.3212890625 -6413.24755859375 -4992.89306640625 C -6413.92236328125 -4991.76904296875 -6414.5048828125 -4990.79833984375 -6415.90771484375 -4990.79833984375 Z" stroke="none" fill="#004884"/>
  </g>
</svg>
