<?xml version="1.0" encoding="UTF-8"?><svg id="a" xmlns="http://www.w3.org/2000/svg" viewBox="0 0 117.14 117.14"><defs><style>.b{fill:#fff;stroke:#024883;stroke-miterlimit:10;stroke-width:6px;}.c{fill:#024883;}</style></defs><circle class="b" cx="58.57" cy="58.57" r="55.57"/><path class="c" d="M67.03,30.77c-.12,4.18-1.01,8.2-2.21,12.16-.33,1.1-.3,2.07,.14,3.14,2.04,5,4.63,9.69,8.46,13.53,1.65,1.66,3.69,3.03,5.78,4.11,1,.52,2.53,.15,3.8,0,4.81-.52,9.58-.57,14.22,1.02,2.97,1.02,4.32,2.85,4.34,5.62,0,1.31-1.91,4.16-3.14,4.67-2.3,.96-4.72,.96-7.13,.76-5.19-.44-10.2-1.63-14.95-3.85-.46-.21-1.09-.14-1.62-.07-6.14,.76-12.29,1.49-18.27,3.15-1.65,.46-3.29,.94-4.88,1.55-.49,.19-.9,.74-1.22,1.21-2.31,3.42-4.49,6.93-6.9,10.28-1.76,2.45-3.9,4.59-6.49,6.22-1.39,.87-2.88,1.34-4.55,1.38-1.29,.03-2.16-.73-3.12-1.32-.65-.4-1.44-.83-1.77-1.46-.78-1.5-.92-3.12-.17-4.74,1.54-3.33,3.87-6.04,6.8-8.14,2.75-1.97,5.74-3.59,8.6-5.41,.5-.32,1.01-.77,1.29-1.28,2.48-4.62,5.13-9.16,7.28-13.94,1.88-4.19,3.19-8.64,4.71-12.99,.11-.32-.02-.75-.11-1.11-.62-2.29-1.38-4.55-1.86-6.87-.77-3.77-.34-7.52,.68-11.21,.26-.94,.52-1.91,.97-2.75,1.54-2.85,3.34-3.3,6.43-2.7,2.88,.56,3.98,2.73,4.48,5.3,.24,1.23,.27,2.5,.4,3.75Zm-6.79,20.91c-2.52,7.08-5.7,13.91-9.31,20.69,6.83-2.02,13.49-4.46,20.79-5.39-3-1.9-4.66-4.61-6.44-7.18-1.8-2.6-3.36-5.38-5.05-8.12Zm-29.33,38.43c3.96-.11,8.77-6.31,10.7-11.25-4.76,2.71-7.89,6.67-10.7,11.25Zm66.63-18.73c-.19-.58-.19-.84-.31-.93-.82-.6-1.6-1.37-2.53-1.72-3.16-1.2-6.5-1.17-9.82-1.25-.2,0-.4,.17-.6,.27,.18,.21,.33,.53,.56,.61,2.14,.75,4.25,1.59,6.45,2.12,1.94,.47,3.98,.58,6.26,.9ZM59.63,37.26c1.44-3.55,1.6-7.25,1.68-10.93,.02-.8-.43-1.61-.66-2.41l-.41-.03c-.28,.52-.65,1.02-.81,1.58-.76,2.56-.71,5.19-.45,7.81,.13,1.34,.43,2.66,.65,3.99Z"/></svg>