<?xml version="1.0" encoding="UTF-8"?><svg id="a" xmlns="http://www.w3.org/2000/svg" viewBox="0 0 117.14 117.14"><defs><style>.b{fill:#fff;stroke:#024883;stroke-miterlimit:10;stroke-width:6px;}.c{fill:#024883;}</style></defs><circle class="b" cx="58.57" cy="58.57" r="55.57"/><path class="c" d="M60.23,84.45v-2.96c5.44-.72,5.2-2,3.84-4.56-.8-1.36-2.48-4.16-8.24-14.08-3.68,5.68-7.2,10.88-8.64,13.68-1.84,3.28-1.44,4.16,4.16,4.96v2.96H31.44v-2.96c4.48-.4,7.36-1.68,9.68-4.48,2.88-3.52,8-10.56,12.56-17.44-3.76-6.32-7.12-11.92-11.2-18.48-2.16-3.6-3.92-5.04-9.92-5.68v-2.96h24.96v2.96c-4.8,.56-5.04,1.44-3.92,3.76,1.28,2.48,3.84,6.8,7.12,12.08,2.4-3.28,5.36-8,7.28-11.36,1.52-2.8,.88-3.6-4.08-4.48v-2.96h19.36v2.96c-5.2,.64-7.6,1.44-10.64,5.28-2.72,3.6-5.84,8.08-9.76,13.6,4.64,7.36,8.32,13.52,13.04,20.64,3.2,5.2,4.88,6,10.4,6.56v2.96h-26.08Z"/></svg>