<?xml version="1.0" encoding="utf-8"?>
<svg version="1.1" xmlns:xlink="http://www.w3.org/1999/xlink" width="34px" height="34px" xmlns="http://www.w3.org/2000/svg">
  <g transform="matrix(1 0 0 1 -59 -44 )">
    <path d="M 25.289713541666664 14.376953125  C 25.429904513888893 14.517144097222221  25.5 14.683159722222221  25.5 14.875  L 25.5 19.125  C 25.5 19.31684027777778  25.429904513888893 19.48285590277778  25.289713541666664 19.623046875  C 25.149522569444446 19.76323784722222  24.983506944444446 19.833333333333332  24.791666666666664 19.833333333333332  L 17 19.833333333333332  L 17 24.083333333333332  C 17 24.28993055555555  16.93359375 24.459635416666668  16.80078125 24.592447916666668  C 16.66796875 24.725260416666668  16.49826388888889 24.791666666666668  16.291666666666668 24.791666666666668  C 16.114583333333332 24.791666666666668  15.9375 24.717881944444443  15.760416666666668 24.5703125  L 8.69921875 17.509114583333332  C 8.56640625 17.376302083333332  8.5 17.20659722222222  8.5 17  C 8.5 16.793402777777775  8.56640625 16.623697916666664  8.69921875 16.490885416666664  L 15.782552083333332 9.407552083333334  C 15.915364583333332 9.274739583333334  16.085069444444446 9.208333333333334  16.291666666666668 9.208333333333334  C 16.483506944444446 9.208333333333334  16.649522569444446 9.278428819444441  16.789713541666668 9.418619791666666  C 16.92990451388889 9.558810763888886  17 9.724826388888886  17 9.916666666666666  L 17 14.166666666666666  L 24.791666666666664 14.166666666666666  C 24.983506944444446 14.166666666666666  25.149522569444446 14.236762152777779  25.289713541666664 14.376953125  Z M 27.42578125 23.04296875  C 28.503038194444446 21.198350694444443  29.041666666666664 19.18402777777778  29.041666666666664 17  C 29.041666666666664 14.815972222222221  28.503038194444446 12.801649305555555  27.42578125 10.95703125  C 26.348524305555557 9.112413194444441  24.887586805555557 7.651475694444441  23.04296875 6.57421875  C 21.198350694444446 5.496961805555555  19.18402777777778 4.958333333333335  17 4.958333333333335  C 14.815972222222223 4.958333333333335  12.801649305555557 5.496961805555555  10.95703125 6.57421875  C 9.112413194444445 7.651475694444441  7.651475694444445 9.112413194444441  6.57421875 10.95703125  C 5.496961805555556 12.801649305555555  4.958333333333334 14.815972222222221  4.958333333333334 17  C 4.958333333333334 19.18402777777778  5.496961805555556 21.198350694444443  6.57421875 23.04296875  C 7.651475694444445 24.88758680555555  9.112413194444445 26.348524305555554  10.95703125 27.42578125  C 12.801649305555557 28.503038194444446  14.815972222222223 29.041666666666664  17 29.041666666666664  C 19.18402777777778 29.041666666666664  21.198350694444446 28.503038194444446  23.04296875 27.42578125  C 24.887586805555557 26.348524305555554  26.348524305555557 24.88758680555555  27.42578125 23.04296875  Z M 31.720052083333336 8.466796875  C 33.24001736111111 11.071397569444441  34 13.915798611111107  34 17  C 34 20.08420138888889  33.24001736111111 22.92860243055555  31.720052083333336 25.533203125  C 30.200086805555557 28.137803819444446  28.137803819444446 30.200086805555554  25.533203125 31.720052083333336  C 22.928602430555557 33.240017361111114  20.08420138888889 34  17 34  C 13.915798611111112 34  11.071397569444445 33.240017361111114  8.466796875 31.720052083333336  C 5.862196180555556 30.200086805555554  3.7999131944444446 28.137803819444446  2.279947916666667 25.533203125  C 0.7599826388888888 22.92860243055555  0 20.08420138888889  0 17  C 0 13.915798611111107  0.7599826388888888 11.071397569444441  2.279947916666667 8.466796875  C 3.7999131944444446 5.862196180555555  5.862196180555556 3.799913194444441  8.466796875 2.279947916666665  C 11.071397569444445 0.759982638888886  13.915798611111112 0  17 0  C 20.08420138888889 0  22.928602430555557 0.759982638888886  25.533203125 2.279947916666665  C 28.137803819444446 3.799913194444441  30.200086805555557 5.862196180555555  31.720052083333336 8.466796875  Z " fill-rule="nonzero" fill="#3266cc" stroke="none" transform="matrix(1 0 0 1 59 44 )" />
  </g>
</svg>