<?xml version="1.0" encoding="UTF-8"?><svg id="Capa_1" xmlns="http://www.w3.org/2000/svg" viewBox="0 0 58.28 67.4"><defs><style>.cls-1{fill:#d7d7d7;}</style></defs><polygon class="cls-1" points="19.44 47.44 18.72 49.97 17.97 47.41 13.84 34.93 8.79 34.93 16.07 54.87 21.28 54.87 28.53 34.93 28 34.93 23.6 34.93 19.44 47.44"/><path class="cls-1" d="M40.29,0H4.78C2.14,0,0,2.14,0,4.78V62.62H0c0,2.64,2.14,4.78,4.78,4.78H53.5c2.64,0,4.78-2.14,4.78-4.78V17.99L40.29,0Zm.7,7.77l9.3,9.3h-9.27l-.02-.02V7.77Zm12.29,54.63H5V5h30.99v12.05h0c0,2.77,2.25,5.02,5.02,5.02h12.27V62.4Z"/><polygon class="cls-1" points="49.59 42.49 49.11 42.49 42.28 42.49 42.28 34.6 41.8 34.6 37 34.6 37 42.49 29.65 42.49 29.65 47.46 37 47.46 37 55.35 42.28 55.35 42.28 47.46 49.59 47.46 49.59 42.49"/></svg>