<?xml version="1.0" encoding="utf-8"?>
<svg version="1.1" xmlns:xlink="http://www.w3.org/1999/xlink" width="19px" height="19px" xmlns="http://www.w3.org/2000/svg">
  <g transform="matrix(1 0 0 1 -1081 -324 )">
    <path d="M 13.571428571428571 4.071428571428572  L 17.982142857142858 4.071428571428572  C 18.264880952380953 4.071428571428572  18.505208333333336 4.170386904761903  18.703125 4.368303571428572  C 18.901041666666668 4.5662202380952355  19 4.806547619047619  19 5.089285714285715  L 19 17.982142857142858  C 19 18.264880952380953  18.901041666666668 18.505208333333332  18.703125 18.703125  C 18.505208333333336 18.901041666666668  18.264880952380953 19  17.982142857142858 19  L 7.803571428571428 19  C 7.520833333333334 19  7.2805059523809526 18.901041666666668  7.082589285714286 18.703125  C 6.8846726190476195 18.505208333333332  6.785714285714286 18.264880952380953  6.785714285714286 17.982142857142858  L 6.785714285714286 14.928571428571429  L 1.0178571428571428 14.928571428571429  C 0.7351190476190478 14.928571428571429  0.4947916666666667 14.829613095238097  0.296875 14.631696428571429  C 0.09895833333333333 14.433779761904763  0 14.193452380952381  0 13.910714285714286  L 0 6.785714285714285  C 0 6.502976190476191  0.07068452380952381 6.191964285714285  0.21205357142857142 5.852678571428572  C 0.35342261904761907 5.513392857142857  0.5230654761904763 5.244791666666666  0.7209821428571428 5.046875  L 5.046875 0.7209821428571435  C 5.244791666666667 0.5230654761904754  5.513392857142858 0.35342261904761885  5.852678571428572 0.21205357142857173  C 6.191964285714286 0.07068452380952461  6.502976190476191 0  6.785714285714286 0  L 11.196428571428571 0  C 11.479166666666668 0  11.71949404761905 0.09895833333333404  11.917410714285715 0.296875  C 12.115327380952381 0.49479166666666596  12.214285714285715 0.7351190476190471  12.214285714285715 1.0178571428571435  L 12.214285714285715 4.495535714285715  C 12.694940476190478 4.212797619047619  13.147321428571429 4.071428571428572  13.571428571428571 4.071428571428572  Z M 12.214285714285715 9.5  L 12.214285714285715 6.329799107142857  L 9.044084821428571 9.5  L 12.214285714285715 9.5  Z M 5.428571428571428 5.428571428571428  L 5.428571428571428 2.2583705357142847  L 2.2583705357142856 5.428571428571428  L 5.428571428571428 5.428571428571428  Z M 6.997767857142858 9.924107142857144  C 7.139136904761905 9.584821428571429  7.308779761904763 9.316220238095237  7.506696428571428 9.118303571428571  L 10.857142857142856 5.767857142857143  L 10.857142857142856 1.3571428571428565  L 6.785714285714286 1.3571428571428565  L 6.785714285714286 5.767857142857143  C 6.785714285714286 6.0505952380952355  6.6867559523809526 6.290922619047619  6.488839285714286 6.488839285714285  C 6.2909226190476195 6.686755952380951  6.050595238095239 6.785714285714285  5.767857142857142 6.785714285714285  L 1.357142857142857 6.785714285714285  L 1.357142857142857 13.571428571428571  L 6.785714285714286 13.571428571428571  L 6.785714285714286 10.857142857142856  C 6.785714285714286 10.574404761904763  6.85639880952381 10.263392857142856  6.997767857142858 9.924107142857144  Z M 8.142857142857142 17.642857142857142  L 17.642857142857142 17.642857142857142  L 17.642857142857142 5.428571428571428  L 13.571428571428571 5.428571428571428  L 13.571428571428571 9.839285714285714  C 13.571428571428571 10.12202380952381  13.472470238095239 10.362351190476188  13.274553571428571 10.560267857142856  C 13.076636904761905 10.758184523809526  12.836309523809526 10.857142857142856  12.553571428571429 10.857142857142856  L 8.142857142857142 10.857142857142856  L 8.142857142857142 17.642857142857142  Z " fill-rule="nonzero" fill="#3366cc" stroke="none" transform="matrix(1 0 0 1 1081 324 )" />
  </g>
</svg>