<!-- Generator: Adobe Illustrator 19.0.0, SVG Export Plug-In  -->
<svg version="1.1"
	 xmlns="http://www.w3.org/2000/svg" xmlns:xlink="http://www.w3.org/1999/xlink" xmlns:a="http://ns.adobe.com/AdobeSVGViewerExtensions/3.0/"
	 x="0px" y="0px" width="111.1px" height="111.1px" viewBox="0 0 111.1 111.1" style="enable-background:new 0 0 111.1 111.1;"
	 xml:space="preserve">
<style type="text/css">
	.st0{fill:#3366CC;}
	.st1{fill:#FFFFFF;}
</style>
<defs>
</defs>
<circle id="XMLID_24_" class="st0" cx="55.6" cy="55.6" r="55.6"/>
<g id="XMLID_20_">
	<path id="XMLID_21_" class="st1" d="M88.7,79.1c0.6,0.6,0.9,1.3,0.9,2.1c0,0.8-0.3,1.5-0.9,2.1l-3.5,3.5c-0.6,0.6-1.3,0.9-2.1,0.9
		c-0.8,0-1.5-0.3-2.1-0.9L68.6,74.3c-0.6-0.6-0.9-1.3-0.9-2.1v-2c-4.6,3.6-9.9,5.5-15.9,5.5c-7.1,0-13.2-2.5-18.2-7.6
		c-5-5-7.6-11.1-7.6-18.2c0-7.1,2.5-13.2,7.6-18.2c5-5,11.1-7.6,18.2-7.6c7.1,0,13.2,2.5,18.2,7.6c5,5,7.6,11.1,7.6,18.2
		c0,6-1.8,11.3-5.5,15.9h2c0.8,0,1.5,0.3,2.1,0.9L88.7,79.1z M40.6,61.1c3.1,3.1,6.8,4.7,11.2,4.7c4.4,0,8.1-1.6,11.2-4.7
		c3.1-3.1,4.7-6.8,4.7-11.2c0-4.4-1.6-8.1-4.7-11.2C60,35.6,56.2,34,51.8,34c-4.4,0-8.1,1.6-11.2,4.7c-3.1,3.1-4.7,6.8-4.7,11.2
		C35.9,54.3,37.5,58,40.6,61.1z"/>
</g>
</svg>
