<?xml version="1.0" encoding="utf-8"?>
<svg version="1.1" xmlns:xlink="http://www.w3.org/1999/xlink" width="30px" height="13px" xmlns="http://www.w3.org/2000/svg">
  <g transform="matrix(1 0 0 1 -147 -687 )">
    <path d="M 29.826388888888886 6.06892067620286  C 29.942129629629633 6.18162115301257  30.000000000000007 6.311226701343735  30 6.457737321196359  C 30.000000000000007 6.615517988729952  29.942129629629633 6.750758560901602  29.826388888888886 6.863459037711314  L 23.15972222222222 12.847854356306891  C 22.974537037037038 13.005635023840483  22.77199074074074 13.039445166883398  22.552083333333336 12.94928478543563  C 22.332175925925927 12.847854356306891  22.22222222222222 12.684438664932811  22.22222222222222 12.459037711313394  L 22.22222222222222 8.672301690507153  L 0.5555555555555556 8.672301690507153  C 0.39351851851851855 8.672301690507153  0.2604166666666667 8.621586475942784  0.15625 8.520156046814044  C 0.05208333333333333 8.418725617685306  0 8.289120069354137  0 8.131339401820545  L 0 4.8855656697009096  C 0 4.727785002167317  0.05208333333333333 4.598179453836151  0.15625 4.4967490247074124  C 0.2604166666666667 4.395318595578674  0.39351851851851855 4.344603381014304  0.5555555555555556 4.344603381014304  L 22.22222222222222 4.344603381014304  L 22.22222222222222 0.557867360208063  C 22.22222222222222 0.3211963589076726  22.332175925925927 0.15778066753359266  22.552083333333336 0.06762028608582604  C 22.77199074074074 -0.022540095361943457  22.974537037037038 0.005635023840484421  23.15972222222222 0.15214564369310823  L 29.826388888888886 6.06892067620286  Z " fill-rule="nonzero" fill="#004884" stroke="none" transform="matrix(1 0 0 1 147 687 )" />
  </g>
</svg>