<?xml version="1.0" encoding="utf-8"?>
<svg version="1.1" xmlns:xlink="http://www.w3.org/1999/xlink" width="90px" height="20px" xmlns="http://www.w3.org/2000/svg">
  <g transform="matrix(1 0 0 1 -325 -68 )">
    <path d="M 326 72  A 3 3 0 0 1 329 69 L 411 69  A 3 3 0 0 1 414 72 L 414 84  A 3 3 0 0 1 411 87 L 329 87  A 3 3 0 0 1 326 84 L 326 72  Z " fill-rule="nonzero" fill="#ffffff" stroke="none" />
    <path d="M 325.5 72  A 3.5 3.5 0 0 1 329 68.5 L 411 68.5  A 3.5 3.5 0 0 1 414.5 72 L 414.5 84  A 3.5 3.5 0 0 1 411 87.5 L 329 87.5  A 3.5 3.5 0 0 1 325.5 84 L 325.5 72  Z " stroke-width="1" stroke-dasharray="3,1" stroke="#004884" fill="none" stroke-dashoffset="0.5" />
  </g>
</svg>