<?xml version="1.0" encoding="utf-8"?>
<svg version="1.1" xmlns:xlink="http://www.w3.org/1999/xlink" width="701px" height="32px" xmlns="http://www.w3.org/2000/svg">
  <g transform="matrix(1 0 0 1 -289 -62 )">
    <path d="M 290 66  A 3 3 0 0 1 293 63 L 986 63  A 3 3 0 0 1 989 66 L 989 90  A 3 3 0 0 1 986 93 L 293 93  A 3 3 0 0 1 290 90 L 290 66  Z " fill-rule="nonzero" fill="#e6effd" stroke="none" />
    <path d="M 289.5 66  A 3.5 3.5 0 0 1 293 62.5 L 986 62.5  A 3.5 3.5 0 0 1 989.5 66 L 989.5 90  A 3.5 3.5 0 0 1 986 93.5 L 293 93.5  A 3.5 3.5 0 0 1 289.5 90 L 289.5 66  Z " stroke-width="1" stroke-dasharray="3,1" stroke="#004884" fill="none" stroke-dashoffset="0.5" />
  </g>
</svg>