<?xml version="1.0" encoding="utf-8"?>
<svg version="1.1" xmlns:xlink="http://www.w3.org/1999/xlink" width="22px" height="20px" preserveAspectRatio="xMinYMid meet" viewBox="278 69  22 18" xmlns="http://www.w3.org/2000/svg">
  <g transform="matrix(-1 -0 -0 -1 578 156 )">
    <path d="M 283.84062748410383 72.69742566104532  A 15.239705906370684 15.239705906370684 0 0 0 285.2521761211931 75.26745055257308 A 5.670228167872413 5.670228167872413 0 0 0 287.66716990517796 77.5 A 5.670228167872413 5.670228167872413 0 0 0 285.25217612119303 79.73254944742688 A 15.239705906370684 15.239705906370684 0 0 0 283.84062748410383 82.30257433895467 L 284.75937251589625 82.69742566104533  A 14.239705906370684 14.239705906370684 0 0 1 286.09816670829235 80.26698905048502 A 4.670228167872413 4.670228167872413 0 0 1 289.38155828216856 77.99330340218745 A 0.5 0.5 0 0 0 289.8 77.5 A 0.5 0.5 0 0 0 289.38155828216856 77.00669659781255 A 4.670228167872413 4.670228167872413 0 0 1 286.0981667082923 74.73301094951495 A 14.239705906370684 14.239705906370684 0 0 1 284.75937251589625 72.30257433895468 L 283.8406274841038 72.69742566104533  Z " fill-rule="nonzero" fill="#004884" stroke="none" />
    <path d="M 255 77.5  L 290 77.5  " stroke-width="1" stroke="#004884" fill="none" />
  </g>
</svg>