<?xml version="1.0" encoding="utf-8"?>
<svg version="1.1" xmlns:xlink="http://www.w3.org/1999/xlink" width="4px" height="4px" preserveAspectRatio="xMinYMid meet" viewBox="104 77  4 2" xmlns="http://www.w3.org/2000/svg">
  <path d="M 134.84062748410378 72.69742566104533  A 15.239705906370684 15.239705906370684 0 0 0 136.2521761211933 75.26745055257344 A 5.670228167872413 5.670228167872413 0 0 0 138.667169905178 77.50000000000001 A 5.670228167872413 5.670228167872413 0 0 0 136.2521761211933 79.73254944742656 A 15.239705906370684 15.239705906370684 0 0 0 134.84062748410378 82.30257433895466 L 135.75937251589622 82.69742566104533  A 14.239705906370684 14.239705906370684 0 0 1 137.0981667082925 80.26698905048477 A 4.670228167872413 4.670228167872413 0 0 1 140.38155828216853 77.99330340218746 A 0.5 0.5 0 0 0 140.8 77.5 A 0.5 0.5 0 0 0 140.38155828216853 77.00669659781254 A 4.670228167872413 4.670228167872413 0 0 1 137.09816670829252 74.73301094951526 A 14.239705906370684 14.239705906370684 0 0 1 135.75937251589622 72.30257433895466 L 134.8406274841038 72.69742566104533  Z " fill-rule="nonzero" fill="#004884" stroke="none" />
  <path d="M 106 77.5  L 141 77.5  " stroke-width="1" stroke="#004884" fill="none" />
</svg>