<?xml version="1.0" encoding="utf-8"?>
<svg version="1.1" xmlns:xlink="http://www.w3.org/1999/xlink" width="40px" height="6px" preserveAspectRatio="xMinYMid meet" viewBox="988 75  40 4" xmlns="http://www.w3.org/2000/svg">
  <path d="M 1018.8406274841038 72.6974256610453  A 15.239705906370684 15.239705906370684 0 0 0 1020.2521761211926 75.26745055257248 A 5.670228167872413 5.670228167872413 0 0 0 1022.667169905178 77.50000000000001 A 5.670228167872413 5.670228167872413 0 0 0 1020.2521761211926 79.73254944742749 A 15.239705906370684 15.239705906370684 0 0 0 1018.8406274841038 82.3025743389547 L 1019.7593725158962 82.69742566104533  A 14.239705906370684 14.239705906370684 0 0 1 1021.098166708292 80.26698905048555 A 4.670228167872413 4.670228167872413 0 0 1 1024.3815582821685 77.99330340218745 A 0.5 0.5 0 0 0 1024.8 77.5 A 0.5 0.5 0 0 0 1024.3815582821685 77.00669659781255 A 4.670228167872413 4.670228167872413 0 0 1 1021.098166708292 74.73301094951441 A 14.239705906370684 14.239705906370684 0 0 1 1019.7593725158962 72.30257433895466 L 1018.8406274841037 72.69742566104533  Z " fill-rule="nonzero" fill="#004884" stroke="none" />
  <path d="M 990 77.5  L 1025 77.5  " stroke-width="1" stroke="#004884" fill="none" />
</svg>