<?xml version="1.0" encoding="utf-8"?>
<svg version="1.1" xmlns:xlink="http://www.w3.org/1999/xlink" width="4px" height="2px" preserveAspectRatio="xMinYMid meet" viewBox="1064 79  4 0" xmlns="http://www.w3.org/2000/svg">
  <path d="M 1093.8406274841036 73.69742566104534  A 15.239705906370684 15.239705906370684 0 0 0 1095.2521761211926 76.26745055257248 A 5.670228167872413 5.670228167872413 0 0 0 1097.6671699051778 78.49999999999997 A 5.670228167872413 5.670228167872413 0 0 0 1095.2521761211926 80.73254944742749 A 15.239705906370684 15.239705906370684 0 0 0 1093.8406274841036 83.30257433895464 L 1094.759372515896 83.69742566104533  A 14.239705906370684 14.239705906370684 0 0 1 1096.098166708292 81.26698905048556 A 4.670228167872413 4.670228167872413 0 0 1 1099.3815582821685 78.99330340218745 A 0.5 0.5 0 0 0 1099.8 78.5 A 0.5 0.5 0 0 0 1099.3815582821685 78.00669659781255 A 4.670228167872413 4.670228167872413 0 0 1 1096.098166708292 75.73301094951441 A 14.239705906370684 14.239705906370684 0 0 1 1094.759372515896 73.30257433895461 L 1093.8406274841038 73.69742566104533  Z " fill-rule="nonzero" fill="#004884" stroke="none" />
  <path d="M 1065 78.5  L 1100 78.5  " stroke-width="1" stroke="#004884" fill="none" />
</svg>