<?xml version="1.0" encoding="utf-8"?>
<svg version="1.1" xmlns:xlink="http://www.w3.org/1999/xlink" width="22px" height="20px" preserveAspectRatio="xMinYMid meet" viewBox="1162 69  22 18" xmlns="http://www.w3.org/2000/svg">
  <g transform="matrix(-1 -0 -0 -1 2346 156 )">
    <path d="M 1168.8406274841036 72.69742566104534  A 15.239705906370684 15.239705906370684 0 0 0 1170.2521761211926 75.26745055257248 A 5.670228167872413 5.670228167872413 0 0 0 1172.6671699051778 77.49999999999997 A 5.670228167872413 5.670228167872413 0 0 0 1170.2521761211926 79.73254944742749 A 15.239705906370684 15.239705906370684 0 0 0 1168.8406274841036 82.30257433895464 L 1169.759372515896 82.69742566104533  A 14.239705906370684 14.239705906370684 0 0 1 1171.098166708292 80.26698905048556 A 4.670228167872413 4.670228167872413 0 0 1 1174.3815582821685 77.99330340218745 A 0.5 0.5 0 0 0 1174.8 77.5 A 0.5 0.5 0 0 0 1174.3815582821685 77.00669659781255 A 4.670228167872413 4.670228167872413 0 0 1 1171.098166708292 74.73301094951441 A 14.239705906370684 14.239705906370684 0 0 1 1169.759372515896 72.30257433895461 L 1168.8406274841038 72.69742566104533  Z " fill-rule="nonzero" fill="#004884" stroke="none" />
    <path d="M 1140 77.5  L 1175 77.5  " stroke-width="1" stroke="#004884" fill="none" />
  </g>
</svg>