<svg xmlns="http://www.w3.org/2000/svg" width="19.205" height="24.364" viewBox="0 0 19.205 24.364">
  <path id="u99_1_" data-name="u99 (1)" d="M24.21,160.786l-.014,0-.01-.01a4.047,4.047,0,0,1-1.237-1.671,13.091,13.091,0,0,1-1-3.689,27.068,27.068,0,0,1-.233-3.67v-.029a6.785,6.785,0,0,0-1.128-3.732,6.872,6.872,0,0,0-2.894-2.465l-.114-.052v-1.8a2.568,2.568,0,0,0-2.561-2.565h-.228a2.539,2.539,0,0,0-1.809.752,2.57,2.57,0,0,0-.752,1.813v1.8l-.114.052a6.835,6.835,0,0,0-4.022,6.221,27.022,27.022,0,0,1-.233,3.67,12.849,12.849,0,0,1-1,3.689,4.048,4.048,0,0,1-1.237,1.671l-.01.01-.014,0a.466.466,0,0,0-.214.19.546.546,0,0,0-.076.276.509.509,0,0,0,.014.119.5.5,0,0,0,.19.3.558.558,0,0,0,.347.119h5.507l0,.19a3.542,3.542,0,0,0,7.082,0l0-.19h5.5a.558.558,0,0,0,.347-.119.51.51,0,0,0,.19-.3.54.54,0,0,0,.014-.119.546.546,0,0,0-.076-.276A.564.564,0,0,0,24.21,160.786Zm-10.918-17.12a1.477,1.477,0,0,1,.438-1.057,1.494,1.494,0,0,1,1.057-.438h.228a1.495,1.495,0,0,1,1.495,1.494v1.442l-.233-.048a6.807,6.807,0,0,0-2.751,0l-.233.048v-1.247h0v-.19Zm4.088,18.32a2.481,2.481,0,0,1-4.959,0l0-.2h4.969Zm.443-1.261H7.151l.19-.3a6.632,6.632,0,0,0,.371-.652,12.483,12.483,0,0,0,1.08-3.422,26.086,26.086,0,0,0,.366-4.607,5.745,5.745,0,1,1,11.49,0v.029a25.9,25.9,0,0,0,.366,4.588,12.578,12.578,0,0,0,1.076,3.413,7.234,7.234,0,0,0,.371.652l.19.3Z" transform="translate(-5.3 -141.1)" fill="#fff"/>
</svg>
