<svg xmlns="http://www.w3.org/2000/svg" width="22.1" height="25.124" viewBox="0 0 22.1 25.124">
  <path id="u28" d="M108.026-76.1H100.76a.875.875,0,0,1-.873-.873v-6.393H95.814v6.393a.875.875,0,0,1-.873.873H87.673a.875.875,0,0,1-.873-.873V-90.759a.872.872,0,0,1,.265-.628l9.887-9.593a.869.869,0,0,1,1.2-.015L108.615-91.4a.87.87,0,0,1,.285.643v13.783A.872.872,0,0,1,108.026-76.1Zm-6.4-1.742h5.525V-90.371l-9.578-8.783-9.028,8.768v12.541h5.525v-6.4a.875.875,0,0,1,.873-.873h5.814a.875.875,0,0,1,.873.873v6.4Z" transform="translate(-86.8 101.226)" fill="#fff"/>
</svg>
