<?xml version="1.0" encoding="UTF-8"?><svg id="Capa_1" xmlns="http://www.w3.org/2000/svg" viewBox="0 0 67.74 59.61"><defs><style>.cls-1{fill:#fff;}.cls-2{fill:none;stroke:#fff;stroke-miterlimit:10;stroke-width:3px;}.cls-3{fill:#024883;}</style></defs><circle class="cls-1" cx="15.84" cy="43.77" r="15.84"/><path class="cls-2" d="m51.88,50.28H8.43c-2.24,0-4.05-1.81-4.05-4.05V5.55c0-2.24,1.81-4.05,4.05-4.05h43.44c1.13,0,2.16.62,2.7,1.61l11.31,20.89c.49.91.49,2.01,0,2.91l-11.3,21.77c-.54.98-1.57,1.59-2.69,1.59Z"/><path class="cls-2" d="m9.24,1.5h29.49c1.13,0,2.16.62,2.7,1.61l11.31,20.89c.49.91.49,2.01,0,2.91l-11.3,21.77c-.54.98-1.57,1.59-2.69,1.59H9.24"/><path class="cls-2" d="m15.18,1.5h8.97c1.13,0,2.16.62,2.7,1.61l11.31,20.89c.49.91.49,2.01,0,2.91l-11.3,21.77c-.54.98-1.57,1.59-2.69,1.59h-8.98"/><path class="cls-3" d="m27.72,42.32v3.38c0,.12-.04.24-.12.35-.08.11-.18.18-.3.2l-2.81.43c-.19.55-.39,1.01-.59,1.38.35.51.9,1.21,1.63,2.1.1.12.15.25.15.38s-.05.25-.14.35c-.27.38-.78.92-1.51,1.64-.73.72-1.21,1.08-1.43,1.08-.12,0-.25-.05-.4-.14l-2.1-1.64c-.45.23-.91.43-1.38.58-.16,1.38-.31,2.32-.44,2.83-.07.28-.25.43-.55.43h-3.38c-.14,0-.27-.04-.37-.13s-.16-.2-.18-.33l-.43-2.8c-.5-.16-.95-.35-1.37-.56l-2.15,1.63c-.1.09-.23.14-.38.14-.14,0-.27-.06-.38-.17-1.28-1.16-2.11-2.01-2.51-2.56-.07-.1-.11-.22-.11-.35,0-.12.04-.24.12-.35.15-.21.41-.55.78-1.01s.64-.82.82-1.07c-.27-.51-.48-1.01-.62-1.51l-2.78-.41c-.13-.02-.24-.08-.32-.19-.08-.11-.12-.23-.12-.36v-3.38c0-.12.04-.24.12-.35.08-.11.18-.18.29-.2l2.83-.43c.14-.47.34-.93.59-1.4-.4-.58-.95-1.28-1.63-2.1-.1-.12-.15-.24-.15-.37,0-.1.05-.22.14-.35.26-.37.76-.91,1.5-1.64.73-.73,1.21-1.09,1.44-1.09.13,0,.26.05.4.15l2.1,1.63c.45-.23.91-.43,1.38-.58.16-1.38.31-2.32.44-2.83.07-.28.25-.43.55-.43h3.38c.14,0,.27.04.37.13.11.09.16.2.18.33l.43,2.8c.5.16.95.35,1.37.56l2.16-1.63c.09-.09.21-.14.37-.14.13,0,.26.05.38.15,1.31,1.21,2.15,2.07,2.51,2.59.07.08.11.19.11.33,0,.12-.04.24-.12.35-.15.21-.41.55-.78,1.01s-.64.82-.82,1.07c.26.51.47,1,.62,1.49l2.78.43c.13.02.24.08.32.19.08.11.12.23.12.36Zm-8.93,4.41c.76-.76,1.14-1.68,1.14-2.75s-.38-1.99-1.14-2.75c-.76-.76-1.68-1.14-2.75-1.14s-1.99.38-2.75,1.14c-.76.76-1.14,1.68-1.14,2.75s.38,1.99,1.14,2.75,1.68,1.14,2.75,1.14,1.99-.38,2.75-1.14Z"/></svg>