<svg xmlns="http://www.w3.org/2000/svg" width="22.1" height="22.1" viewBox="0 0 22.1 22.1">
  <path id="u8" d="M79.1-99.905H68.05a3.237,3.237,0,0,0-2.59-1.295H57v16.92h6.954a4.341,4.341,0,0,0,.466.768l-3.492,3.5.915.915,3.492-3.492a4.518,4.518,0,0,0,2.715.9,4.545,4.545,0,0,0,4.1-2.59H79.1ZM77.8-98.61v1.295H68.7v-.647a3.2,3.2,0,0,0-.065-.647ZM68.05-82.985a3.238,3.238,0,0,1-3.237-3.237A3.238,3.238,0,0,1,68.05-89.46a3.238,3.238,0,0,1,3.237,3.237A3.238,3.238,0,0,1,68.05-82.985Zm4.485-2.59a4.572,4.572,0,0,0,.047-.647,4.537,4.537,0,0,0-4.532-4.532,4.537,4.537,0,0,0-4.532,4.532,4.572,4.572,0,0,0,.047.647h-5.27v-14.33H65.46A1.945,1.945,0,0,1,67.4-97.963v1.942H77.8v10.446Z" transform="translate(-57 101.2)" fill="#fff"/>
</svg>
