<svg xmlns="http://www.w3.org/2000/svg" width="22.1" height="18.18" viewBox="0 0 22.1 18.18">
  <path id="u16" d="M81.035-45.948l-.461.256.461-.256L77.181-52.9A2.142,2.142,0,0,0,75.3-54H61.347a2.127,2.127,0,0,0-1.516.63,2.145,2.145,0,0,0-.63,1.516v13.887a2.127,2.127,0,0,0,.63,1.516,2.145,2.145,0,0,0,1.516.63H75.3a2.147,2.147,0,0,0,1.877-1.1l3.85-6.944a2.152,2.152,0,0,0,.269-1.039A2.1,2.1,0,0,0,81.035-45.948ZM61.347-36.871a1.083,1.083,0,0,1-.773-.322,1.083,1.083,0,0,1-.322-.773V-51.853a1.083,1.083,0,0,1,.322-.773,1.083,1.083,0,0,1,.773-.322h4.106a1.1,1.1,0,0,1,.956.565l3.854,6.944a1.127,1.127,0,0,1,.1.261,1.182,1.182,0,0,1,.035.274,1.317,1.317,0,0,1-.009.135,1.116,1.116,0,0,1-.13.4l-3.85,6.944a1.1,1.1,0,0,1-.956.565H61.347Zm5.949,0a.362.362,0,0,0,.035-.052l3.85-6.944a2.18,2.18,0,0,0,.243-.721,1.953,1.953,0,0,0,.026-.317,2.122,2.122,0,0,0-.03-.33,2.148,2.148,0,0,0-.178-.582c-.022-.043-.039-.087-.061-.126L67.33-52.9a.362.362,0,0,0-.035-.052h3.35a1.1,1.1,0,0,1,.956.565l3.85,6.944a1.127,1.127,0,0,1,.1.261,1.182,1.182,0,0,1,.035.274,1.315,1.315,0,0,1-.009.135,1.116,1.116,0,0,1-.13.4L71.6-37.432a1.1,1.1,0,0,1-.956.565H67.3ZM80.114-44.38l-3.85,6.944a1.1,1.1,0,0,1-.956.565H72.483a.362.362,0,0,0,.035-.052l3.85-6.944a2.18,2.18,0,0,0,.243-.721,1.953,1.953,0,0,0,.026-.317,2.121,2.121,0,0,0-.03-.33,2.148,2.148,0,0,0-.178-.582c-.022-.043-.039-.087-.061-.126L72.518-52.9a.363.363,0,0,0-.035-.052h2.824a1.1,1.1,0,0,1,.956.565l3.85,6.944h0a1.1,1.1,0,0,1,.139.53A1.1,1.1,0,0,1,80.114-44.38Z" transform="translate(-59.2 54)" fill="#fff"/>
</svg>
