<?xml version="1.0" encoding="UTF-8"?><svg id="Capa_1" xmlns="http://www.w3.org/2000/svg" viewBox="0 0 67.74 59.61"><defs><style>.cls-1{fill:#fff;}.cls-2{fill:none;stroke:#fff;stroke-miterlimit:10;stroke-width:3px;}.cls-3{fill:#024883;}</style></defs><circle class="cls-1" cx="15.84" cy="43.77" r="15.84"/><path class="cls-2" d="m51.88,50.28H8.43c-2.24,0-4.05-1.81-4.05-4.05V5.55c0-2.24,1.81-4.05,4.05-4.05h43.44c1.13,0,2.16.62,2.7,1.61l11.31,20.89c.49.91.49,2.01,0,2.91l-11.3,21.77c-.54.98-1.57,1.59-2.69,1.59Z"/><path class="cls-2" d="m9.24,1.5h29.49c1.13,0,2.16.62,2.7,1.61l11.31,20.89c.49.91.49,2.01,0,2.91l-11.3,21.77c-.54.98-1.57,1.59-2.69,1.59H9.24"/><path class="cls-2" d="m15.18,1.5h8.97c1.13,0,2.16.62,2.7,1.61l11.31,20.89c.49.91.49,2.01,0,2.91l-11.3,21.77c-.54.98-1.57,1.59-2.69,1.59h-8.98"/><path class="cls-3" d="m15.7,52.89c-.59-.03-1.18-.02-1.77-.09-1.19-.14-2.35-.45-3.46-.91-1.12-.47-2.15-1.11-3.07-1.89-.57-.48-1.06-1.06-1.56-1.61-.79-.86-1.36-1.85-1.87-2.89-.16-.33-.33-.67-.38-1.02-.03-.24.12-.51.22-.76.5-1.19,1.19-2.26,2-3.26,1.11-1.37,2.46-2.43,4.02-3.21,1.05-.52,2.17-.86,3.33-1.07,1.09-.2,2.17-.25,3.26-.2,1.87.09,3.67.49,5.34,1.37.89.47,1.71,1.03,2.47,1.7,1.32,1.16,2.34,2.55,3.13,4.11.14.28.24.59.39.88.22.43-.01.79-.17,1.16-.47,1.11-1.12,2.11-1.87,3.05-.77.96-1.66,1.8-2.67,2.48-1.34.91-2.81,1.55-4.41,1.86-.97.19-1.94.33-2.93.3Zm-.06-2.38c.31-.03.62-.04.92-.08.76-.11,1.52-.17,2.26-.36,1.43-.37,2.71-1.07,3.82-2.04,1.06-.93,1.93-2.04,2.54-3.32.1-.2.11-.38-.01-.58-.33-.53-.62-1.09-.98-1.6-.89-1.26-2.02-2.24-3.38-2.97-1.32-.7-2.74-1.06-4.21-1.14-1.11-.06-2.21-.03-3.32.2-1.73.36-3.25,1.09-4.57,2.25-1.06.94-1.89,2.06-2.49,3.35-.05.11-.05.3,0,.4.4.68.8,1.36,1.26,2.01.81,1.13,1.87,1.98,3.09,2.63,1.58.85,3.28,1.2,5.06,1.24Z"/><path class="cls-3" d="m15.62,49.78c-2.9.02-5.1-2.5-5.26-4.9-.23-3.54,2.55-5.88,5.35-5.82,3.07.06,5.35,2.39,5.37,5.36.02,3.01-2.54,5.41-5.46,5.36Z"/></svg>