<svg xmlns="http://www.w3.org/2000/svg" width="27.365" height="20.495" viewBox="0 0 27.365 20.495">
  <g id="list" transform="translate(0 -64.267)">
    <path id="Caminho_2663" data-name="Caminho 2663" d="M24.847,64.267H2.518a2.519,2.519,0,0,0,0,5.038H24.847a2.519,2.519,0,0,0,0-5.038Z" transform="translate(0 0)" fill="#fff"/>
    <path id="Caminho_2664" data-name="Caminho 2664" d="M24.847,208.867H2.518a2.519,2.519,0,0,0,0,5.038H24.847a2.519,2.519,0,0,0,0-5.038Z" transform="translate(0 -136.872)" fill="#fff"/>
    <path id="Caminho_2665" data-name="Caminho 2665" d="M24.847,353.467H2.518a2.519,2.519,0,0,0,0,5.038H24.847a2.519,2.519,0,0,0,0-5.038Z" transform="translate(0 -273.743)" fill="#fff"/>
  </g>
</svg>
