<?xml version="1.0" encoding="UTF-8"?><svg id="Capa_1" xmlns="http://www.w3.org/2000/svg" viewBox="0 0 67.74 59.61"><defs><style>.cls-1{fill:#fff;}.cls-2{fill:none;stroke:#fff;stroke-miterlimit:10;stroke-width:3px;}.cls-3{fill:#024883;}</style></defs><circle class="cls-1" cx="15.84" cy="43.77" r="15.84"/><path class="cls-2" d="m51.88,50.28H8.43c-2.24,0-4.05-1.81-4.05-4.05V5.55c0-2.24,1.81-4.05,4.05-4.05h43.44c1.13,0,2.16.62,2.7,1.61l11.31,20.89c.49.91.49,2.01,0,2.91l-11.3,21.77c-.54.98-1.57,1.59-2.69,1.59Z"/><path class="cls-2" d="m9.24,1.5h29.49c1.13,0,2.16.62,2.7,1.61l11.31,20.89c.49.91.49,2.01,0,2.91l-11.3,21.77c-.54.98-1.57,1.59-2.69,1.59H9.24"/><path class="cls-2" d="m15.18,1.5h8.97c1.13,0,2.16.62,2.7,1.61l11.31,20.89c.49.91.49,2.01,0,2.91l-11.3,21.77c-.54.98-1.57,1.59-2.69,1.59h-8.98"/><circle class="cls-3" cx="15.46" cy="38.97" r="5.13"/><path class="cls-3" d="m20.16,44.72c-.22-.06-.46,0-.63.13-1.89,1.38-4.1,1.28-4.11,1.28-1.51,0-2.88-.48-3.92-1.25-.2-.15-.47-.22-.73-.15-4.33,1.17-3.71,6.41-3.71,6.41,0,1.42,1.42,2.57,3.16,2.57h10.54c1.75,0,3.16-1.15,3.16-2.57,0,0,.62-5.29-3.77-6.43Z"/></svg>