<svg xmlns="http://www.w3.org/2000/svg" width="22.066" height="18.164" viewBox="0 0 22.066 18.164">
  <g id="u109" transform="translate(50.4 -188.6)">
    <g id="Grupo_4813" data-name="Grupo 4813" transform="translate(-48.082 190.462)">
      <path id="Trazado_8796" data-name="Trazado 8796" d="M319.7,402.9v0h0Z" transform="translate(-305.92 -395.44)" fill="#fff"/>
      <path id="Trazado_8797" data-name="Trazado 8797" d="M20.333,238.577a1.726,1.726,0,0,0-.17-.748h0l-.052-.1h0l-.052-.1h0l-2.949-5.32a1.78,1.78,0,0,0-1.557-.918H4.679A1.782,1.782,0,0,0,2.9,233.179V244a1.782,1.782,0,0,0,1.779,1.779h10.87a1.777,1.777,0,0,0,1.557-.918l3-5.411a1.776,1.776,0,0,0,.222-.861h0C20.333,238.594,20.333,238.586,20.333,238.577Zm-1.127.378-3,5.411h0a.748.748,0,0,1-.648.383h-2.01l2.932-5.289a1.788,1.788,0,0,0,.2-.6,1.819,1.819,0,0,0,.022-.265,1.887,1.887,0,0,0-.026-.274,1.724,1.724,0,0,0-.148-.483h0a1.024,1.024,0,0,0-.048-.1l-2.932-5.294h2.01a.738.738,0,0,1,.648.383l3,5.411h0a.721.721,0,0,1,0,.718Zm-3.632,0-3,5.411h0a.748.748,0,0,1-.648.383H9.5l2.936-5.294h0a1.787,1.787,0,0,0,.2-.6,1.819,1.819,0,0,0,.022-.265,1.887,1.887,0,0,0-.026-.274,1.724,1.724,0,0,0-.148-.483h0a1.024,1.024,0,0,0-.048-.1l-2.932-5.294H11.93a.738.738,0,0,1,.648.383l3,5.411h0a.693.693,0,0,1,.07.174.95.95,0,0,1,.022.187c0,.03,0,.061,0,.091A.9.9,0,0,1,15.575,238.96Zm-4.045,0-3,5.411h0a.748.748,0,0,1-.648.383H4.788v0H4.679a.743.743,0,0,1-.744-.744V233.183a.743.743,0,0,1,.744-.744h3.2a.738.738,0,0,1,.648.383h0l3,5.411h0a.693.693,0,0,1,.07.174.951.951,0,0,1,.022.187c0,.03,0,.061,0,.091A.627.627,0,0,1,11.53,238.96Z" transform="translate(-2.9 -231.4)" fill="#fff"/>
      <path id="Trazado_8798" data-name="Trazado 8798" d="M14.9,243.5Z" transform="translate(-14.378 -242.974)" fill="#fff"/>
      <path id="Trazado_8799" data-name="Trazado 8799" d="M14.9,550.1Z" transform="translate(-14.378 -536.238)" fill="#fff"/>
      <path id="Trazado_8800" data-name="Trazado 8800" d="M319.6,390.6Z" transform="translate(-305.825 -383.675)" fill="#fff"/>
      <path id="Trazado_8801" data-name="Trazado 8801" d="M226.7,390.6Z" transform="translate(-216.965 -383.675)" fill="#fff"/>
      <path id="Trazado_8802" data-name="Trazado 8802" d="M226.8,402.9v0h0Z" transform="translate(-217.061 -395.44)" fill="#fff"/>
      <path id="Trazado_8803" data-name="Trazado 8803" d="M315.1,416.7Z" transform="translate(-301.52 -408.64)" fill="#fff"/>
      <path id="Trazado_8804" data-name="Trazado 8804" d="M222.1,377.1Z" transform="translate(-212.566 -370.763)" fill="#fff"/>
    </g>
    <g id="Grupo_4814" data-name="Grupo 4814" transform="translate(-50.4 188.6)">
      <path id="Trazado_8805" data-name="Trazado 8805" d="M-32.819,206.377v-.387H-45.911a3.663,3.663,0,0,1-1.435-.291,3.727,3.727,0,0,1-1.635-1.335,3.63,3.63,0,0,1-.635-2.053v-9.247a3.636,3.636,0,0,1,.291-1.427,3.735,3.735,0,0,1,1.344-1.622,3.668,3.668,0,0,1,2.066-.631h13.092a3.663,3.663,0,0,1,1.435.291,3.715,3.715,0,0,1,1.631,1.335,3.63,3.63,0,0,1,.635,2.053v9.247a3.636,3.636,0,0,1-.291,1.427,3.735,3.735,0,0,1-1.344,1.622,3.668,3.668,0,0,1-2.066.631v.774a4.493,4.493,0,0,0,1.744-.352,4.5,4.5,0,0,0,1.975-1.618,4.42,4.42,0,0,0,.77-2.488v-9.247a4.413,4.413,0,0,0-.352-1.731,4.534,4.534,0,0,0-1.627-1.962,4.473,4.473,0,0,0-2.505-.766H-45.911a4.493,4.493,0,0,0-1.744.352,4.5,4.5,0,0,0-1.975,1.618,4.421,4.421,0,0,0-.77,2.488h0v9.247a4.413,4.413,0,0,0,.352,1.731A4.534,4.534,0,0,0-48.421,206a4.473,4.473,0,0,0,2.505.766h13.092v-.387Z" transform="translate(50.4 -188.6)" fill="#fff"/>
    </g>
  </g>
</svg>
