<svg xmlns="http://www.w3.org/2000/svg" width="21.5" height="25.574" viewBox="0 0 21.5 25.574">
  <g id="u89" transform="translate(73.923 -48.6)">
    <path id="Caminho_8792" data-name="Caminho 8792" d="M-52.453,55.179c-.012-.692-.024-1.349-.024-1.97a.9.9,0,0,0-.9-.9,12.359,12.359,0,0,1-9.181-3.462.909.909,0,0,0-1.254,0,12.349,12.349,0,0,1-9.17,3.462.9.9,0,0,0-.9.9c0,.633-.012,1.289-.024,1.97-.119,6.423-.287,15.235,10.423,18.948a.824.824,0,0,0,.3.048.825.825,0,0,0,.3-.048C-52.154,70.413-52.322,61.6-52.453,55.179ZM-63.175,72.336c-9.193-3.343-9.05-10.65-8.931-17.121.012-.382.012-.764.024-1.134A13.825,13.825,0,0,0-63.175,50.7a13.85,13.85,0,0,0,8.907,3.379c0,.37.012.74.024,1.134C-54.112,61.674-53.981,68.993-63.175,72.336Z" fill="#fff"/>
    <g id="Grupo_4811" data-name="Grupo 4811" transform="translate(-66.159 59.143)">
      <path id="Caminho_8793" data-name="Caminho 8793" d="M39.1,138.8Z" transform="translate(-33.369 -138.573)" fill="#fff"/>
      <path id="Caminho_8794" data-name="Caminho 8794" d="M-3.169,137.127a.758.758,0,0,0-.549-.227.778.778,0,0,0-.549.227h0l-2.388,2.388-.919-.919a.758.758,0,0,0-.549-.227.778.778,0,0,0-.549.227.758.758,0,0,0-.227.549.778.778,0,0,0,.227.549l1.469,1.469a.758.758,0,0,0,.549.227.778.778,0,0,0,.549-.227l2.937-2.937a.758.758,0,0,0,.227-.549A.778.778,0,0,0-3.169,137.127Z" transform="translate(8.9 -136.9)" fill="#fff"/>
    </g>
    <g id="Grupo_4812" data-name="Grupo 4812" transform="translate(-69.395 55.25)">
      <path id="Caminho_8795" data-name="Caminho 8795" d="M-24.777,110.27h-.716a4.52,4.52,0,0,1-1.325,3.212,4.52,4.52,0,0,1-3.212,1.325,4.52,4.52,0,0,1-3.212-1.325,4.52,4.52,0,0,1-1.325-3.212,4.52,4.52,0,0,1,1.325-3.212,4.52,4.52,0,0,1,3.212-1.325,4.52,4.52,0,0,1,3.212,1.325,4.52,4.52,0,0,1,1.325,3.212h1.433a6,6,0,0,0-1.743-4.227A5.974,5.974,0,0,0-30.03,104.3a6,6,0,0,0-4.227,1.743A5.974,5.974,0,0,0-36,110.27a6,6,0,0,0,1.743,4.227,5.974,5.974,0,0,0,4.227,1.743A6,6,0,0,0-25.8,114.5a5.974,5.974,0,0,0,1.743-4.227h-.716Z" transform="translate(36 -104.3)" fill="#fff"/>
    </g>
  </g>
</svg>
