<?xml version="1.0" encoding="UTF-8"?><svg id="Capa_1" xmlns="http://www.w3.org/2000/svg" viewBox="0 0 67.74 59.61"><defs><style>.cls-1{fill:#fff;}.cls-2{fill:none;stroke:#fff;stroke-miterlimit:10;stroke-width:3px;}.cls-3{fill:#024883;}</style></defs><circle class="cls-1" cx="15.84" cy="43.77" r="15.84"/><path class="cls-2" d="m51.88,50.28H8.43c-2.24,0-4.05-1.81-4.05-4.05V5.55c0-2.24,1.81-4.05,4.05-4.05h43.44c1.13,0,2.16.62,2.7,1.61l11.31,20.89c.49.91.49,2.01,0,2.91l-11.3,21.77c-.54.98-1.57,1.59-2.69,1.59Z"/><path class="cls-2" d="m9.24,1.5h29.49c1.13,0,2.16.62,2.7,1.61l11.31,20.89c.49.91.49,2.01,0,2.91l-11.3,21.77c-.54.98-1.57,1.59-2.69,1.59H9.24"/><path class="cls-2" d="m15.18,1.5h8.97c1.13,0,2.16.62,2.7,1.61l11.31,20.89c.49.91.49,2.01,0,2.91l-11.3,21.77c-.54.98-1.57,1.59-2.69,1.59h-8.98"/><path class="cls-3" d="m25.8,39.78c0,.33-.1.61-.33.84l-8.72,9.06-1.64,1.7c-.22.23-.5.35-.83.36s-.61-.1-.84-.33l-1.7-1.64-4.53-4.36c-.23-.22-.35-.5-.36-.83s.1-.61.33-.84l1.64-1.7c.22-.23.5-.35.83-.36s.61.1.84.33l3.68,3.55,7.9-8.22c.22-.23.5-.35.83-.36s.61.1.84.33l1.7,1.64c.23.22.35.5.36.83Z"/></svg>