<?xml version="1.0" encoding="utf-8"?>
<svg version="1.1" xmlns:xlink="http://www.w3.org/1999/xlink" width="15px" height="10px" xmlns="http://www.w3.org/2000/svg">
  <g transform="matrix(1 0 0 1 -1099 -29 )">
    <path d="M 15 7.78260869565217  C 15 7.95330112721417  14.9410669975186 8.09983896940419  14.8232009925558 8.22222222222222  L 13.2785359801489 9.81642512077295  C 13.1606699751861 9.93880837359098  13.0210918114144 10  12.8598014888337 10  C 12.6985111662531 10  12.5589330024814 9.93880837359098  12.4410669975186 9.81642512077295  L 7.5 4.68599033816425  L 2.55893300248139 9.81642512077295  C 2.44106699751861 9.93880837359098  2.3014888337469 10  2.14019851116625 10  C 1.97890818858561 10  1.8393300248139 9.93880837359098  1.72146401985112 9.81642512077295  L 0.176799007444169 8.22222222222222  C 0.0589330024813897 8.09983896940419  0 7.95330112721417  0 7.78260869565217  C 0 7.61191626409018  0.0589330024813897 7.46537842190016  0.176799007444169 7.34299516908212  L 7.08126550868486 0.183574879227053  C 7.19913151364764 0.0611916264090173  7.33870967741936 0  7.5 0  C 7.66129032258065 0  7.80086848635236 0.0611916264090173  7.91873449131514 0.183574879227053  L 14.8232009925558 7.34299516908212  C 14.9410669975186 7.46537842190016  15 7.61191626409018  15 7.78260869565217  Z " fill-rule="nonzero" fill="#004884" stroke="none" transform="matrix(1 0 0 1 1099 29 )" />
  </g>
</svg>