<?xml version="1.0" encoding="utf-8"?>
<svg version="1.1" xmlns:xlink="http://www.w3.org/1999/xlink" width="20px" height="23px" xmlns="http://www.w3.org/2000/svg">
  <g transform="matrix(1 0 0 1 -14 -213 )">
    <path d="M 15.052083333333332 0.8727678571428579  L 19.114583333333332 4.877232142857142  C 19.35763888888889 5.1168154761904745  19.56597222222222 5.4419642857142865  19.739583333333332 5.852678571428571  C 19.913194444444443 6.263392857142858  20 6.639880952380952  20 6.982142857142858  L 20 21.767857142857142  C 20 22.110119047619047  19.87847222222222 22.401041666666664  19.635416666666668 22.640625  C 19.392361111111114 22.880208333333336  19.09722222222222 23  18.75 23  L 1.25 23  C 0.9027777777777779 23  0.607638888888889 22.880208333333336  0.36458333333333337 22.640625  C 0.12152777777777776 22.401041666666664  0 22.110119047619047  0 21.767857142857142  L 0 1.2321428571428579  C 0 0.8898809523809518  0.12152777777777776 0.5989583333333325  0.36458333333333337 0.359375  C 0.607638888888889 0.11979166666666752  0.9027777777777779 0  1.25 0  L 12.916666666666668 0  C 13.263888888888891 0  13.645833333333332 0.08556547619047716  14.0625 0.25669642857142894  C 14.479166666666668 0.4278273809523807  14.809027777777779 0.6331845238095228  15.052083333333332 0.8727678571428579  Z M 13.8671875 2.027901785714287  C 13.763020833333332 1.925223214285713  13.585069444444446 1.8311011904761878  13.333333333333332 1.745535714285713  L 13.333333333333332 6.571428571428571  L 18.229166666666668 6.571428571428571  C 18.142361111111114 6.323288690476188  18.046875 6.1478794642857135  17.942708333333332 6.045200892857142  L 13.8671875 2.027901785714287  Z M 2 21  L 18 21  L 18 8.214285714285714  L 12.916666666666668 8.214285714285714  C 12.569444444444445 8.214285714285714  12.274305555555555 8.094494047619046  12.03125 7.8549107142857135  C 11.788194444444445 7.6153273809523805  11.666666666666668 7.324404761904759  11.666666666666668 6.982142857142858  L 11.666666666666668 2  L 2 2  L 2 21  Z M 6.471354166666666 18.353794642857142  L 5.5859375 18.353794642857142  L 5.5859375 19.714285714285715  L 9.244791666666666 19.714285714285715  L 9.244791666666666 18.353794642857142  L 8.268229166666666 18.353794642857142  L 9.609375 16.287388392857142  C 9.652777777777779 16.227492559523807  9.696180555555557 16.156901041666664  9.739583333333334 16.075613839285715  C 9.78298611111111 15.994326636904761  9.815538194444445 15.936569940476188  9.837239583333334 15.90234375  C 9.858940972222223 15.868117559523807  9.874131944444445 15.851004464285715  9.8828125 15.851004464285715  L 9.908854166666666 15.851004464285715  C 9.917534722222223 15.885230654761903  9.93923611111111 15.928013392857142  9.973958333333334 15.979352678571429  C 9.991319444444443 16.013578869047617  10.010850694444445 16.045665922619044  10.032552083333332 16.075613839285715  C 10.054253472222223 16.10556175595238  10.080295138888891 16.13978794642857  10.110677083333332 16.178292410714285  C 10.141059027777779 16.216796875  10.169270833333336 16.253162202380953  10.1953125 16.287388392857142  L 11.588541666666668 18.353794642857142  L 10.598958333333332 18.353794642857142  L 10.598958333333332 19.714285714285715  L 14.388020833333332 19.714285714285715  L 14.388020833333332 18.353794642857142  L 13.502604166666668 18.353794642857142  L 11.002604166666668 14.849888392857142  L 13.541666666666668 11.23046875  L 14.4140625 11.23046875  L 14.4140625 9.857142857142858  L 10.78125 9.857142857142858  L 10.78125 11.23046875  L 11.744791666666668 11.23046875  L 10.403645833333332 13.271205357142858  C 10.368923611111114 13.33110119047619  10.325520833333336 13.401692708333332  10.2734375 13.482979910714285  C 10.221354166666668 13.564267113095239  10.182291666666668 13.622023809523807  10.15625 13.65625  L 10.130208333333332 13.694754464285715  L 10.104166666666668 13.694754464285715  C 10.09548611111111 13.660528273809522  10.073784722222223 13.617745535714285  10.0390625 13.56640625  C 9.986979166666666 13.472284226190478  9.913194444444445 13.373883928571429  9.817708333333334 13.271205357142858  L 8.4375 11.23046875  L 9.427083333333334 11.23046875  L 9.427083333333334 9.857142857142858  L 5.651041666666666 9.857142857142858  L 5.651041666666666 11.23046875  L 6.536458333333334 11.23046875  L 8.997395833333334 14.721540178571429  L 6.471354166666666 18.353794642857142  Z " fill-rule="nonzero" fill="#ffffff" stroke="none" transform="matrix(1 0 0 1 14 213 )" />
  </g>
</svg>