<?xml version="1.0" encoding="utf-8"?>
<!-- Generator: Adobe Illustrator 27.0.0, SVG Export Plug-In . SVG Version: 6.00 Build 0)  -->
<svg version="1.1" id="Capa_1" xmlns="http://www.w3.org/2000/svg" xmlns:xlink="http://www.w3.org/1999/xlink" x="0px" y="0px"
	 viewBox="0 0 20 27" style="enable-background:new 0 0 20 27;" xml:space="preserve">
<style type="text/css">
	.st0{fill:#FFFFFF;}
	.st1{fill:none;}
	.st2{fill:#3366CC;}
</style>
<g>
	<g>
		<path class="st0" d="M17,15.3c-1.1-1.7-3.1-2.8-5.3-2.8c-3.5,0-6.4,2.8-6.4,6.3c0,3.3,2.5,6,5.8,6.3c0.2,0,0.4,0,0.6,0
			c3.5,0,6.4-2.8,6.4-6.3C18.1,17.5,17.7,16.3,17,15.3z"/>
		<path class="st1" d="M17,15.3c0.7,1,1.1,2.2,1.1,3.5c0,3.5-2.9,6.3-6.4,6.3c-0.2,0-0.4,0-0.6,0c0.2,0,0.5,0,0.7,0
			c1.8,0,3.3-0.7,4.5-1.9c1.2-1.2,1.9-2.7,1.9-4.5C18.1,17.5,17.7,16.3,17,15.3z"/>
		<path class="st2" d="M17.5,13.1c-1.5-1.5-3.6-2.4-5.8-2.4c-0.4,0-0.7,0-1.1,0.1c-0.7-0.6-1.7-1.1-3-1.6C5.3,8.3,4.3,7.7,4.3,6.9
			c0-0.8,0.6-1.5,2.3-1.5c2,0,3.2,0.6,3.9,0.9l0.8-3c-0.9-0.4-2.1-0.8-4-0.9V0H4.8v2.5C1.8,3.1,0.2,5,0.2,7.3c0,2.6,2,3.9,4.9,4.9
			c0.5,0.2,0.9,0.3,1.2,0.5C6.2,12.9,6,13,5.9,13.1C5,14,4.4,15,4,16.2c-1.2-0.2-2.3-0.6-3.1-1.1L0,18.2c0.8,0.5,2.1,0.8,3.5,1.1
			c0.1,2.1,1,3.9,2.4,5.3c1.5,1.5,3.6,2.4,5.8,2.4s4.3-0.9,5.8-2.4c1.5-1.5,2.4-3.5,2.4-5.8C20,16.6,19,14.6,17.5,13.1z M16.3,23.3
			c-1.2,1.2-2.8,1.9-4.5,1.9c-0.2,0-0.5,0-0.7,0c-3.2-0.3-5.8-3-5.8-6.3c0-3.5,2.9-6.3,6.4-6.3c2.2,0,4.2,1.1,5.3,2.8
			c0.7,1,1.1,2.2,1.1,3.5C18.1,20.6,17.4,22.2,16.3,23.3z"/>
	</g>
	<path class="st2" d="M15.1,22.7c0-0.5,0.1-1.9-0.5-2.8c-0.3-0.4-0.6-0.6-1-0.8c-0.5-0.2-0.9-0.3-1.4-0.3c-0.4,0-0.8-0.1-1.2-0.1
		c0,0-0.1,0-0.1,0c0,0,0,0.1,0,0.1c0,0.4,0,0.8,0,1.2c0,0.1,0,0.1,0,0.2c-0.1,0.2-0.2,0.2-0.4,0.1c-0.4-0.3-0.8-0.6-1.2-0.9
		c-0.6-0.4-1.1-0.8-1.6-1.2c-0.2-0.1-0.2-0.3,0-0.4c1-0.7,1.9-1.5,2.8-2.2c0,0,0.1-0.1,0.1-0.1c0.1,0,0.3,0,0.3,0.2c0,0,0,0.1,0,0.1
		c0,0.4,0,0.8,0,1.2c0,0,0,0.1,0,0.1c0,0,0.1,0,0.1,0c0.6,0,1.2,0,1.8,0.2c0.5,0.1,1,0.3,1.4,0.5c0.6,0.4,1.2,1.1,1.5,1.7
		C16.2,21.2,15.1,23.1,15.1,22.7z"/>
</g>
</svg>
