<?xml version="1.0" encoding="utf-8"?>
<!-- Generator: Adobe Illustrator 26.3.1, SVG Export Plug-In . SVG Version: 6.00 Build 0)  -->
<svg version="1.1" id="Capa_1" xmlns="http://www.w3.org/2000/svg" xmlns:xlink="http://www.w3.org/1999/xlink" x="0px" y="0px"
	 viewBox="0 0 22.4 12" style="enable-background:new 0 0 22.4 12;" xml:space="preserve">
<style type="text/css">
	.st0{fill:#3366CC;}
</style>
<g>
	<g transform="matrix(1 0 0 1 -461 -252 )">
		<path class="st0" d="M473.6,262.8c0.1-0.1,0.1-0.1,0.1-0.2V261c0-0.1,0-0.1-0.1-0.2c-0.1-0.1-0.1-0.1-0.2-0.1h-2.7
			c-0.1,0-0.1,0-0.2,0.1c-0.1,0.1-0.1,0.1-0.1,0.2v1.6c0,0.1,0,0.1,0.1,0.2c0.1,0.1,0.1,0.1,0.2,0.1h2.7
			C473.5,262.9,473.5,262.9,473.6,262.8z M473.6,259.6c0.1-0.1,0.1-0.1,0.1-0.2v-1.6c0-0.1,0-0.1-0.1-0.2c-0.1-0.1-0.1-0.1-0.2-0.1
			h-2.7c-0.1,0-0.1,0-0.2,0.1s-0.1,0.1-0.1,0.2v1.6c0,0.1,0,0.1,0.1,0.2s0.1,0.1,0.2,0.1h2.7C473.5,259.6,473.5,259.6,473.6,259.6z
			 M477.9,262.8c0.1-0.1,0.1-0.1,0.1-0.2V261c0-0.1,0-0.1-0.1-0.2c-0.1-0.1-0.1-0.1-0.2-0.1H475c-0.1,0-0.1,0-0.2,0.1
			c-0.1,0.1-0.1,0.1-0.1,0.2v1.6c0,0.1,0,0.1,0.1,0.2c0.1,0.1,0.1,0.1,0.2,0.1h2.7C477.8,262.9,477.8,262.9,477.9,262.8z
			 M473.6,256.3c0.1-0.1,0.1-0.1,0.1-0.2v-1.6c0-0.1,0-0.1-0.1-0.2c-0.1-0.1-0.1-0.1-0.2-0.1h-2.7c-0.1,0-0.1,0-0.2,0.1
			c-0.1,0.1-0.1,0.1-0.1,0.2v1.6c0,0.1,0,0.1,0.1,0.2c0.1,0.1,0.1,0.1,0.2,0.1h2.7C473.5,256.4,473.5,256.3,473.6,256.3z
			 M477.9,259.6c0.1-0.1,0.1-0.1,0.1-0.2v-1.6c0-0.1,0-0.1-0.1-0.2s-0.1-0.1-0.2-0.1H475c-0.1,0-0.1,0-0.2,0.1s-0.1,0.1-0.1,0.2v1.6
			c0,0.1,0,0.1,0.1,0.2s0.1,0.1,0.2,0.1h2.7C477.8,259.6,477.8,259.6,477.9,259.6z M482.2,262.8c0.1-0.1,0.1-0.1,0.1-0.2V261
			c0-0.1,0-0.1-0.1-0.2c-0.1-0.1-0.1-0.1-0.2-0.1h-2.7c-0.1,0-0.1,0-0.2,0.1c-0.1,0.1-0.1,0.1-0.1,0.2v1.6c0,0.1,0,0.1,0.1,0.2
			c0.1,0.1,0.1,0.1,0.2,0.1h2.7C482.1,262.9,482.2,262.9,482.2,262.8z M477.9,256.3c0.1-0.1,0.1-0.1,0.1-0.2v-1.6
			c0-0.1,0-0.1-0.1-0.2c-0.1-0.1-0.1-0.1-0.2-0.1H475c-0.1,0-0.1,0-0.2,0.1c-0.1,0.1-0.1,0.1-0.1,0.2v1.6c0,0.1,0,0.1,0.1,0.2
			c0.1,0.1,0.1,0.1,0.2,0.1h2.7C477.8,256.4,477.8,256.3,477.9,256.3z M482.2,259.6c0.1-0.1,0.1-0.1,0.1-0.2v-1.6
			c0-0.1,0-0.1-0.1-0.2c-0.1-0.1-0.1-0.1-0.2-0.1h-2.7c-0.1,0-0.1,0-0.2,0.1s-0.1,0.1-0.1,0.2v1.6c0,0.1,0,0.1,0.1,0.2
			s0.1,0.1,0.2,0.1h2.7C482.1,259.6,482.2,259.6,482.2,259.6z M482.2,256.3c0.1-0.1,0.1-0.1,0.1-0.2v-1.6c0-0.1,0-0.1-0.1-0.2
			c-0.1-0.1-0.1-0.1-0.2-0.1h-2.7c-0.1,0-0.1,0-0.2,0.1c-0.1,0.1-0.1,0.1-0.1,0.2v1.6c0,0.1,0,0.1,0.1,0.2c0.1,0.1,0.1,0.1,0.2,0.1
			h2.7C482.1,256.4,482.2,256.3,482.2,256.3z M483,252.4c0.3,0.3,0.4,0.6,0.4,1v9.3c0,0.4-0.1,0.7-0.4,1c-0.3,0.3-0.6,0.4-1,0.4
			h-11.3c-0.4,0-0.7-0.1-1-0.4c-0.3-0.3-0.4-0.6-0.4-1v-9.3c0-0.4,0.1-0.7,0.4-1s0.6-0.4,1-0.4H482C482.4,252,482.7,252.1,483,252.4
			z"/>
	</g>
	<g transform="matrix(1 0 0 1 -453 -252 )">
		<path class="st0" d="M456.9,254.8c0,0.1,0.1,0.2,0,0.2c0,0.1-0.1,0.1-0.2,0.1h-1.2v8.7c0,0.1,0,0.1,0,0.2c0,0-0.1,0.1-0.1,0.1h-1
			c0,0-0.1,0-0.1-0.1c0,0,0-0.1,0-0.2v-8.7h-1.2c-0.1,0-0.1,0-0.2-0.1c0-0.1,0-0.2,0-0.2l1.8-2.7c0,0,0.1-0.1,0.1-0.1
			c0,0,0.1,0,0.1,0.1L456.9,254.8z"/>
	</g>
</g>
</svg>
