<?xml version="1.0" encoding="utf-8"?>
<svg version="1.1" xmlns:xlink="http://www.w3.org/1999/xlink" width="163px" height="48px" xmlns="http://www.w3.org/2000/svg">
  <defs>
    <mask fill="white" id="clip439">
      <path d="M 0.600000000000023 48  C 7.5 37.5  15.632768361582 23.7966101694915  15.632768361582 23.7966101694915  C 15.632768361582 23.7966101694915  5.08662900188324 7.4124293785311  0.00188323917132038 0  L 147 0  C 149.8 0  150.416195856874 2.13935969868174  152 5  L 162.7 23.7966101694915  L 152 43  C 150.604519774011 45.8305084745763  149.8 48  147 48  L 0.600000000000023 48  Z " fill-rule="evenodd" />
    </mask>
  </defs>
  <g transform="matrix(1 0 0 1 -475 -11 )">
    <path d="M 0.600000000000023 48  C 7.5 37.5  15.632768361582 23.7966101694915  15.632768361582 23.7966101694915  C 15.632768361582 23.7966101694915  5.08662900188324 7.4124293785311  0.00188323917132038 0  L 147 0  C 149.8 0  150.416195856874 2.13935969868174  152 5  L 162.7 23.7966101694915  L 152 43  C 150.604519774011 45.8305084745763  149.8 48  147 48  L 0.600000000000023 48  Z " fill-rule="nonzero" fill="#e6effd" stroke="none" transform="matrix(1 0 0 1 475 11 )" />
    <path d="M 0.600000000000023 48  C 7.5 37.5  15.632768361582 23.7966101694915  15.632768361582 23.7966101694915  C 15.632768361582 23.7966101694915  5.08662900188324 7.4124293785311  0.00188323917132038 0  L 147 0  C 149.8 0  150.416195856874 2.13935969868174  152 5  L 162.7 23.7966101694915  L 152 43  C 150.604519774011 45.8305084745763  149.8 48  147 48  L 0.600000000000023 48  Z " stroke-width="2" stroke="#004884" fill="none" transform="matrix(1 0 0 1 475 11 )" mask="url(#clip439)" />
  </g>
</svg>