<?xml version="1.0" encoding="utf-8"?>
<svg version="1.1" xmlns:xlink="http://www.w3.org/1999/xlink" width="150px" height="48px" xmlns="http://www.w3.org/2000/svg">
  <defs>
    <mask fill="white" id="clip441">
      <path d="M 0.5 43.2  L 0.5 4.80000000000001  C 0.5 2.11199999999999  2.69999999999999 0  5.5 0  L 132.217494089834 0  C 134.467494089834 0.120000000000005  135.092494089834 2.03999999999999  137.217494089834 4.80000000000001  L 149.217494089835 24  L 137.217494089834 43.2  C 135.217494089834 46.2  135.017494089834 48  132.217494089834 48  L 5.5 48  C 2.69999999999999 48  0.5 45.888  0.5 43.2  Z " fill-rule="evenodd" />
    </mask>
  </defs>
  <g transform="matrix(1 0 0 1 0 -11 )">
    <path d="M 0.5 43.2  L 0.5 4.80000000000001  C 0.5 2.11199999999999  2.69999999999999 0  5.5 0  L 132.217494089834 0  C 134.467494089834 0.120000000000005  135.092494089834 2.03999999999999  137.217494089834 4.80000000000001  L 149.217494089835 24  L 137.217494089834 43.2  C 135.217494089834 46.2  135.017494089834 48  132.217494089834 48  L 5.5 48  C 2.69999999999999 48  0.5 45.888  0.5 43.2  Z " fill-rule="nonzero" fill="#e6effd" stroke="none" transform="matrix(1 0 0 1 0 11 )" />
    <path d="M 0.5 43.2  L 0.5 4.80000000000001  C 0.5 2.11199999999999  2.69999999999999 0  5.5 0  L 132.217494089834 0  C 134.467494089834 0.120000000000005  135.092494089834 2.03999999999999  137.217494089834 4.80000000000001  L 149.217494089835 24  L 137.217494089834 43.2  C 135.217494089834 46.2  135.017494089834 48  132.217494089834 48  L 5.5 48  C 2.69999999999999 48  0.5 45.888  0.5 43.2  Z " stroke-width="4" stroke="#004884" fill="none" transform="matrix(1 0 0 1 0 11 )" mask="url(#clip441)" />
  </g>
</svg>