<?xml version="1.0" encoding="utf-8"?>
<svg version="1.1" xmlns:xlink="http://www.w3.org/1999/xlink" width="163px" height="48px" xmlns="http://www.w3.org/2000/svg">
  <defs>
    <mask fill="white" id="clip21">
      <path d="M 0.00188323917132038 48  C 6.125 36.875  13.375 23.7966101694915  13.375 23.7966101694915  C 13.375 23.7966101694915  4.375 7.5  0.00188323917132038 0  L 147 0  C 149.8 0  149.6 0.300000000000011  149.5 0  L 162.7 23.7966101694915  L 149.5 48  C 149.5 47.8  149.8 48  147 48  L 6.75 48  L 0.00188323917132038 48  Z " fill-rule="evenodd" />
    </mask>
  </defs>
  <g transform="matrix(1 0 0 1 -130 -11 )">
    <path d="M 0.00188323917132038 48  C 6.125 36.875  13.375 23.7966101694915  13.375 23.7966101694915  C 13.375 23.7966101694915  4.375 7.5  0.00188323917132038 0  L 147 0  C 149.8 0  149.6 0.300000000000011  149.5 0  L 162.7 23.7966101694915  L 149.5 48  C 149.5 47.8  149.8 48  147 48  L 6.75 48  L 0.00188323917132038 48  Z " fill-rule="nonzero" fill="#e6effd" stroke="none" transform="matrix(1 0 0 1 130 11 )" />
    <path d="M 0.00188323917132038 48  C 6.125 36.875  13.375 23.7966101694915  13.375 23.7966101694915  C 13.375 23.7966101694915  4.375 7.5  0.00188323917132038 0  L 147 0  C 149.8 0  149.6 0.300000000000011  149.5 0  L 162.7 23.7966101694915  L 149.5 48  C 149.5 47.8  149.8 48  147 48  L 6.75 48  L 0.00188323917132038 48  Z " stroke-width="4" stroke="#004884" fill="none" transform="matrix(1 0 0 1 130 11 )" mask="url(#clip21)" />
  </g>
</svg>