<?xml version="1.0" encoding="utf-8"?>
<!-- Generator: Adobe Illustrator 19.0.0, SVG Export Plug-In . SVG Version: 6.00 Build 0)  -->
<svg version="1.1" id="Capa_2" xmlns="http://www.w3.org/2000/svg" xmlns:xlink="http://www.w3.org/1999/xlink" x="0px" y="0px"
	 viewBox="-279 403.9 36 35" style="enable-background:new -279 403.9 36 35;" xml:space="preserve">
<style type="text/css">
	.st0{fill:#3366CC;}
	.st1{fill:#CDD8FE;}
</style>
<g id="XMLID_6_" transform="matrix(1 0 0 1 -10 -10 )">
	<path id="XMLID_7_" class="st0" d="M-256.3,437.9h1.1l1-1l-2.5-2.5l-1,1v1.1h1.4V437.9z M-249.7,428.3c0,0,0.1-0.1,0.1-0.2
		c0-0.2-0.1-0.2-0.2-0.2c-0.1,0-0.1,0-0.2,0.1l-5.7,5.7c0,0-0.1,0.1-0.1,0.2c0,0.2,0.1,0.2,0.2,0.2s0.1,0,0.2-0.1L-249.7,428.3z
		 M-259,434.9l8.8-8.8l4.4,4.4l-8.8,8.8h-4.4V434.9z M-243.4,426.2c0.3,0.3,0.4,0.6,0.4,1s-0.1,0.7-0.4,1l-1.8,1.8l-4.4-4.4l1.8-1.7
		c0.3-0.3,0.6-0.4,1-0.4s0.7,0.1,1,0.4L-243.4,426.2z"/>
</g>
<g>
	<path class="st1" d="M-247.8,437.8v-1h-26.4c-1.4,0-2.6-1.2-2.6-2.6v-25.6c0-1.4,1.2-2.6,2.6-2.6h26.4c1.4,0,2.6,1.2,2.6,2.6v25.6
		c0,1.4-1.2,2.6-2.6,2.6L-247.8,437.8l0,1c2.5,0,4.6-2.1,4.6-4.6v-25.6c0-2.5-2.1-4.6-4.6-4.6h-26.4c-2.5,0-4.6,2.1-4.6,4.6v25.6
		c0,2.5,2.1,4.6,4.6,4.6h26.4L-247.8,437.8L-247.8,437.8z"/>
</g>
</svg>
