<?xml version="1.0" encoding="utf-8"?>
<!-- Generator: Adobe Illustrator 19.0.0, SVG Export Plug-In . SVG Version: 6.00 Build 0)  -->
<svg version="1.1" id="Capa_2" xmlns="http://www.w3.org/2000/svg" xmlns:xlink="http://www.w3.org/1999/xlink" x="0px" y="0px"
	 viewBox="-280.5 403.9 36 35" style="enable-background:new -280.5 403.9 36 35;" xml:space="preserve">
<style type="text/css">
	.st0{fill:#3366CC;}
	.st1{fill:#CDD8FE;}
</style>
<g id="XMLID_6_" transform="matrix(1 0 0 1 -10 -10 )">
	<path id="XMLID_7_" class="st0" d="M-257.8,438h1.1l1-1l-2.5-2.5l-1,1v1.1h1.4V438z M-251.2,428.4c0,0,0.1-0.1,0.1-0.2
		c0-0.2-0.1-0.2-0.2-0.2c-0.1,0-0.1,0-0.2,0.1l-5.7,5.7c0,0-0.1,0.1-0.1,0.2c0,0.2,0.1,0.2,0.2,0.2c0.1,0,0.1,0,0.2-0.1
		L-251.2,428.4z M-260.5,435l8.8-8.8l4.4,4.4l-8.8,8.8h-4.4V435z M-244.9,426.3c0.3,0.3,0.4,0.6,0.4,1c0,0.4-0.1,0.7-0.4,1l-1.8,1.8
		l-4.4-4.4l1.8-1.7c0.3-0.3,0.6-0.4,1-0.4c0.4,0,0.7,0.1,1,0.4L-244.9,426.3z"/>
</g>
<g id="XMLID_2_" transform="matrix(1 0 0 1 -25 -21 )">
	<path id="XMLID_3_" class="st0" d="M-229.1,448.8v1.2h3.1v-1.2c0-0.5-0.2-0.8-0.5-1.2c-0.3-0.3-0.7-0.5-1.1-0.5s-0.8,0.2-1.1,0.5
		C-229,447.9-229.1,448.3-229.1,448.8z M-224.2,450.2c0.1,0.1,0.2,0.3,0.2,0.4v3.7c0,0.2-0.1,0.3-0.2,0.4c-0.1,0.1-0.3,0.2-0.4,0.2
		h-5.8c-0.2,0-0.3-0.1-0.4-0.2c-0.1-0.1-0.2-0.3-0.2-0.4v-3.7c0-0.2,0.1-0.3,0.2-0.4c0.1-0.1,0.3-0.2,0.4-0.2h0.2v-1.2
		c0-0.8,0.3-1.5,0.8-2c0.5-0.6,1.2-0.8,1.9-0.8c0.7,0,1.4,0.3,1.9,0.8c0.5,0.6,0.8,1.2,0.8,2v1.2h0.2
		C-224.5,450-224.3,450-224.2,450.2z"/>
</g>
<g>
	<path class="st1" d="M-249.3,437.7v-1h-26.4c-1.4,0-2.6-1.2-2.6-2.6v-25.6c0-1.4,1.2-2.6,2.6-2.6h26.4c1.4,0,2.6,1.2,2.6,2.6v25.6
		c0,1.4-1.2,2.6-2.6,2.6V437.7v1c2.5,0,4.6-2.1,4.6-4.6v-25.6c0-2.5-2.1-4.6-4.6-4.6h-26.4c-2.5,0-4.6,2.1-4.6,4.6v25.6
		c0,2.5,2.1,4.6,4.6,4.6h26.4V437.7z"/>
</g>
</svg>
