<?xml version="1.0"?>
<svg xmlns="http://www.w3.org/2000/svg" xmlns:xlink="http://www.w3.org/1999/xlink" xmlns:svgjs="http://svgjs.com/svgjs" version="1.1" width="512" height="512" x="0" y="0" viewBox="0 0 56 56" style="enable-background:new 0 0 512 512" xml:space="preserve" class=""><g><g xmlns="http://www.w3.org/2000/svg" id="Page-1" fill="none" fill-rule="evenodd"><g id="040---Pin" fill="rgb(0,0,0)" fill-rule="nonzero"><path id="Shape" d="m1.592 51.624-.856 2.357c-.1328883.3650684-.0423074.7740634.23229821 1.0488834s.68352976.36572 1.04870179.2331166l2.359-.854c.03278822-.0117344.06616703-.0217481.1-.03l17.793-17.793-1.428-1.427-1.427-1.428-17.791 17.791c-.009.035-.023.069-.031.102z" fill="#004884" data-original="#000000" style="" class=""/><path id="Shape" d="m37.926 45.12c.187777-.1875683.2932867-.4420908.2932867-.7075s-.1055097-.5199317-.2932867-.7075l-25.626-25.63c-.3953495-.3775255-1.0176505-.3775255-1.413 0l-1.447 1.44c-.39038194.3904999-.39038194 1.0235001 0 1.414l25.63 25.631c.1875683.187777.4420908.2932867.7075.2932867s.5199317-.1055097.7075-.2932867z" fill="#004884" data-original="#000000" style="" class=""/><path id="Shape" d="m52.857 18.812c.3956857.3776519 1.0183143.3776519 1.414 0l1.441-1.441c.3903819-.3904999.3903819-1.0235001 0-1.414l-15.67-15.669c-.3956857-.37765187-1.0183143-.37765187-1.414 0l-1.44 1.44c-.187777.18756826-.2932867.44209075-.2932867.7075s.1055097.51993174.2932867.7075l15.669 15.67z" fill="#004884" data-original="#000000" style="" class=""/><path id="Shape" d="m37.905 6.688c-2.655 2.571-12.034 11.346-19.553 14.612l16.348 16.348c3.271-7.519 12.045-16.9 14.616-19.553zm-6.637 10.927c-.853.594-1.692 1.143-2.5 1.631-.4716336.2786327-1.0796568.125952-1.363705-.34244-.2840483-.4683919-.1383831-1.078134.326705-1.36756.766-.466 1.57-.991 2.387-1.561.2929578-.2045346.6727798-.2372412.9963908-.0857995.323611.1514416.5418468.4640238.5725.82.0306533.3559761-.130933.7012649-.4238908.9057995zm3.305-2.475c-.2786559.2306129-.6601251.2927736-.9975786.162556-.3374535-.1302175-.5782851-.4325134-.6297979-.7905328-.0515127-.3580194.0943238-.7159501.3813765-.9360232 1.262-1.007 2.542-2.1 3.8-3.233.4100714-.37003076 1.0424692-.3375714 1.4125.0725.3700307.4100714.3375714 1.0424692-.0725 1.4125-1.288 1.165-2.599 2.28-3.894 3.312z" fill="#004884" data-original="#000000" style="" class=""/></g></g></g></svg>
