<?xml version="1.0" encoding="utf-8"?>
<svg version="1.1" xmlns:xlink="http://www.w3.org/1999/xlink" width="28px" height="29px" xmlns="http://www.w3.org/2000/svg">
  <g transform="matrix(1 0 0 1 -16 -15 )">
    <path d="M 27.3817934782609 11.6241976893453  C 27.7939311594203 12.0895378690629  28 12.6510483525888  28 13.308729139923  L 28 15.691270860077  C 28 16.3489516474112  27.7939311594203 16.9104621309371  27.3817934782609 17.3758023106547  C 26.9696557971015 17.8411424903723  26.4338768115942 18.0738125802311  25.7744565217391 18  L 12.383152173913 18  L 17.9565217391304 23.5462130937099  C 18.4384057971015 23.9929396662388  18.679347826087 24.5513478818999  18.679347826087 25.2214377406932  C 18.679347826087 25.8915275994865  18.4384057971015 26.4499358151476  17.9565217391304 26.8966623876765  L 16.5298913043478 28.311296534018  C 16.0606884057971 28.770432178006  15.4900362318841 29  14.8179347826087 29  C 14.1585144927536 29  13.5815217391304 28.770432178006  13.0869565217391 28.311296534018  L 0.703804347826087 16.1752246469833  C 0.234601449275362 15.7160890029953  0 15.1576807873342  0 14.5  C 0 13.8547282841249  0.234601449275362 13.2901155327343  0.703804347826087 12.806161745828  L 13.0869565217391 0.707317073170732  C 13.5688405797101 0.235772357723575  14.1458333333333 0  14.8179347826087 0  C 15.4773550724638 0  16.0480072463768 0.235772357723575  16.5298913043478 0.707317073170732  L 17.9565217391304 2.08472400513479  C 18.4384057971015 2.55626872058194  18.679347826087 3.12088147197261  18.679347826087 3.7785622593068  C 18.679347826087 4.43624304664099  18.4384057971015 5.00085579803166  17.9565217391304 5.47240051347882  L 12.383152173913 11  L 25.7744565217391 11  C 26.4338768115942 10.9261874197689  26.9696557971015 11.1588575096277  27.3817934782609 11.6241976893453  Z " fill-rule="nonzero" fill="#ffffff" stroke="none" transform="matrix(1 0 0 1 16 15 )" />
  </g>
</svg>