<?xml version="1.0" encoding="utf-8"?>
<!-- Generator: Adobe Illustrator 19.0.0, SVG Export Plug-In . SVG Version: 6.00 Build 0)  -->
<svg version="1.1" id="Capa_1" xmlns="http://www.w3.org/2000/svg" xmlns:xlink="http://www.w3.org/1999/xlink" x="0px" y="0px"
	 viewBox="-280.5 386.5 20 20" style="enable-background:new -280.5 386.5 20 20;" xml:space="preserve">
<style type="text/css">
	.st0{fill:#3366CC;stroke:#3366CC;stroke-width:3;stroke-miterlimit:10;}
	.st1{fill:#FFFFFF;}
	.st2{fill:#3266CC;}
</style>
<path class="st0" d="M-663.2,692.8h-20.6c-3.2,0-5.7-2.6-5.7-5.7v-20.5c0-3.2,2.6-5.7,5.7-5.7h20.6c3.2,0,5.7,2.6,5.7,5.7v20.5
	C-657.5,690.2-660.1,692.8-663.2,692.8z"/>
<polyline class="st1" points="-675.5,674.8 -681.9,674.8 -681.9,678.7 -675.5,678.7 -675.5,678.7 -671.5,678.7 -671.5,678.7 
	-665.1,678.7 -665.1,674.8 -671.5,674.8 "/>
<g>
	<path class="st2" d="M-280.1,393.5l7.9-6.8c0.4-0.3,0.7-0.3,1.2-0.2c0.4,0.2,0.6,0.5,0.6,1v3.7c1.5,0.1,2.9,0.3,4,0.6
		c1.2,0.3,2.2,0.8,3.1,1.4c0.9,0.6,1.6,1.4,2.1,2.5c0.5,1,0.7,2.3,0.7,3.7c0,1.3-0.4,2.6-1.1,3.9c-0.7,1.3-1.6,2.3-2.6,3
		c-0.3,0.2-0.6,0.3-1,0c-0.3-0.2-0.4-0.5-0.3-0.8c0.8-2.7,0.8-4.6,0-5.8s-2.5-2-5-2.3v3.8c0,0.4-0.2,0.8-0.6,1
		c-0.4,0.2-0.8,0.1-1.2-0.2l-7.9-6.8c-0.2-0.2-0.4-0.5-0.4-0.8C-280.5,394-280.4,393.8-280.1,393.5z"/>
</g>
</svg>
