<?xml version="1.0" encoding="utf-8"?>
<!-- Generator: Adobe Illustrator 19.0.0, SVG Export Plug-In . SVG Version: 6.00 Build 0)  -->
<svg version="1.1" id="Capa_1" xmlns="http://www.w3.org/2000/svg" xmlns:xlink="http://www.w3.org/1999/xlink" x="0px" y="0px"
	 viewBox="-400.7 281.6 37.5 33.7" style="enable-background:new -400.7 281.6 37.5 33.7;" xml:space="preserve">
<style type="text/css">
	.st0{fill:#3366CC;}
</style>
<g>
	<path class="st0" d="M-372.9,314.1v-1.3h-18.1c-2,0-3.8-0.8-5.1-2.1c-1.3-1.3-2.1-3.1-2.1-5.1v-14.3c0-2,0.8-3.8,2.1-5.1
		c1.3-1.3,3.1-2.1,5.1-2.1h18.1c2,0,3.8,0.8,5.1,2.1c1.3,1.3,2.1,3.1,2.1,5.1v14.3c0,2-0.8,3.8-2.1,5.1c-1.3,1.3-3.1,2.1-5.1,2.1
		V314.1v1.3c5.3,0,9.7-4.3,9.7-9.7v-14.3c0-5.3-4.3-9.7-9.7-9.7h-18.1c-5.3,0-9.7,4.3-9.7,9.7v14.3c0,5.3,4.3,9.7,9.7,9.7h18.1
		V314.1z"/>
</g>
<g>
	<path class="st0" d="M-386.3,298.2c0,3.6-1.4,5.9-4.1,5.9c-2.6,0-4-2.4-4-5.8c0-3.5,1.5-5.9,4.1-5.9
		C-387.6,292.4-386.3,294.9-386.3,298.2z M-392.3,298.3c0,2.8,0.7,4.2,1.9,4.2c1.3,0,1.9-1.5,1.9-4.2c0-2.6-0.6-4.2-1.9-4.2
		C-391.5,294.1-392.3,295.5-392.3,298.3z"/>
	<path class="st0" d="M-377,298.2c0,3.6-1.4,5.9-4.1,5.9c-2.6,0-4-2.4-4-5.8c0-3.5,1.5-5.9,4.1-5.9
		C-378.2,292.4-377,294.9-377,298.2z M-383,298.3c0,2.8,0.7,4.2,1.9,4.2c1.3,0,1.9-1.5,1.9-4.2c0-2.6-0.6-4.2-1.9-4.2
		C-382.2,294.1-383,295.5-383,298.3z"/>
	<path class="st0" d="M-372.3,294.6L-372.3,294.6l-2.1,1l-0.4-1.6l2.8-1.4h1.8v11.3h-2.1V294.6z"/>
</g>
</svg>
