<?xml version="1.0" encoding="utf-8"?>
<!-- Generator: Adobe Illustrator 19.0.0, SVG Export Plug-In . SVG Version: 6.00 Build 0)  -->
<svg version="1.1" id="Capa_2" xmlns="http://www.w3.org/2000/svg" xmlns:xlink="http://www.w3.org/1999/xlink" x="0px" y="0px"
	 viewBox="-269 413.7 21.5 20.3" style="enable-background:new -269 413.7 21.5 20.3;" xml:space="preserve">
<style type="text/css">
	.st0{fill:#3366CC;}
</style>
<g>
	<g id="XMLID_6_" transform="matrix(1 0 0 1 -10 -10 )">
		<path id="XMLID_7_" class="st0" d="M-256.3,438.1h1.1l1-1l-2.5-2.5l-1,1v1.1h1.4V438.1z M-249.7,428.5c0,0,0.1-0.1,0.1-0.2
			c0-0.2-0.1-0.2-0.2-0.2c-0.1,0-0.1,0-0.2,0.1l-5.7,5.7c0,0-0.1,0.1-0.1,0.2c0,0.2,0.1,0.2,0.2,0.2s0.1,0,0.2-0.1L-249.7,428.5z
			 M-259,435.1l8.8-8.8l4.4,4.4l-8.8,8.8h-4.4V435.1z M-243.4,426.4c0.3,0.3,0.4,0.6,0.4,1s-0.1,0.7-0.4,1l-1.8,1.8l-4.4-4.4
			l1.8-1.7c0.3-0.3,0.6-0.4,1-0.4s0.7,0.1,1,0.4L-243.4,426.4z"/>
	</g>
	<g id="XMLID_2_" transform="matrix(1 0 0 1 -25 -21 )">
		<path id="XMLID_3_" class="st0" d="M-227.6,448.9v1.2h3.1v-1.2c0-0.5-0.2-0.8-0.5-1.2c-0.3-0.3-0.7-0.5-1.1-0.5s-0.8,0.2-1.1,0.5
			C-227.5,448-227.6,448.4-227.6,448.9z M-222.7,450.3c0.1,0.1,0.2,0.3,0.2,0.4v3.7c0,0.2-0.1,0.3-0.2,0.4c-0.1,0.1-0.3,0.2-0.4,0.2
			h-5.8c-0.2,0-0.3-0.1-0.4-0.2c-0.1-0.1-0.2-0.3-0.2-0.4v-3.7c0-0.2,0.1-0.3,0.2-0.4c0.1-0.1,0.3-0.2,0.4-0.2h0.2v-1.2
			c0-0.8,0.3-1.5,0.8-2c0.5-0.6,1.2-0.8,1.9-0.8s1.4,0.3,1.9,0.8c0.5,0.6,0.8,1.2,0.8,2v1.2h0.2C-223,450.1-222.8,450.1-222.7,450.3
			z"/>
	</g>
</g>
</svg>
