<?xml version="1.0" encoding="utf-8"?>
<!-- Generator: Adobe Illustrator 19.0.0, SVG Export Plug-In . SVG Version: 6.00 Build 0)  -->
<svg version="1.1" id="Capa_2" xmlns="http://www.w3.org/2000/svg" xmlns:xlink="http://www.w3.org/1999/xlink" x="0px" y="0px"
	 viewBox="-269 413.5 16 15.8" style="enable-background:new -269 413.5 16 15.8;" xml:space="preserve">
<style type="text/css">
	.st0{fill:#3366CC;}
</style>
<g id="XMLID_6_" transform="matrix(1 0 0 1 -10 -10 )">
	<path id="XMLID_7_" class="st0" d="M-256.3,437.9h1.1l1-1l-2.5-2.5l-1,1v1.1h1.4V437.9z M-249.7,428.3c0,0,0.1-0.1,0.1-0.2
		c0-0.2-0.1-0.2-0.2-0.2c-0.1,0-0.1,0-0.2,0.1l-5.7,5.7c0,0-0.1,0.1-0.1,0.2c0,0.2,0.1,0.2,0.2,0.2s0.1,0,0.2-0.1L-249.7,428.3z
		 M-259,434.9l8.8-8.8l4.4,4.4l-8.8,8.8h-4.4V434.9z M-243.4,426.2c0.3,0.3,0.4,0.6,0.4,1s-0.1,0.7-0.4,1l-1.8,1.8l-4.4-4.4l1.8-1.7
		c0.3-0.3,0.6-0.4,1-0.4s0.7,0.1,1,0.4L-243.4,426.2z"/>
</g>
</svg>
