<?xml version="1.0" encoding="utf-8"?>
<!-- Generator: Adobe Illustrator 19.0.0, SVG Export Plug-In . SVG Version: 6.00 Build 0)  -->
<svg version="1.1" id="Capa_2" xmlns="http://www.w3.org/2000/svg" xmlns:xlink="http://www.w3.org/1999/xlink" x="0px" y="0px"
	 viewBox="-271.7 411 21.4 20.7" style="enable-background:new -271.7 411 21.4 20.7;" xml:space="preserve">
<style type="text/css">
	.st0{fill:#3366CC;}
</style>
<g>
	<g transform="matrix(1 0 0 1 -23 -22 )">
		<path class="st0" d="M-231.1,447l0.1,0.1v2.6c0,0.1,0,0.1-0.1,0.1s-0.1,0.1-0.1,0.1h-1.9c-0.1,0-0.1,0-0.1-0.1s-0.1-0.1-0.1-0.1
			v-0.4c0-0.1,0-0.1,0.1-0.1s0.1-0.1,0.1-0.1h1.3V447c0-0.1,0-0.1,0.1-0.1s0.1-0.1,0.1-0.1h0.4C-231.1,446.9-231.1,447-231.1,447z
			 M-229,450.8c0.3-0.5,0.4-1,0.4-1.6s-0.1-1.1-0.4-1.6s-0.7-0.9-1.2-1.2s-1-0.4-1.6-0.4s-1.1,0.1-1.6,0.4s-0.9,0.7-1.2,1.2
			s-0.4,1-0.4,1.6s0.1,1.1,0.4,1.6s0.7,0.9,1.2,1.2s1,0.4,1.6,0.4s1.1-0.1,1.6-0.4S-229.3,451.3-229,450.8z M-227.9,446.9
			c0.4,0.7,0.6,1.4,0.6,2.3s-0.2,1.6-0.6,2.3s-0.9,1.2-1.6,1.6s-1.4,0.6-2.3,0.6s-1.6-0.2-2.3-0.6s-1.2-0.9-1.6-1.6
			s-0.6-1.4-0.6-2.3s0.2-1.6,0.6-2.3s0.9-1.2,1.6-1.6s1.4-0.6,2.3-0.6s1.6,0.2,2.3,0.6S-228.3,446.2-227.9,446.9z"/>
	</g>
	<g id="XMLID_6_" transform="matrix(1 0 0 1 -10 -10 )">
		<path id="XMLID_7_" class="st0" d="M-259,435.4h1.1l1-1l-2.5-2.5l-1,1v1.1h1.4V435.4z M-252.4,425.8c0,0,0.1-0.1,0.1-0.2
			c0-0.2-0.1-0.2-0.2-0.2c-0.1,0-0.1,0-0.2,0.1l-5.7,5.7c0,0-0.1,0.1-0.1,0.2c0,0.2,0.1,0.2,0.2,0.2c0.1,0,0.1,0,0.2-0.1
			L-252.4,425.8z M-261.7,432.4l8.8-8.8l4.4,4.4l-8.8,8.8h-4.4V432.4z M-246.1,423.7c0.3,0.3,0.4,0.6,0.4,1s-0.1,0.7-0.4,1l-1.8,1.8
			l-4.4-4.4l1.8-1.7c0.3-0.3,0.6-0.4,1-0.4s0.7,0.1,1,0.4L-246.1,423.7z"/>
	</g>
</g>
</svg>
