<?xml version="1.0" encoding="utf-8"?>
<svg version="1.1" xmlns:xlink="http://www.w3.org/1999/xlink" width="31px" height="31px" xmlns="http://www.w3.org/2000/svg">
  <g transform="matrix(1 0 0 1 -67 -52 )">
    <path d="M 23.0582682291667 13.1083984375  C 23.1860894097222 13.2362196180556  23.25 13.3875868055556  23.25 13.5625  L 23.25 17.4375  C 23.25 17.6124131944444  23.1860894097222 17.7637803819444  23.0582682291667 17.8916015625  C 22.9304470486111 18.0194227430556  22.7790798611111 18.0833333333333  22.6041666666667 18.0833333333333  L 15.5 18.0833333333333  L 15.5 21.9583333333333  C 15.5 22.1467013888889  15.439453125 22.3014322916667  15.318359375 22.4225260416667  C 15.197265625 22.5436197916667  15.0425347222222 22.6041666666667  14.8541666666667 22.6041666666667  C 14.6927083333333 22.6041666666667  14.53125 22.5368923611111  14.3697916666667 22.40234375  L 7.931640625 15.9641927083333  C 7.810546875 15.8430989583333  7.75 15.6883680555556  7.75 15.5  C 7.75 15.3116319444444  7.810546875 15.1569010416667  7.931640625 15.0358072916667  L 14.3899739583333 8.57747395833333  C 14.5110677083333 8.45638020833333  14.6657986111111 8.39583333333333  14.8541666666667 8.39583333333333  C 15.0290798611111 8.39583333333333  15.1804470486111 8.45974392361111  15.3082682291667 8.58756510416667  C 15.4360894097222 8.71538628472222  15.5 8.86675347222222  15.5 9.04166666666667  L 15.5 12.9166666666667  L 22.6041666666667 12.9166666666667  C 22.7790798611111 12.9166666666667  22.9304470486111 12.9805772569444  23.0582682291667 13.1083984375  Z M 25.005859375 21.009765625  C 25.9880642361111 19.3279079861111  26.4791666666667 17.4913194444444  26.4791666666667 15.5  C 26.4791666666667 13.5086805555556  25.9880642361111 11.6720920138889  25.005859375 9.990234375  C 24.0236545138889 8.30837673611111  22.6916232638889 6.97634548611111  21.009765625 5.994140625  C 19.3279079861111 5.01193576388889  17.4913194444444 4.52083333333333  15.5 4.52083333333333  C 13.5086805555556 4.52083333333333  11.6720920138889 5.01193576388889  9.990234375 5.994140625  C 8.30837673611111 6.97634548611111  6.97634548611111 8.30837673611111  5.994140625 9.990234375  C 5.01193576388889 11.6720920138889  4.52083333333333 13.5086805555556  4.52083333333333 15.5  C 4.52083333333333 17.4913194444444  5.01193576388889 19.3279079861111  5.994140625 21.009765625  C 6.97634548611111 22.6916232638889  8.30837673611111 24.0236545138889  9.990234375 25.005859375  C 11.6720920138889 25.9880642361111  13.5086805555556 26.4791666666667  15.5 26.4791666666667  C 17.4913194444444 26.4791666666667  19.3279079861111 25.9880642361111  21.009765625 25.005859375  C 22.6916232638889 24.0236545138889  24.0236545138889 22.6916232638889  25.005859375 21.009765625  Z M 28.9212239583333 7.7197265625  C 30.3070746527778 10.0945095486111  31 12.6879340277778  31 15.5  C 31 18.3120659722222  30.3070746527778 20.9054904513889  28.9212239583333 23.2802734375  C 27.5353732638889 25.6550564236111  25.6550564236111 27.5353732638889  23.2802734375 28.9212239583333  C 20.9054904513889 30.3070746527778  18.3120659722222 31  15.5 31  C 12.6879340277778 31  10.0945095486111 30.3070746527778  7.7197265625 28.9212239583333  C 5.34494357638889 27.5353732638889  3.46462673611111 25.6550564236111  2.07877604166667 23.2802734375  C 0.692925347222222 20.9054904513889  0 18.3120659722222  0 15.5  C 0 12.6879340277778  0.692925347222222 10.0945095486111  2.07877604166667 7.7197265625  C 3.46462673611111 5.34494357638889  5.34494357638889 3.46462673611111  7.7197265625 2.07877604166667  C 10.0945095486111 0.69292534722222  12.6879340277778 0  15.5 0  C 18.3120659722222 0  20.9054904513889 0.69292534722222  23.2802734375 2.07877604166667  C 25.6550564236111 3.46462673611111  27.5353732638889 5.34494357638889  28.9212239583333 7.7197265625  Z " fill-rule="nonzero" fill="#3366cc" stroke="none" transform="matrix(1 0 0 1 67 52 )" />
  </g>
</svg>