<?xml version="1.0" encoding="UTF-8"?><svg id="Capa_1" xmlns="http://www.w3.org/2000/svg" viewBox="0 0 189.36 111.14"><defs><style>.cls-1{fill:#fff;}.cls-2{fill:#36c;}</style></defs><g><circle class="cls-2" cx="55.57" cy="55.57" r="55.57"/><path class="cls-1" d="M88.7,79.06c.58,.58,.87,1.28,.87,2.11s-.29,1.53-.87,2.11l-3.48,3.48c-.58,.58-1.28,.87-2.11,.87s-1.53-.29-2.11-.87l-12.41-12.41c-.58-.58-.87-1.28-.87-2.11v-1.99c-4.64,3.64-9.93,5.46-15.89,5.46-7.12,0-13.2-2.52-18.25-7.57-5.05-5.05-7.57-11.13-7.57-18.25s2.52-13.2,7.57-18.25c5.05-5.05,11.13-7.57,18.25-7.57s13.2,2.53,18.25,7.57c5.05,5.05,7.57,11.13,7.57,18.25,0,5.96-1.82,11.26-5.46,15.89h1.99c.83,0,1.53,.29,2.11,.87l12.41,12.41Zm-48.1-17.94c3.1,3.1,6.85,4.65,11.23,4.65s8.13-1.55,11.23-4.65c3.1-3.1,4.65-6.85,4.65-11.23s-1.55-8.13-4.65-11.23c-3.1-3.1-6.85-4.65-11.23-4.65s-8.13,1.55-11.23,4.65c-3.1,3.1-4.65,6.85-4.65,11.23s1.55,8.13,4.65,11.23Z"/></g><path class="cls-2" d="M181.99,75.45c-1,1-2.59,1-3.59,0l-21.18-21.18-21.18,21.18c-1,1-2.59,1-3.59,0l-6.62-6.58c-1-1-1-2.63,0-3.63l29.6-29.56c1-1,2.59-1,3.59,0l29.6,29.56c1,1,1,2.63,0,3.63l-6.62,6.58Z"/></svg>