<?xml version="1.0" encoding="UTF-8"?><svg id="Capa_1" xmlns="http://www.w3.org/2000/svg" viewBox="0 0 11.05 20.22"><defs><style>.cls-1{fill:#36c;}</style></defs><path class="cls-1" d="M4.21,20.22v-2.35c-1.66-.08-3.27-.52-4.21-1.07l.74-2.9c1.04,.57,2.5,1.09,4.11,1.09,1.41,0,2.38-.54,2.38-1.54s-.79-1.54-2.63-2.16C1.96,10.41,.15,9.17,.15,6.77,.15,4.59,1.68,2.88,4.34,2.35V0h2.43V2.18c1.66,.07,2.78,.42,3.59,.82l-.72,2.8c-.64-.27-1.79-.84-3.57-.84-1.61,0-2.13,.69-2.13,1.39,0,.82,.87,1.34,2.97,2.13,2.95,1.04,4.14,2.4,4.14,4.63s-1.56,4.09-4.41,4.58v2.53h-2.43Z"/></svg>