<?xml version="1.0" encoding="utf-8"?>
<svg version="1.1" xmlns:xlink="http://www.w3.org/1999/xlink" width="22px" height="16px" xmlns="http://www.w3.org/2000/svg">
  <g transform="matrix(1 0 0 1 -335 -161 )">
    <path d="M 14.5520833333333 9.36363636363636  C 14.6284722222222 9.27272727272727  14.6666666666667 9.18181818181818  14.6666666666667 9.09090909090909  C 14.6666666666667 8.98484848484848  14.6322916666667 8.89772727272727  14.5635416666667 8.82954545454545  C 14.4947916666667 8.76136363636364  14.4069444444444 8.72727272727273  14.3 8.72727272727273  L 11.7333333333333 8.72727272727273  L 11.7333333333333 4.72727272727273  C 11.7333333333333 4.62878787878788  11.6970486111111 4.54356060606061  11.6244791666667 4.47159090909091  C 11.5519097222222 4.39962121212121  11.4659722222222 4.36363636363636  11.3666666666667 4.36363636363636  L 9.16666666666667 4.36363636363636  C 9.06736111111111 4.36363636363636  8.98142361111111 4.39962121212121  8.90885416666667 4.47159090909091  C 8.83628472222222 4.54356060606061  8.8 4.62878787878788  8.8 4.72727272727273  L 8.8 8.72727272727273  L 6.23333333333333 8.72727272727273  C 6.13402777777778 8.72727272727273  6.04809027777778 8.76325757575757  5.97552083333333 8.83522727272727  C 5.90295138888889 8.90719696969697  5.86666666666667 8.99242424242424  5.86666666666667 9.09090909090909  C 5.86666666666667 9.1969696969697  5.90104166666667 9.28409090909091  5.96979166666667 9.35227272727273  L 10.003125 13.3522727272727  C 10.071875 13.4204545454545  10.1597222222222 13.4545454545455  10.2666666666667 13.4545454545455  C 10.3736111111111 13.4545454545455  10.4614583333333 13.4204545454545  10.5302083333333 13.3522727272727  L 14.5520833333333 9.36363636363636  Z M 21.0432291666667 8.92613636363636  C 21.6810763888889 9.71780303030303  22 10.6212121212121  22 11.6363636363636  C 22 12.8409090909091  21.5703125 13.8693181818182  20.7109375 14.7215909090909  C 19.8515625 15.5738636363636  18.8145833333333 16  17.6 16  L 5.13333333333333 16  C 3.72013888888889 16  2.51128472222222 15.5018939393939  1.50677083333333 14.5056818181818  C 0.502256944444444 13.5094696969697  0 12.3106060606061  0 10.9090909090909  C 0 9.92424242424242  0.267361111111111 9.01515151515152  0.802083333333333 8.18181818181818  C 1.33680555555556 7.34848484848485  2.05486111111111 6.72348484848485  2.95625 6.30681818181818  C 2.94097222222222 6.07954545454546  2.93333333333333 5.91666666666667  2.93333333333333 5.81818181818182  C 2.93333333333333 4.21212121212121  3.50625 2.84090909090909  4.65208333333333 1.70454545454546  C 5.79791666666667 0.568181818181818  7.18055555555556 0  8.8 0  C 9.99166666666667 0  11.0821180555556 0.329545454545455  12.0713541666667 0.988636363636363  C 13.0605902777778 1.64772727272727  13.7805555555556 2.52272727272727  14.23125 3.61363636363636  C 14.7736111111111 3.14393939393939  15.4076388888889 2.90909090909091  16.1333333333333 2.90909090909091  C 16.9430555555556 2.90909090909091  17.634375 3.19318181818182  18.2072916666667 3.76136363636364  C 18.7802083333333 4.32954545454546  19.0666666666667 5.01515151515151  19.0666666666667 5.81818181818182  C 19.0666666666667 6.39393939393939  18.9100694444444 6.91666666666667  18.596875 7.38636363636364  C 19.5899305555556 7.62121212121212  20.4053819444444 8.1344696969697  21.0432291666667 8.92613636363636  Z " fill-rule="nonzero" fill="#3366cc" stroke="none" transform="matrix(1 0 0 1 335 161 )" />
  </g>
</svg>