<?xml version="1.0" encoding="utf-8"?>
<svg version="1.1" xmlns:xlink="http://www.w3.org/1999/xlink" width="18px" height="18px" xmlns="http://www.w3.org/2000/svg">
  <g transform="matrix(1 0 0 1 -1100 -514 )">
    <path d="M 13.39453125 8.73046875  C 13.46484375 8.80078125  13.5 8.890624999999998  13.5 9  C 13.5 9.109375  13.46484375 9.199218749999998  13.39453125 9.269531249999998  L 9.64453125 13.019531250000002  C 9.57421875 13.089843750000002  9.484375 13.125000000000002  9.375 13.125000000000002  C 9.2734375 13.125000000000002  9.185546875 13.087890624999998  9.111328125 13.013671874999998  C 9.037109375 12.939453125  9 12.8515625  9 12.749999999999998  L 9 10.499999999999998  L 4.875 10.499999999999998  C 4.773437500000001 10.499999999999998  4.685546875000001 10.462890625  4.611328125 10.388671875  C 4.537109375 10.314453125  4.5 10.2265625  4.5 10.125  L 4.5 7.875  C 4.5 7.773437499999999  4.537109375 7.685546874999999  4.611328125 7.611328125  C 4.685546875000001 7.537109375000001  4.773437500000001 7.499999999999999  4.875 7.499999999999999  L 9 7.499999999999999  L 9 5.249999999999999  C 9 5.140624999999998  9.03515625 5.050781250000001  9.10546875 4.980468750000001  C 9.175781250000002 4.910156250000001  9.265625000000002 4.875000000000001  9.375 4.875000000000001  C 9.46875 4.875000000000001  9.5625 4.9140625  9.65625 4.9921875  L 13.39453125 8.73046875  Z M 14.51953125 12.19921875  C 15.08984375 11.222656249999998  15.375 10.15625  15.375 9  C 15.375 7.843749999999999  15.08984375 6.77734375  14.51953125 5.80078125  C 13.949218750000002 4.824218749999998  13.175781250000002 4.050781249999998  12.19921875 3.48046875  C 11.22265625 2.91015625  10.15625 2.625000000000001  9 2.625000000000001  C 7.84375 2.625000000000001  6.777343750000001 2.91015625  5.80078125 3.48046875  C 4.82421875 4.050781249999998  4.05078125 4.824218749999998  3.48046875 5.80078125  C 2.9101562500000004 6.77734375  2.625 7.843749999999999  2.625 9  C 2.625 10.15625  2.9101562500000004 11.222656249999998  3.48046875 12.19921875  C 4.05078125 13.175781249999998  4.82421875 13.94921875  5.80078125 14.51953125  C 6.777343750000001 15.08984375  7.84375 15.375  9 15.375  C 10.15625 15.375  11.22265625 15.08984375  12.19921875 14.51953125  C 13.175781250000002 13.94921875  13.949218750000002 13.175781249999998  14.51953125 12.19921875  Z M 16.79296875 4.482421875  C 17.597656249999996 5.861328124999998  18 7.367187499999997  18 9  C 18 10.6328125  17.597656249999996 12.138671874999998  16.79296875 13.517578125  C 15.988281250000002 14.896484375  14.896484375 15.98828125  13.517578125 16.79296875  C 12.138671875000002 17.59765625  10.6328125 18  9 18  C 7.367187500000001 18  5.861328125 17.59765625  4.482421875 16.79296875  C 3.1035156250000004 15.98828125  2.01171875 14.896484375  1.20703125 13.517578125  C 0.40234374999999994 12.138671874999998  0 10.6328125  0 9  C 0 7.367187499999997  0.40234374999999994 5.861328124999998  1.20703125 4.482421875  C 2.01171875 3.103515625  3.1035156250000004 2.0117187499999982  4.482421875 1.2070312499999993  C 5.861328125 0.40234374999999845  7.367187500000001 0  9 0  C 10.6328125 0  12.138671875000002 0.40234374999999845  13.517578125 1.2070312499999993  C 14.896484375 2.0117187499999982  15.988281250000002 3.103515625  16.79296875 4.482421875  Z " fill-rule="nonzero" fill="#3366cc" stroke="none" transform="matrix(1 0 0 1 1100 514 )" />
  </g>
</svg>