<?xml version="1.0" encoding="UTF-8"?><svg id="Capa_1" xmlns="http://www.w3.org/2000/svg" viewBox="0 0 72.79 46.11"><defs><style>.cls-1{fill:#36c;}</style></defs><path class="cls-1" d="m30.06,26.49c1.86-1.2,3.73-2.4,5.55-3.66,1.05-.72,2.23-1.35,3.93-1.3,2.22-.02,4.04,2.34,2.87,5.42.8-.58,4.33-2.43,5.28-2.87,6.13-2.85,7.97,2.72,7.97,2.72,0,0,8.29-2.13,11.96-3,1.98-.47,3.79.16,4.7,1.67,1.18,1.97.03,4.74-2.24,5.28-2.58.62-5.17,1.18-7.75,1.83-2.36.59-4.7,1.29-7.06,1.88-3.83.88-5-3.3-5.18-3.7-3.14,1.22-11.21,6.12-12.79,6.13-2.06,0-3.68-1.13-4.25-3.12-.03-.1-.05-.2-.11-.45-.75.51-1.43.97-2.1,1.42-.85.56-1.67,1.17-2.55,1.68-2.04,1.18-4.51-.07-5.11-2.23-.45-1.61.14-3.09,1.57-4.08.59-.41,1.19-.79,1.76-1.23.23-.18,2.76-1.88,3.55-2.39Z"/><path class="cls-1" d="m46.35,3.06c-1.29-1.95-3.04-3.03-5.32-3.06-5.6.03-9.75,4.96-12.1,7.38-1.02,1.05-6.27,6.86-7.9,8.7-.56.63-1.2,1.21-1.9,1.7-.48.33-1.1.46-1.67.68-4.89,1.88-9.79,3.74-14.67,5.67-.75.3-1.56.77-2.03,1.39-.99,1.3-1.01,2.58-.18,4.06.74,1.33,1.64,2.15,3.9,1.63,1.96-.66,3.89-1.43,5.83-2.15.71-.26,1.43-.51,2.08-.73-.74,1.88-4.94,7.69-4.94,14.4,0,2.47,3.37,4.27,5.55,2.9,1.55-.97,2.32-2.52,3.83-7.96,1-3.47,2.6-6.87,4.58-9.85.82-1.24,1.65-2.47,2.52-3.67.28-.39.64-.79,1.05-1.01.69-.38,7.02-3.36,9.45-4.57,9.35-5.7,10.09-6.95,10.98-7.92,1.56-1.71,2.34-5.45.93-7.58Z"/></svg>