<?xml version="1.0" encoding="utf-8"?>
<svg version="1.1" xmlns:xlink="http://www.w3.org/1999/xlink" width="4px" height="7px" xmlns="http://www.w3.org/2000/svg">
  <g transform="matrix(1 0 0 1 -130 -160 )">
    <path d="M 4 3.5  C 4 3.5752688172043  3.97554697554698 3.6404052936311  3.92664092664093 3.6954094292804  L 1.06177606177606 6.91749379652605  C 1.01287001287001 6.97249793217535  0.954954954954955 7  0.888030888030888 7  C 0.821106821106821 7  0.763191763191763 6.97249793217535  0.714285714285714 6.91749379652605  L 0.0733590733590734 6.19665012406948  C 0.0244530244530245 6.14164598842018  0 6.07650951199338  0 6.00124069478908  C 0 5.92597187758478  0.0244530244530245 5.86083540115798  0.0733590733590734 5.80583126550868  L 2.12355212355212 3.5  L 0.0733590733590734 1.19416873449132  C 0.0244530244530245 1.13916459884202  0 1.07402812241522  0 0.998759305210918  C 0 0.923490488006616  0.0244530244530245 0.858354011579817  0.0733590733590734 0.803349875930521  L 0.714285714285714 0.0825062034739452  C 0.763191763191763 0.0275020678246481  0.821106821106821 0  0.888030888030888 0  C 0.954954954954955 0  1.01287001287001 0.0275020678246481  1.06177606177606 0.0825062034739452  L 3.92664092664093 3.3045905707196  C 3.97554697554698 3.3595947063689  4 3.4247311827957  4 3.5  Z " fill-rule="nonzero" fill="#bababa" stroke="none" transform="matrix(1 0 0 1 130 160 )" />
  </g>
</svg>