<?xml version="1.0" encoding="utf-8"?>
<!-- Generator: Adobe Illustrator 27.0.0, SVG Export Plug-In . SVG Version: 6.00 Build 0)  -->
<svg version="1.1" id="Capa_1" xmlns="http://www.w3.org/2000/svg" xmlns:xlink="http://www.w3.org/1999/xlink" x="0px" y="0px"
	 viewBox="0 0 172.8 172.8" style="enable-background:new 0 0 172.8 172.8;" xml:space="preserve">
<style type="text/css">
	.st0{fill:#3366CC;}
	.st1{fill:#FFFFFF;}
</style>
<circle class="st0" cx="86.4" cy="86.4" r="86.4"/>
<g>
	<path class="st1" d="M137.3,118.9c0.2,6.7-6.1,12.1-12.6,10.9c-2.4-0.5-8.9-2.7-9.7-3c-1.5-0.5-2.2-1.8-1.9-3.4
		c0.3-1.3,1.6-2.2,3.1-1.9c1.6,0.3,7.7,2.4,9.2,2.7c3.6,0.8,6.4-2.2,6.4-5.5c0-16.5,0-33.1,0-49.6c0-1.2-0.1-2.5-0.4-3.7
		c-0.4-1.6-1.6-2.6-3.1-3.1c-3.3-1.1-76.4-23.1-77.7-23.2c-3.8-0.5-6.4,1.7-6.4,5.6c0,4.9,0,28.4,0,35.2c0,1.3-0.8,2.2-2,2.7
		c-0.9,0.3-2.2-0.1-2.8-1c-0.4-0.6-0.6-1.4-0.6-2.2c0-8.2,0-31.3,0-34.8c0-4.8,2.2-8.3,6.5-10.3c2.4-1.1,4.9-1.2,7.5-0.4
		c5.6,1.7,70.3,21,76.8,23c4.5,1.4,7.9,5.5,7.8,10.6C137.2,76.1,137.1,110.3,137.3,118.9z"/>
	<path class="st1" d="M105.9,132.4c0,2.6-1,4.6-3.2,5.9c-4.7,2.9-10.2-0.7-10.2-5.7c0-5.1,0-10.3,0-15.4c0-13.5,0-27,0-40.5
		c0-2.7,1-4.9,3.3-6.3c4.3-2.6,9.9,0.5,10.1,5.5C105.9,80.5,105.9,123.1,105.9,132.4z"/>
	<path class="st1" d="M73.5,83.5c-0.1-3.9,3.4-7.1,7-6.9c3.6,0.2,6.4,3,6.4,6.9c0,8.1,0,36,0,41.8c0,2.9-1.1,5.1-3.7,6.5
		c-4.2,2.3-9.7-0.9-9.7-5.7C73.5,119,73.6,90.5,73.5,83.5z"/>
	<path class="st1" d="M67.8,118.4c0,3.9-3,6.6-6.8,6.6c-3.4,0-6.4-3.1-6.4-6.5c0-9.4,0-18.8,0-28.1c0-3.4,2.7-5.9,5.3-6.3
		c4.1-0.6,6.7,1.5,7.8,4.6c0.1,0.4,0.2,0.9,0.2,1.3C67.8,94.8,67.8,113.8,67.8,118.4z"/>
	<path class="st1" d="M48.9,112.3c0,2.6-1.9,5.5-5,6.2c-3.1,0.8-6.4-0.7-7.6-3.4c-0.4-0.9-0.7-2-0.7-3c-0.1-4.9,0-9.8-0.1-14.7
		c-0.1-3.3,2.5-6.5,5.9-6.9c2.9-0.3,6.1,1.4,7.2,4.7c0.1,0.5,0.2,1,0.2,1.5C48.9,99.3,48.8,109.7,48.9,112.3z"/>
</g>
</svg>
