<?xml version="1.0" encoding="UTF-8"?><svg id="Capa_1" xmlns="http://www.w3.org/2000/svg" viewBox="0 0 163.06 154.18"><defs><style>.cls-1{fill:#36c;}</style></defs><path class="cls-1" d="M100.98,114.33c17.35,0,34.64,0,51.93,0,1.28,0,2.56-.04,3.84,.01,3.88,.16,6.35,2.6,6.31,6.21-.04,3.57-2.53,5.92-6.48,6.05-1.4,.05-2.8,0-4.83,0,0,4.99,0,9.79,0,14.59,0,2.17,.07,4.35-.05,6.52-.22,3.91-2.74,6.48-6.18,6.45-3.39-.02-6.12-2.72-6.2-6.51-.13-6.14-.04-12.28-.05-18.42,0-.74-.07-1.49-.12-2.42h-5.86c0,3.77,.07,7.45-.02,11.12-.11,4.6-2.4,7.13-6.25,7.09-3.81-.04-6.11-2.7-6.19-7.21-.06-3.45-.07-6.9-.11-10.36,0-.11-.09-.22-.35-.84-5.88,0-11.98-.13-18.07,.15-.84,.04-1.96,1.93-2.33,3.15-4.45,14.69-18.18,24.66-33.57,24.26-16.54-.44-31.28-14.15-32.47-30.19-1.34-18.1,10.3-33.61,27.42-36.54,17.71-3.04,33.71,6.99,38.68,24.24,.24,.85,.6,1.66,.96,2.66Zm-12.34,6.38c.11-11.81-9.16-21.34-20.89-21.46-11.78-.13-21.6,9.59-21.58,21.36,.02,11.33,9.62,20.92,21.09,21.08,11.71,.16,21.27-9.21,21.38-20.97Z"/><path class="cls-1" d="M123.75,96.72c4.85-9.18,7.6-19.64,7.6-30.75C131.34,29.67,102.02,.22,65.77,0h0s-.07,0-.1,0c-.03,0-.07,0-.1,0h0C29.32,.22,0,29.67,0,65.97c0,15.56,5.39,29.86,14.41,41.15,.82-18.44,12.24-34.25,28.57-41.99-3.95-4.89-6.32-11.12-6.32-17.89,0-15.74,12.76-28.51,28.51-28.51,.14,0,.27,0,.41,0h0s.07,0,.1,0c.03,0,.07,0,.1,0h0c.14,0,.27,0,.41,0,15.74,0,28.51,12.76,28.51,28.51,0,6.78-2.37,13-6.32,17.89,13.16,6.23,23.13,17.71,26.93,31.59h8.45Z"/></svg>