<?xml version="1.0" encoding="UTF-8"?><svg id="Capa_1" xmlns="http://www.w3.org/2000/svg" viewBox="0 0 50.47 50.47"><defs><style>.cls-1{fill:#069169;stroke-width:0px;}</style></defs><path class="cls-1" d="m49.69.31c.62.45.87,1.05.76,1.8l-7.21,43.26c-.09.54-.39.97-.9,1.27-.26.15-.55.23-.87.23-.21,0-.43-.05-.68-.14l-12.76-5.21-6.82,8.31c-.34.43-.8.65-1.38.65-.24,0-.45-.04-.62-.11-.36-.13-.64-.35-.86-.66s-.32-.65-.32-1.03v-9.83l24.33-29.83-30.11,26.05L1.13,30.5c-.69-.26-1.07-.78-1.13-1.55-.04-.75.26-1.3.9-1.66L47.77.25c.28-.17.58-.25.9-.25.38,0,.71.1,1.01.31Z"/></svg>