<?xml version="1.0" encoding="UTF-8"?><svg id="Capa_1" xmlns="http://www.w3.org/2000/svg" viewBox="0 0 50.47 50.47"><defs><style>.cls-1{fill:#a80521;stroke-width:0px;}</style></defs><path class="cls-1" d="m1.8,0c.32,0,.62.08.9.25l46.87,27.04c.64.36.94.91.9,1.66-.06.77-.43,1.29-1.13,1.55l-11.13,4.56L8.11,9.01l24.33,29.83v9.83c0,.38-.11.72-.32,1.03s-.5.53-.86.66c-.17.07-.38.11-.62.11-.58,0-1.04-.22-1.38-.65l-6.82-8.31-12.76,5.21c-.24.09-.47.14-.68.14-.32,0-.61-.08-.87-.23-.51-.3-.81-.72-.9-1.27L.03,2.11C-.09,1.36.17.76.79.31,1.09.1,1.42,0,1.8,0Z"/></svg>