<?xml version="1.0" encoding="utf-8"?>
<svg version="1.1" xmlns:xlink="http://www.w3.org/1999/xlink" width="14px" height="12px" xmlns="http://www.w3.org/2000/svg">
  <g transform="matrix(1 0 0 1 -1179 -1351 )">
    <path d="M 4.23197115384615 10.8323863636364  C 4.28245192307692 10.78125  4.30769230769231 10.7159090909091  4.30769230769231 10.6363636363636  L 4.30769230769231 9  C 4.30769230769231 8.92045454545454  4.28245192307692 8.85511363636364  4.23197115384615 8.80397727272727  C 4.18149038461539 8.75284090909091  4.11698717948718 8.72727272727273  4.03846153846154 8.72727272727273  L 1.34615384615385 8.72727272727273  C 1.26762820512821 8.72727272727273  1.203125 8.75284090909091  1.15264423076923 8.80397727272727  C 1.10216346153846 8.85511363636364  1.07692307692308 8.92045454545454  1.07692307692308 9  L 1.07692307692308 10.6363636363636  C 1.07692307692308 10.7159090909091  1.10216346153846 10.78125  1.15264423076923 10.8323863636364  C 1.203125 10.8835227272727  1.26762820512821 10.9090909090909  1.34615384615385 10.9090909090909  L 4.03846153846154 10.9090909090909  C 4.11698717948718 10.9090909090909  4.18149038461539 10.8835227272727  4.23197115384615 10.8323863636364  Z M 4.23197115384615 7.55965909090909  C 4.28245192307692 7.50852272727273  4.30769230769231 7.44318181818182  4.30769230769231 7.36363636363636  L 4.30769230769231 5.72727272727273  C 4.30769230769231 5.64772727272727  4.28245192307692 5.58238636363636  4.23197115384615 5.53125  C 4.18149038461539 5.48011363636364  4.11698717948718 5.45454545454546  4.03846153846154 5.45454545454546  L 1.34615384615385 5.45454545454546  C 1.26762820512821 5.45454545454546  1.203125 5.48011363636364  1.15264423076923 5.53125  C 1.10216346153846 5.58238636363636  1.07692307692308 5.64772727272727  1.07692307692308 5.72727272727273  L 1.07692307692308 7.36363636363636  C 1.07692307692308 7.44318181818182  1.10216346153846 7.50852272727273  1.15264423076923 7.55965909090909  C 1.203125 7.61079545454546  1.26762820512821 7.63636363636364  1.34615384615385 7.63636363636364  L 4.03846153846154 7.63636363636364  C 4.11698717948718 7.63636363636364  4.18149038461539 7.61079545454546  4.23197115384615 7.55965909090909  Z M 8.53966346153846 10.8323863636364  C 8.59014423076923 10.78125  8.61538461538462 10.7159090909091  8.61538461538462 10.6363636363636  L 8.61538461538462 9  C 8.61538461538462 8.92045454545454  8.59014423076923 8.85511363636364  8.53966346153846 8.80397727272727  C 8.48918269230769 8.75284090909091  8.42467948717949 8.72727272727273  8.34615384615385 8.72727272727273  L 5.65384615384615 8.72727272727273  C 5.57532051282051 8.72727272727273  5.51081730769231 8.75284090909091  5.46033653846154 8.80397727272727  C 5.40985576923077 8.85511363636364  5.38461538461539 8.92045454545454  5.38461538461539 9  L 5.38461538461539 10.6363636363636  C 5.38461538461539 10.7159090909091  5.40985576923077 10.78125  5.46033653846154 10.8323863636364  C 5.51081730769231 10.8835227272727  5.57532051282051 10.9090909090909  5.65384615384615 10.9090909090909  L 8.34615384615385 10.9090909090909  C 8.42467948717949 10.9090909090909  8.48918269230769 10.8835227272727  8.53966346153846 10.8323863636364  Z M 4.23197115384615 4.28693181818182  C 4.28245192307692 4.23579545454546  4.30769230769231 4.17045454545455  4.30769230769231 4.09090909090909  L 4.30769230769231 2.45454545454546  C 4.30769230769231 2.375  4.28245192307692 2.30965909090909  4.23197115384615 2.25852272727273  C 4.18149038461539 2.20738636363636  4.11698717948718 2.18181818181818  4.03846153846154 2.18181818181818  L 1.34615384615385 2.18181818181818  C 1.26762820512821 2.18181818181818  1.203125 2.20738636363636  1.15264423076923 2.25852272727273  C 1.10216346153846 2.30965909090909  1.07692307692308 2.375  1.07692307692308 2.45454545454546  L 1.07692307692308 4.09090909090909  C 1.07692307692308 4.17045454545455  1.10216346153846 4.23579545454546  1.15264423076923 4.28693181818182  C 1.203125 4.33806818181818  1.26762820512821 4.36363636363636  1.34615384615385 4.36363636363636  L 4.03846153846154 4.36363636363636  C 4.11698717948718 4.36363636363636  4.18149038461539 4.33806818181818  4.23197115384615 4.28693181818182  Z M 8.53966346153846 7.55965909090909  C 8.59014423076923 7.50852272727273  8.61538461538462 7.44318181818182  8.61538461538462 7.36363636363636  L 8.61538461538462 5.72727272727273  C 8.61538461538462 5.64772727272727  8.59014423076923 5.58238636363636  8.53966346153846 5.53125  C 8.48918269230769 5.48011363636364  8.42467948717949 5.45454545454546  8.34615384615385 5.45454545454546  L 5.65384615384615 5.45454545454546  C 5.57532051282051 5.45454545454546  5.51081730769231 5.48011363636364  5.46033653846154 5.53125  C 5.40985576923077 5.58238636363636  5.38461538461539 5.64772727272727  5.38461538461539 5.72727272727273  L 5.38461538461539 7.36363636363636  C 5.38461538461539 7.44318181818182  5.40985576923077 7.50852272727273  5.46033653846154 7.55965909090909  C 5.51081730769231 7.61079545454546  5.57532051282051 7.63636363636364  5.65384615384615 7.63636363636364  L 8.34615384615385 7.63636363636364  C 8.42467948717949 7.63636363636364  8.48918269230769 7.61079545454546  8.53966346153846 7.55965909090909  Z M 12.8473557692308 10.8323863636364  C 12.8978365384615 10.78125  12.9230769230769 10.7159090909091  12.9230769230769 10.6363636363636  L 12.9230769230769 9  C 12.9230769230769 8.92045454545454  12.8978365384615 8.85511363636364  12.8473557692308 8.80397727272727  C 12.796875 8.75284090909091  12.7323717948718 8.72727272727273  12.6538461538462 8.72727272727273  L 9.96153846153846 8.72727272727273  C 9.88301282051282 8.72727272727273  9.81850961538462 8.75284090909091  9.76802884615385 8.80397727272727  C 9.71754807692308 8.85511363636364  9.69230769230769 8.92045454545454  9.69230769230769 9  L 9.69230769230769 10.6363636363636  C 9.69230769230769 10.7159090909091  9.71754807692308 10.78125  9.76802884615385 10.8323863636364  C 9.81850961538462 10.8835227272727  9.88301282051282 10.9090909090909  9.96153846153846 10.9090909090909  L 12.6538461538462 10.9090909090909  C 12.7323717948718 10.9090909090909  12.796875 10.8835227272727  12.8473557692308 10.8323863636364  Z M 8.53966346153846 4.28693181818182  C 8.59014423076923 4.23579545454546  8.61538461538462 4.17045454545455  8.61538461538462 4.09090909090909  L 8.61538461538462 2.45454545454546  C 8.61538461538462 2.375  8.59014423076923 2.30965909090909  8.53966346153846 2.25852272727273  C 8.48918269230769 2.20738636363636  8.42467948717949 2.18181818181818  8.34615384615385 2.18181818181818  L 5.65384615384615 2.18181818181818  C 5.57532051282051 2.18181818181818  5.51081730769231 2.20738636363636  5.46033653846154 2.25852272727273  C 5.40985576923077 2.30965909090909  5.38461538461539 2.375  5.38461538461539 2.45454545454546  L 5.38461538461539 4.09090909090909  C 5.38461538461539 4.17045454545455  5.40985576923077 4.23579545454546  5.46033653846154 4.28693181818182  C 5.51081730769231 4.33806818181818  5.57532051282051 4.36363636363636  5.65384615384615 4.36363636363636  L 8.34615384615385 4.36363636363636  C 8.42467948717949 4.36363636363636  8.48918269230769 4.33806818181818  8.53966346153846 4.28693181818182  Z M 12.8473557692308 7.55965909090909  C 12.8978365384615 7.50852272727273  12.9230769230769 7.44318181818182  12.9230769230769 7.36363636363636  L 12.9230769230769 5.72727272727273  C 12.9230769230769 5.64772727272727  12.8978365384615 5.58238636363636  12.8473557692308 5.53125  C 12.796875 5.48011363636364  12.7323717948718 5.45454545454546  12.6538461538462 5.45454545454546  L 9.96153846153846 5.45454545454546  C 9.88301282051282 5.45454545454546  9.81850961538462 5.48011363636364  9.76802884615385 5.53125  C 9.71754807692308 5.58238636363636  9.69230769230769 5.64772727272727  9.69230769230769 5.72727272727273  L 9.69230769230769 7.36363636363636  C 9.69230769230769 7.44318181818182  9.71754807692308 7.50852272727273  9.76802884615385 7.55965909090909  C 9.81850961538462 7.61079545454546  9.88301282051282 7.63636363636364  9.96153846153846 7.63636363636364  L 12.6538461538462 7.63636363636364  C 12.7323717948718 7.63636363636364  12.796875 7.61079545454546  12.8473557692308 7.55965909090909  Z M 12.8473557692308 4.28693181818182  C 12.8978365384615 4.23579545454546  12.9230769230769 4.17045454545455  12.9230769230769 4.09090909090909  L 12.9230769230769 2.45454545454546  C 12.9230769230769 2.375  12.8978365384615 2.30965909090909  12.8473557692308 2.25852272727273  C 12.796875 2.20738636363636  12.7323717948718 2.18181818181818  12.6538461538462 2.18181818181818  L 9.96153846153846 2.18181818181818  C 9.88301282051282 2.18181818181818  9.81850961538462 2.20738636363636  9.76802884615385 2.25852272727273  C 9.71754807692308 2.30965909090909  9.69230769230769 2.375  9.69230769230769 2.45454545454546  L 9.69230769230769 4.09090909090909  C 9.69230769230769 4.17045454545455  9.71754807692308 4.23579545454546  9.76802884615385 4.28693181818182  C 9.81850961538462 4.33806818181818  9.88301282051282 4.36363636363636  9.96153846153846 4.36363636363636  L 12.6538461538462 4.36363636363636  C 12.7323717948718 4.36363636363636  12.796875 4.33806818181818  12.8473557692308 4.28693181818182  Z M 13.6045673076923 0.400568181818181  C 13.8681891025641 0.667613636363635  14 0.988636363636364  14 1.36363636363636  L 14 10.6363636363636  C 14 11.0113636363636  13.8681891025641 11.3323863636364  13.6045673076923 11.5994318181818  C 13.3409455128205 11.8664772727273  13.0240384615385 12  12.6538461538462 12  L 1.34615384615385 12  C 0.975961538461539 12  0.659054487179487 11.8664772727273  0.395432692307692 11.5994318181818  C 0.131810897435897 11.3323863636364  0 11.0113636363636  0 10.6363636363636  L 0 1.36363636363636  C 0 0.988636363636364  0.131810897435897 0.667613636363635  0.395432692307692 0.400568181818181  C 0.659054487179487 0.133522727272726  0.975961538461539 0  1.34615384615385 0  L 12.6538461538462 0  C 13.0240384615385 0  13.3409455128205 0.133522727272726  13.6045673076923 0.400568181818181  Z " fill-rule="nonzero" fill="#3366cc" stroke="none" transform="matrix(1 0 0 1 1179 1351 )" />
  </g>
</svg>