<?xml version="1.0" encoding="utf-8"?>
<svg version="1.1" xmlns:xlink="http://www.w3.org/1999/xlink" width="19px" height="14px" xmlns="http://www.w3.org/2000/svg">
  <g transform="matrix(1 0 0 1 -263 -316 )">
    <path d="M 1.35714285714286 7  C 2.5375744047619 8.79166666666667  4.04668898809524 10.09375  5.88448660714286 10.90625  L 6.71149553571429 9.4375  C 6.09654017857143 9  5.61588541666667 8.44791666666667  5.26953125 7.78125  C 4.92317708333333 7.11458333333333  4.75 6.40972222222222  4.75 5.66666666666667  C 4.75 4.82638888888889  4.96558779761905 4.04513888888889  5.39676339285714 3.32291666666667  C 3.77808779761905 4.13541666666667  2.43154761904762 5.36111111111111  1.35714285714286 7  Z M 9.86049107142857 3.35416666666667  C 9.95944940476191 3.25694444444444  10.0089285714286 3.13888888888889  10.0089285714286 3  C 10.0089285714286 2.86111111111111  9.95944940476191 2.74305555555556  9.86049107142857 2.64583333333333  C 9.76153273809524 2.54861111111111  9.64136904761905 2.5  9.5 2.5  C 8.61644345238095 2.5  7.85835193452381 2.81076388888889  7.22572544642857 3.43229166666667  C 6.59309895833333 4.05381944444444  6.27678571428571 4.79861111111111  6.27678571428571 5.66666666666667  C 6.27678571428571 5.80555555555556  6.32626488095238 5.92361111111111  6.42522321428571 6.02083333333333  C 6.52418154761905 6.11805555555555  6.64434523809524 6.16666666666667  6.78571428571429 6.16666666666667  C 6.92708333333333 6.16666666666667  7.04724702380952 6.11805555555555  7.14620535714286 6.02083333333333  C 7.24516369047619 5.92361111111111  7.29464285714286 5.80555555555556  7.29464285714286 5.66666666666667  C 7.29464285714286 5.06944444444444  7.51023065476191 4.55902777777778  7.94140625 4.13541666666667  C 8.3725818452381 3.71180555555555  8.8921130952381 3.5  9.5 3.5  C 9.64136904761905 3.5  9.76153273809524 3.45138888888889  9.86049107142857 3.35416666666667  Z M 13.6880580357143 0.729166666666667  C 13.8011532738095 0.79861111111111  13.8577008928571 0.89236111111111  13.8577008928571 1.01041666666667  C 13.8577008928571 1.05902777777778  13.8541666666667 1.09027777777778  13.8470982142857 1.10416666666667  C 13.0978422619048 2.41666666666667  11.9810267857143 4.38541666666667  10.4966517857143 7.01041666666667  C 9.01227678571429 9.63541666666667  7.89899553571429 11.6006944444444  7.15680803571429 12.90625  L 6.63727678571429 13.8333333333333  C 6.56659226190476 13.9444444444444  6.46763392857143 14  6.34040178571429 14  C 6.25558035714286 14  5.78199404761905 13.7569444444444  4.91964285714286 13.2708333333333  C 4.80654761904762 13.2013888888889  4.75 13.1041666666667  4.75 12.9791666666667  C 4.75 12.8958333333333  4.90550595238095 12.59375  5.21651785714286 12.0729166666667  C 4.20572916666667 11.6215277777778  3.27446056547619 11.0208333333333  2.42271205357143 10.2708333333333  C 1.57096354166667 9.52083333333333  0.834077380952381 8.67013888888889  0.212053571428571 7.71875  C 0.0706845238095238 7.50347222222222  0 7.26388888888889  0 7  C 0 6.73611111111111  0.0706845238095238 6.49652777777778  0.212053571428571 6.28125  C 1.29352678571429 4.64930555555556  2.63653273809524 3.36111111111111  4.24107142857143 2.41666666666667  C 5.84561011904762 1.47222222222222  7.59858630952381 1  9.5 1  C 10.1290922619048 1  10.7652529761905 1.05902777777778  11.4084821428571 1.17708333333333  L 11.9810267857143 0.166666666666666  C 12.0517113095238 0.0555555555555554  12.1506696428571 0  12.2779017857143 0  C 12.313244047619 0  12.3768601190476 0.0208333333333333  12.46875 0.0624999999999998  C 12.5606398809524 0.104166666666666  12.6702008928571 0.157986111111109  12.7974330357143 0.223958333333334  C 12.9246651785714 0.289930555555555  13.0412946428571 0.354166666666667  13.1473214285714 0.416666666666667  C 13.2533482142857 0.479166666666667  13.3646763392857 0.543402777777775  13.4813058035714 0.609375  C 13.5979352678571 0.675347222222221  13.6668526785714 0.715277777777777  13.6880580357143 0.729166666666667  Z M 14.1651785714286 4.79166666666667  C 14.2217261904762 5.10416666666667  14.25 5.39583333333333  14.25 5.66666666666667  C 14.25 6.63194444444444  13.9707961309524 7.51215277777778  13.4123883928571 8.30729166666667  C 12.8539806547619 9.10243055555556  12.1153273809524 9.67361111111111  11.1964285714286 10.0208333333333  L 14.1651785714286 4.79166666666667  Z M 18.7879464285714 6.28125  C 18.9293154761905 6.51736111111111  19 6.75694444444444  19 7  C 19 7.24305555555555  18.9293154761905 7.48263888888889  18.7879464285714 7.71875  C 18.5122767857143 8.16319444444444  18.1270461309524 8.66666666666667  17.6322544642857 9.22916666666667  C 16.5719866071429 10.4236111111111  15.3438430059524 11.3506944444444  13.9478236607143 12.0104166666667  C 12.5518043154762 12.6701388888889  11.0691964285714 13  9.5 13  L 10.2845982142857 11.625  C 11.7831101190476 11.5  13.1702938988095 11.0243055555556  14.4461495535714 10.1979166666667  C 15.7220052083333 9.37152777777778  16.7875744047619 8.30555555555555  17.6428571428571 7  C 16.8299851190476 5.75694444444444  15.8333333333333 4.73611111111111  14.6529017857143 3.9375  L 15.3208705357143 2.77083333333333  C 15.9923735119048 3.21527777777778  16.6373697916667 3.74652777777778  17.255859375 4.36458333333333  C 17.8743489583333 4.98263888888889  18.3850446428571 5.62152777777778  18.7879464285714 6.28125  Z " fill-rule="nonzero" fill="#d7d7d7" stroke="none" transform="matrix(1 0 0 1 263 316 )" />
  </g>
</svg>