<?xml version="1.0" encoding="UTF-8"?><svg id="Capa_1" xmlns="http://www.w3.org/2000/svg" viewBox="0 0 118.14 118.14"><defs><style>.cls-1{fill:#36c;}.cls-2{fill:#fff;stroke:#36c;stroke-miterlimit:10;stroke-width:7px;}</style></defs><circle class="cls-2" cx="59.07" cy="59.07" r="55.57"/><path class="cls-1" d="M87.2,71.46c-.12,1.09-.22,2.18-.36,3.27-.42,3.46-1.19,6.86-2.14,10.21-.03,.09-.09,.17-.04,.25-.06-2.42-.02-4.85-.21-7.27-.3-3.9-1.32-7.59-3.64-10.82-2.01-2.81-4.71-4.71-7.85-6.05-3.43-1.46-7.04-2.25-10.74-2.57-3.06-.26-6.13-.35-9.19-.52-.21-.01-.43,0-.73,0,0,.26,0,.49,0,.72,0,3.03,0,6.07,0,9.1,0,.37-.03,.76-.15,1.1-.42,1.21-1.82,1.52-2.91,.67-3.1-2.43-6.2-4.85-9.3-7.28-4.11-3.21-8.22-6.43-12.33-9.64-1.23-.96-1.23-2.22,0-3.19,7.14-5.61,14.27-11.22,21.41-16.82,.29-.23,.61-.45,.95-.57,.99-.34,2.04,.29,2.24,1.32,.06,.31,.08,.63,.08,.94,0,3.05,0,6.1,0,9.16v.8c.26,0,.48,0,.71,0,4.57,.08,9.13,.34,13.61,1.29,3.77,.8,7.39,2.01,10.69,4.08,4.72,2.96,7.73,7.15,9.02,12.55,.36,1.5,.5,3.06,.74,4.6,.05,.29,.07,.58,.11,.87v3.78Z"/></svg>