<?xml version="1.0" encoding="utf-8"?>
<svg version="1.1" xmlns:xlink="http://www.w3.org/1999/xlink" width="167px" height="140px" xmlns="http://www.w3.org/2000/svg">
  <g transform="matrix(1 0 0 1 -483 -290 )">
    <path d="M 100.895833333333 98  L 111.224609375 77  L 145.581380208333 77  C 145.508897569444 76.78125  145.418294270833 76.4713541666667  145.3095703125 76.0703125  C 145.200846354167 75.6692708333333  145.110243055556 75.3958333333333  145.037760416667 75.25  L 121.98828125 21  L 45.01171875 21  L 21.9622395833333 75.25  C 21.8897569444445 75.46875  21.7991536458333 75.7786458333333  21.6904296875 76.1796875  C 21.5817057291667 76.5807291666667  21.4911024305556 76.8541666666667  21.4186197916667 77  L 55.775390625 77  L 66.1041666666667 98  L 100.895833333333 98  Z M 164.281901041667 66.828125  C 166.093967013889 71.2760416666667  167 75.7604166666667  167 80.28125  L 167 133  C 167 134.895833333333  166.311414930556 136.536458333333  164.934244791667 137.921875  C 163.557074652778 139.307291666667  161.926215277778 140  160.041666666667 140  L 6.95833333333333 140  C 5.07378472222222 140  3.44292534722222 139.307291666667  2.06575520833333 137.921875  C 0.688585069444444 136.536458333333  0 134.895833333333  0 133  L 0 80.28125  C 0 75.7604166666667  0.906032986111111 71.2760416666667  2.71809895833333 66.828125  L 28.5944010416667 6.45312500000001  C 29.3192274305556 4.63020833333332  30.6420355902778 3.09895833333333  32.5628255208333 1.859375  C 34.4836154513889 0.619791666666647  36.3862847222222 0  38.2708333333333 0  L 128.729166666667 0  C 130.613715277778 0  132.516384548611 0.619791666666647  134.437174479167 1.859375  C 136.357964409722 3.09895833333333  137.680772569444 4.63020833333332  138.405598958333 6.45312500000001  L 164.281901041667 66.828125  Z " fill-rule="nonzero" fill="#e6effd" stroke="none" fill-opacity="0.996078431372549" transform="matrix(1 0 0 1 483 290 )" />
  </g>
</svg>