<?xml version="1.0" encoding="utf-8"?>
<!-- Generator: Adobe Illustrator 19.0.0, SVG Export Plug-In . SVG Version: 6.00 Build 0)  -->
<svg version="1.1" id="Capa_2" xmlns="http://www.w3.org/2000/svg" xmlns:xlink="http://www.w3.org/1999/xlink" x="0px" y="0px"
	 viewBox="-279 403.9 36 35" style="enable-background:new -279 403.9 36 35;" xml:space="preserve">
<style type="text/css">
	.st0{fill:#3366CC;}
	.st1{fill:#CDD8FE;}
</style>
<g transform="matrix(1 0 0 1 -23 -22 )">
	<path class="st0" d="M-228.4,449.7c0,0,0.1,0.1,0.1,0.1v2.6c0,0.1,0,0.1-0.1,0.1s-0.1,0.1-0.1,0.1h-1.9c-0.1,0-0.1,0-0.1-0.1
		s-0.1-0.1-0.1-0.1v-0.4c0-0.1,0-0.1,0.1-0.1s0.1-0.1,0.1-0.1h1.3v-2.1c0-0.1,0-0.1,0.1-0.1s0.1-0.1,0.1-0.1h0.4
		C-228.4,449.6-228.4,449.7-228.4,449.7z M-226.3,453.5c0.3-0.5,0.4-1,0.4-1.6s-0.1-1.1-0.4-1.6s-0.7-0.9-1.2-1.2s-1-0.4-1.6-0.4
		s-1.1,0.1-1.6,0.4s-0.9,0.7-1.2,1.2s-0.4,1-0.4,1.6s0.1,1.1,0.4,1.6s0.7,0.9,1.2,1.2s1,0.4,1.6,0.4s1.1-0.1,1.6-0.4
		S-226.6,454-226.3,453.5z M-225.2,449.6c0.4,0.7,0.6,1.4,0.6,2.3s-0.2,1.6-0.6,2.3s-0.9,1.2-1.6,1.6s-1.4,0.6-2.3,0.6
		s-1.6-0.2-2.3-0.6s-1.2-0.9-1.6-1.6s-0.6-1.4-0.6-2.3s0.2-1.6,0.6-2.3s0.9-1.2,1.6-1.6s1.4-0.6,2.3-0.6s1.6,0.2,2.3,0.6
		S-225.6,448.9-225.2,449.6z"/>
</g>
<g id="XMLID_6_" transform="matrix(1 0 0 1 -10 -10 )">
	<path id="XMLID_7_" class="st0" d="M-256.3,438.1h1.1l1-1l-2.5-2.5l-1,1v1.1h1.4V438.1z M-249.7,428.5c0,0,0.1-0.1,0.1-0.2
		c0-0.2-0.1-0.2-0.2-0.2c-0.1,0-0.1,0-0.2,0.1l-5.7,5.7c0,0-0.1,0.1-0.1,0.2c0,0.2,0.1,0.2,0.2,0.2s0.1,0,0.2-0.1L-249.7,428.5z
		 M-259,435.1l8.8-8.8l4.4,4.4l-8.8,8.8h-4.4V435.1z M-243.4,426.4c0.3,0.3,0.4,0.6,0.4,1s-0.1,0.7-0.4,1l-1.8,1.8l-4.4-4.4l1.8-1.7
		c0.3-0.3,0.6-0.4,1-0.4s0.7,0.1,1,0.4L-243.4,426.4z"/>
</g>
<g>
	<path class="st1" d="M-247.8,437.8v-1h-26.4c-1.4,0-2.6-1.2-2.6-2.6v-25.6c0-1.4,1.2-2.6,2.6-2.6h26.4c1.4,0,2.6,1.2,2.6,2.6v25.6
		c0,1.4-1.2,2.6-2.6,2.6L-247.8,437.8l0,1c2.5,0,4.6-2.1,4.6-4.6v-25.6c0-2.5-2.1-4.6-4.6-4.6h-26.4c-2.5,0-4.6,2.1-4.6,4.6v25.6
		c0,2.5,2.1,4.6,4.6,4.6h26.4L-247.8,437.8L-247.8,437.8z"/>
</g>
</svg>
