<?xml version="1.0" encoding="utf-8"?>
<svg version="1.1" xmlns:xlink="http://www.w3.org/1999/xlink" width="20px" height="20px" xmlns="http://www.w3.org/2000/svg">
  <g transform="matrix(1 0 0 1 -1102 -51 )">
    <path d="M 3.7816544738323 17.0835670218732  C 4.00675295441756 17.3602542531314  4.11930219471019 17.6892877173303  4.11930219471019 18.07066741447  C 4.11930219471019 18.6689100766498  3.91483774151191 19.1400261731165  3.50590883511536 19.4840157038699  C 3.09697992871881 19.8280052346233  2.58863252673044 20  1.98086662915025 20  C 1.18551866441568 20  0.540236353404615 19.7532249018508  0.0450196961170513 19.2596747055524  L 0.686550365785031 18.2725743129557  C 1.05421121740762 18.6090858104319  1.4518851997749 18.7773415591699  1.87957231288689 18.7773415591699  C 2.09716751078597 18.7773415591699  2.28662539861189 18.7231258179099  2.44794597636466 18.6146943353898  C 2.60926655411743 18.5062628528697  2.68992684299381 18.3473546457282  2.68992684299381 18.1379697139652  C 2.68992684299381 17.6593755842213  2.29600450196961 17.4499906524584  1.50815981992122 17.5098149186764  L 1.21553179516038 16.8816601233876  C 1.27555805664978 16.8068797906151  1.39748640030013 16.6442325668349  1.58131682611142 16.3937184520471  C 1.76514725192272 16.1432043372593  1.92459200900394 15.9412974387736  2.05965109735509 15.78799775659  C 2.19471018570625 15.6346980744064  2.33352091540049 15.4907459338194  2.47608328643782 15.3561413348289  L 2.47608328643782 15.3449242849131  C 2.35603076345901 15.3449242849131  2.17407615831927 15.3486633015517  1.93021947101857 15.3561413348289  C 1.68636278371788 15.3636193681062  1.50440817857813 15.3673583847448  1.38435565559932 15.3673583847448  L 1.38435565559932 15.961862030286  L 0.191333708497468 15.961862030286  L 0.191333708497468 14.2568704430735  L 3.93922341024198 14.2568704430735  L 3.93922341024198 15.2439708356702  L 2.87000562746201 16.5339315759955  C 3.25267304445695 16.6236679753225  3.55655599324705 16.8068797906151  3.7816544738323 17.0835670218732  Z M 2.96004501969612 11.0375771172182  L 4.14181204276871 11.0375771172182  L 4.14181204276871 12.8210880538418  L 0.0675295441755769 12.8210880538418  C 0.0225098480585257 12.5518788558609  0 12.3499719573752  0 12.2153673583847  C 0 11.8339876612451  0.0881635715625587 11.4862591138531  0.264490714687676 11.1721817162086  C 0.440817857812793 10.8581043185642  0.652785593697243 10.6038511871378  0.900393922341024 10.4094223219293  C 1.14800225098481 10.2149934567209  1.39561057962859 10.0373901663862  1.64321890827237 9.87661245092541  C 1.89082723691615 9.71583473546457  2.1027949728006 9.55318751168443  2.27912211592572 9.38867077958497  C 2.45544925905084 9.22415404748551  2.54361283061339 9.05589829874743  2.54361283061339 8.88390353337072  C 2.54361283061339 8.69695270143952  2.48921403113862 8.5530005608525  2.38041643218908 8.45204711160965  C 2.27161883323954 8.3510936623668  2.12342900018758 8.30061693774537  1.9358469330332 8.30061693774537  C 1.59069592946914 8.30061693774537  1.28681298067905 8.51747990278557  1.02419808666292 8.95120583286596  L 0.0675295441755769 8.2893998878295  C 0.247608328643782 7.90802019068985  0.515850684674545 7.61076836791924  0.872256612267867 7.39764441951767  C 1.22866253986119 7.1845204711161  1.62446070155693 7.07795849691531  2.05965109735509 7.07795849691531  C 2.60739073344588 7.07795849691531  3.06884261864566 7.23312768741821  3.44400675295442 7.543466068424  C 3.81917088726318 7.8538044494298  4.00675295441756 8.274443821275  4.00675295441756 8.80538418395962  C 4.00675295441756 9.17928584782202  3.87919714875258 9.52140587025612  3.62408553742262 9.83174425126192  C 3.36897392609267 10.1420826322677  3.0876008253611 10.383249205459  2.77996623522791 10.5552439708357  C 2.47233164509473 10.7272387362124  2.18908272369162 10.9160590764629  1.93021947101857 11.1217049915872  C 1.67135621834553 11.3273509067115  1.53817295066592 11.5236492802393  1.53066966797974 11.7106001121705  L 2.96004501969612 11.7106001121705  L 2.96004501969612 11.0375771172182  Z M 19.893078221722 14.3634324172743  C 19.9643594072407 14.4344737334081  20 14.5186016077772  20 14.6158160403814  L 20 16.7694896242288  C 20 16.8667040568331  19.9643594072407 16.9508319312021  19.893078221722 17.021873247336  C 19.8217970362033 17.0929145634698  19.7373851059839 17.1284352215367  19.6398424310636 17  L 5.95385481148002 17  C 5.85631213655974 17.1284352215367  5.77190020634028 17.0929145634698  5.70061902082161 17.021873247336  C 5.62933783530295 16.9508319312021  5.59369724254361 16.8667040568331  5.59369724254361 16.7694896242288  L 5.59369724254361 14.6158160403814  C 5.59369724254361 14.5111235744999  5.6274620146314 14.4251261918116  5.69499155880698 14.3578238923163  C 5.76252110298256 14.2905215928211  5.84880885387357 14.2568704430735  5.95385481148002 14  L 19.6398424310636 14  C 19.7373851059839 14.2568704430735  19.8217970362033 14.2923911011404  19.893078221722 14.3634324172743  Z M 2.93753517163759 4.53168816601234  L 4.15306696679797 4.53168816601234  L 4.15306696679797 5.64217610768368  L 0.382667416994935 5.64217610768368  L 0.382667416994935 4.53168816601234  L 1.58694428812606 4.53168816601234  C 1.58694428812606 4.22508880164516  1.5888201087976 3.77079828005235  1.59257175014069 3.16881660123387  C 1.59632339148377 2.5668349224154  1.59819921215532 2.11254440082258  1.59819921215532 1.80594503645541  L 1.59819921215532 1.67134043746495  L 1.57568936409679 1.67134043746495  C 1.51566310260739 1.79846700317816  1.32808103545301 2.00037390166386  1.01294316263365 2.27706113292204  L 0.213843556555993 1.42456533931576  L 1.74451322453573 0  L 2.93753517163759 0  L 2.93753517163759 4.53168816601234  Z M 19.893078221722 8.62030286034773  C 19.9643594072407 8.69134417648158  20 8.77547205085063  20 8.87268648345485  L 20 11.0263600673023  C 20 11.1235744999065  19.9643594072407 11.2077023742756  19.893078221722 11.2787436904094  C 19.8217970362033 11.3497850065433  19.7373851059839 11.3853056646102  19.6398424310636 11  L 5.95385481148002 11  C 5.85631213655974 11.3853056646102  5.77190020634028 11.3497850065433  5.70061902082161 11.2787436904094  C 5.62933783530295 11.2077023742756  5.59369724254361 11.1235744999065  5.59369724254361 11.0263600673023  L 5.59369724254361 8.87268648345485  C 5.59369724254361 8.76799401757338  5.6274620146314 8.68199663488502  5.69499155880698 8.61469433538979  C 5.76252110298256 8.54739203589456  5.84880885387357 8.51374088614694  5.95385481148002 8.51374088614694  L 19.6398424310636 8.51374088614694  C 19.7373851059839 8.51374088614694  19.8217970362033 8.54926154421387  19.893078221722 8.62030286034773  Z M 19.893078221722 2.8771733034212  C 19.9643594072407 2.94821461955506  20 3.0323424939241  20 3.12955692652832  L 20 5.28323051037577  C 20 5.38044494297999  19.9643594072407 5.46457281734904  19.893078221722 5.53561413348289  C 19.8217970362033 5.60665544961675  19.7373851059839 5.64217610768368  19.6398424310636 6  L 5.95385481148002 6  C 5.85631213655974 5.64217610768368  5.77190020634028 5.60665544961675  5.70061902082161 5.53561413348289  C 5.62933783530295 5.46457281734904  5.59369724254361 5.38044494297999  5.59369724254361 5.28323051037577  L 5.59369724254361 3.12955692652832  C 5.59369724254361 3.0323424939241  5.62933783530295 2.94821461955506  5.70061902082161 2.8771733034212  C 5.77190020634028 2.80613198728734  5.85631213655974 2.77061132922042  5.95385481148002 3  L 19.6398424310636 3  C 19.7373851059839 2.77061132922042  19.8217970362033 2.80613198728734  19.893078221722 2.8771733034212  Z " fill-rule="nonzero" fill="#3266cc" stroke="none" transform="matrix(1 0 0 1 1102 51 )" />
  </g>
</svg>