<?xml version="1.0" encoding="utf-8"?>
<svg version="1.1" xmlns:xlink="http://www.w3.org/1999/xlink" width="18px" height="18px" xmlns="http://www.w3.org/2000/svg">
  <g transform="matrix(1 0 0 1 -382 -255 )">
    <path d="M 4.84615384615385 13.5  C 4.84615384615385 13.59375  4.81370192307692 13.6766826923077  4.74879807692308 13.7487980769231  L 1.97956730769231 16.5180288461538  C 1.90024038461538 16.5829326923077  1.81730769230769 16.6153846153846  1.73076923076923 16.6153846153846  C 1.64423076923077 16.6153846153846  1.56129807692308 16.5829326923077  1.48197115384615 16.5180288461538  C 1.41706730769231 16.4459134615385  1.38461538461538 16.3629807692308  1.38461538461538 16.2692307692308  C 1.38461538461538 16.1754807692308  1.41706730769231 16.0925480769231  1.48197115384615 16.0204326923077  L 4.25120192307692 13.2512019230769  C 4.32331730769231 13.1862980769231  4.40625 13.1538461538462  4.5 13.1538461538462  C 4.59375 13.1538461538462  4.67668269230769 13.1862980769231  4.74879807692308 13.2512019230769  C 4.81370192307692 13.3233173076923  4.84615384615385 13.40625  4.84615384615385 13.5  Z M 6.47956730769231 13.9435096153846  C 6.54447115384615 14.0084134615385  6.57692307692308 14.0913461538462  6.57692307692308 14.1923076923077  L 6.57692307692308 17.6538461538462  C 6.57692307692308 17.7548076923077  6.54447115384615 17.8377403846154  6.47956730769231 17.9026442307692  C 6.41466346153846 17.9675480769231  6.33173076923077 18  6.23076923076923 18  C 6.12980769230769 18  6.046875 17.9675480769231  5.98197115384615 17.9026442307692  C 5.91706730769231 17.8377403846154  5.88461538461539 17.7548076923077  5.88461538461539 17.6538461538462  L 5.88461538461539 14.1923076923077  C 5.88461538461539 14.0913461538462  5.91706730769231 14.0084134615385  5.98197115384615 13.9435096153846  C 6.046875 13.8786057692308  6.12980769230769 13.8461538461538  6.23076923076923 13.8461538461538  C 6.33173076923077 13.8461538461538  6.41466346153846 13.8786057692308  6.47956730769231 13.9435096153846  Z M 4.05649038461539 11.5204326923077  C 4.12139423076923 11.5853365384615  4.15384615384615 11.6682692307692  4.15384615384615 11.7692307692308  C 4.15384615384615 11.8701923076923  4.12139423076923 11.953125  4.05649038461539 12.0180288461538  C 3.99158653846154 12.0829326923077  3.90865384615385 12.1153846153846  3.80769230769231 12.1153846153846  L 0.346153846153846 12.1153846153846  C 0.245192307692308 12.1153846153846  0.162259615384615 12.0829326923077  0.0973557692307692 12.0180288461538  C 0.0324519230769231 11.953125  0 11.8701923076923  0 11.7692307692308  C 0 11.6682692307692  0.0324519230769231 11.5853365384615  0.0973557692307692 11.5204326923077  C 0.162259615384615 11.4555288461538  0.245192307692308 11.4230769230769  0.346153846153846 11.4230769230769  L 3.80769230769231 11.4230769230769  C 3.90865384615385 11.4230769230769  3.99158653846154 11.4555288461538  4.05649038461539 11.5204326923077  Z M 16.9182692307692 10.9471153846154  C 17.5240384615385 11.5673076923077  17.8269230769231 12.3028846153846  17.8269230769231 13.1538461538462  C 17.8269230769231 14.0192307692308  17.5204326923077 14.7512019230769  16.9074519230769 15.3497596153846  L 15.3173076923077 16.9290865384615  C 14.71875 17.5276442307692  13.9867788461538 17.8269230769231  13.1213942307692 17.8269230769231  C 12.2487980769231 17.8269230769231  11.5132211538462 17.5204326923077  10.9146634615385 16.9074519230769  L 7.30168269230769 13.2836538461538  C 7.15024038461539 13.1322115384615  6.99879807692308 12.9302884615385  6.84735576923077 12.6778846153846  L 9.43269230769231 12.4831730769231  L 12.3858173076923 15.4471153846154  C 12.5805288461538 15.6418269230769  12.8257211538462 15.7409855769231  13.1213942307692 15.7445913461538  C 13.4170673076923 15.7481971153846  13.6622596153846 15.6526442307692  13.8569711538462 15.4579326923077  L 15.4471153846154 13.8786057692308  C 15.6490384615385 13.6766826923077  15.75 13.4350961538462  15.75 13.1538461538462  C 15.75 12.8653846153846  15.6490384615385 12.6201923076923  15.4471153846154 12.4182692307692  L 12.4831730769231 9.44350961538462  L 12.6778846153846 6.85817307692308  C 12.9302884615385 7.00961538461538  13.1322115384615 7.16105769230769  13.2836538461538 7.3125  L 16.9182692307692 10.9471153846154  Z M 10.6983173076923 4.71634615384615  C 10.8497596153846 4.86778846153846  11.0012019230769 5.06971153846154  11.1526442307692 5.32211538461538  L 8.56730769230769 5.51682692307692  L 5.61418269230769 2.55288461538462  C 5.41225961538462 2.35096153846154  5.16706730769231 2.25  4.87860576923077 2.25  C 4.59735576923077 2.25  4.35216346153846 2.34735576923077  4.14302884615385 2.54206730769231  L 2.55288461538462 4.12139423076923  C 2.35096153846154 4.32331730769231  2.25 4.56490384615385  2.25 4.84615384615385  C 2.25 5.13461538461538  2.35096153846154 5.37980769230769  2.55288461538462 5.58173076923077  L 5.51682692307692 8.54567307692308  L 5.32211538461539 11.1418269230769  C 5.06971153846154 10.9903846153846  4.86778846153846 10.8389423076923  4.71634615384615 10.6875  L 1.08173076923077 7.05288461538462  C 0.475961538461538 6.43269230769231  0.173076923076923 5.69711538461538  0.173076923076923 4.84615384615385  C 0.173076923076923 3.98076923076923  0.479567307692308 3.24879807692308  1.09254807692308 2.65024038461538  L 2.68269230769231 1.07091346153846  C 3.28125 0.472355769230768  4.01322115384615 0.173076923076922  4.87860576923077 0.173076923076922  C 5.75120192307692 0.173076923076922  6.48677884615385 0.479567307692307  7.08533653846154 1.09254807692308  L 10.6983173076923 4.71634615384615  Z M 17.9026442307692 5.98197115384615  C 17.9675480769231 6.046875  18 6.12980769230769  18 6.23076923076923  C 18 6.33173076923077  17.9675480769231 6.41466346153846  17.9026442307692 6.47956730769231  C 17.8377403846154 6.54447115384615  17.7548076923077 6.57692307692308  17.6538461538462 6.57692307692308  L 14.1923076923077 6.57692307692308  C 14.0913461538462 6.57692307692308  14.0084134615385 6.54447115384615  13.9435096153846 6.47956730769231  C 13.8786057692308 6.41466346153846  13.8461538461538 6.33173076923077  13.8461538461538 6.23076923076923  C 13.8461538461538 6.12980769230769  13.8786057692308 6.046875  13.9435096153846 5.98197115384615  C 14.0084134615385 5.91706730769231  14.0913461538462 5.88461538461538  14.1923076923077 5.88461538461538  L 17.6538461538462 5.88461538461538  C 17.7548076923077 5.88461538461538  17.8377403846154 5.91706730769231  17.9026442307692 5.98197115384615  Z M 12.0180288461538 0.0973557692307694  C 12.0829326923077 0.162259615384616  12.1153846153846 0.245192307692307  12.1153846153846 0.346153846153847  L 12.1153846153846 3.80769230769231  C 12.1153846153846 3.90865384615385  12.0829326923077 3.99158653846154  12.0180288461538 4.05649038461538  C 11.953125 4.12139423076923  11.8701923076923 4.15384615384615  11.7692307692308 4.15384615384615  C 11.6682692307692 4.15384615384615  11.5853365384615 4.12139423076923  11.5204326923077 4.05649038461538  C 11.4555288461538 3.99158653846154  11.4230769230769 3.90865384615385  11.4230769230769 3.80769230769231  L 11.4230769230769 0.346153846153847  C 11.4230769230769 0.245192307692307  11.4555288461538 0.162259615384616  11.5204326923077 0.0973557692307694  C 11.5853365384615 0.0324519230769225  11.6682692307692 0  11.7692307692308 0  C 11.8701923076923 0  11.953125 0.0324519230769225  12.0180288461538 0.0973557692307694  Z M 16.6153846153846 1.73076923076923  C 16.6153846153846 1.82451923076923  16.5829326923077 1.90745192307692  16.5180288461538 1.97956730769231  L 13.7487980769231 4.74879807692308  C 13.6694711538462 4.81370192307692  13.5865384615385 4.84615384615385  13.5 4.84615384615385  C 13.4134615384615 4.84615384615385  13.3305288461538 4.81370192307692  13.2512019230769 4.74879807692308  C 13.1862980769231 4.67668269230769  13.1538461538462 4.59375  13.1538461538462 4.5  C 13.1538461538462 4.40625  13.1862980769231 4.32331730769231  13.2512019230769 4.25120192307692  L 16.0204326923077 1.48197115384615  C 16.0925480769231 1.41706730769231  16.1754807692308 1.38461538461538  16.2692307692308 1.38461538461538  C 16.3629807692308 1.38461538461538  16.4459134615385 1.41706730769231  16.5180288461538 1.48197115384615  C 16.5829326923077 1.55408653846154  16.6153846153846 1.63701923076923  16.6153846153846 1.73076923076923  Z " fill-rule="nonzero" fill="#7f7f7f" stroke="none" transform="matrix(1 0 0 1 382 255 )" />
  </g>
</svg>