<?xml version="1.0" encoding="utf-8"?>
<!-- Generator: Adobe Illustrator 19.0.0, SVG Export Plug-In . SVG Version: 6.00 Build 0)  -->
<svg version="1.1" id="Capa_2" xmlns="http://www.w3.org/2000/svg" xmlns:xlink="http://www.w3.org/1999/xlink" x="0px" y="0px"
	 viewBox="-270.5 414.8 19 13.2" style="enable-background:new -270.5 414.8 19 13.2;" xml:space="preserve">
<style type="text/css">
	.st0{fill:#3366CC;}
</style>
<g transform="matrix(1 0 0 1 -9 -11 )">
	<path class="st0" d="M-247.4,436.1c1.4-0.9,2.6-2.1,3.5-3.7c-1.1-1.8-2.4-3.1-4-4c0.4,0.8,0.6,1.6,0.6,2.5c0,1.4-0.5,2.6-1.4,3.6
		s-2,1.5-3.4,1.5s-2.4-0.5-3.4-1.5s-1.4-2.2-1.4-3.6c0-0.9,0.2-1.8,0.6-2.5c-1.6,0.9-3,2.2-4,4c0.9,1.5,2.1,2.8,3.5,3.7
		c1.4,0.9,3,1.4,4.6,1.4S-248.8,437-247.4,436.1z M-251.6,428.4c0.1-0.1,0.1-0.2,0.1-0.4c0-0.2,0-0.3-0.1-0.4s-0.2-0.2-0.4-0.2
		c-0.9,0-1.6,0.3-2.3,1c-0.6,0.7-0.9,1.5-0.9,2.4c0,0.2,0,0.3,0.1,0.4s0.2,0.2,0.4,0.2c0.1,0,0.3-0.1,0.4-0.2
		c0.1-0.1,0.1-0.2,0.1-0.4c0-0.6,0.2-1.2,0.6-1.7s1-0.7,1.6-0.7C-251.9,428.6-251.7,428.5-251.6,428.4z M-242.7,431.6
		c0.1,0.3,0.2,0.5,0.2,0.8s-0.1,0.5-0.2,0.8c-1,1.7-2.3,3.1-4,4.2s-3.4,1.6-5.3,1.6s-3.6-0.5-5.3-1.6c-1.7-1-3-2.4-4-4.2
		c-0.1-0.3-0.2-0.5-0.2-0.8s0.1-0.5,0.2-0.8c1-1.7,2.3-3.1,4-4.2c1.7-1,3.4-1.6,5.3-1.6s3.6,0.5,5.3,1.6S-243.7,429.9-242.7,431.6z"
		/>
</g>
</svg>
