<?xml version="1.0" encoding="utf-8"?>
<!-- Generator: Adobe Illustrator 19.0.0, SVG Export Plug-In . SVG Version: 6.00 Build 0)  -->
<svg version="1.1" id="Capa_1" xmlns="http://www.w3.org/2000/svg" xmlns:xlink="http://www.w3.org/1999/xlink" x="0px" y="0px"
	 viewBox="113 393.9 56 56" style="enable-background:new 113 393.9 56 56;" xml:space="preserve">
<style type="text/css">
	.st0{opacity:0.9961;fill:#F7A812;}
</style>
<path id="XMLID_93_" class="st0" d="M143.9,424.6c0,2.2-2,3.6-3.9,2.8c-1.1-0.4-1.9-1.4-1.9-2.6c0-6,0-12,0-18
	c0-1.6,1.3-2.8,2.9-2.8c1.6,0,3,1.1,3,2.7c0.1,3,0,6,0,9.1h0C143.9,418.8,144,421.7,143.9,424.6z M141,439.7c-1.6,0-2.9-1.4-2.9-3
	c0-1.6,1.4-2.9,3-2.9c1.6,0,2.9,1.4,2.9,3C143.9,438.4,142.6,439.8,141,439.7z M141,393.9c-15.5,0-28,12.5-28,28
	c0,15.5,12.5,28,28,28c15.5,0,28-12.5,28-28C169,406.4,156.5,393.9,141,393.9z"/>
</svg>
