<?xml version="1.0" encoding="utf-8"?>
<!-- Generator: Adobe Illustrator 19.0.0, SVG Export Plug-In . SVG Version: 6.00 Build 0)  -->
<svg version="1.1" id="Capa_1" xmlns="http://www.w3.org/2000/svg" xmlns:xlink="http://www.w3.org/1999/xlink" x="0px" y="0px"
	 viewBox="-305.1 368.8 104.1 104.1" style="enable-background:new -305.1 368.8 104.1 104.1;" xml:space="preserve">
<style type="text/css">
	.st0{fill:#A80521;}
</style>
<g>
	<path class="st0" d="M-252.1,428L-252.1,428l15.9,15.9l0.1,0.1c1,1,2.3,1.5,3.7,1.5c1.5,0,2.8-0.6,3.8-1.6c2-2.1,2-5.5-0.1-7.5
		l-15.9-15.9l15.9-15.9c1-1,1.5-2.3,1.5-3.7c0-1.4-0.5-2.7-1.5-3.7c-1-1-2.3-1.6-3.7-1.6s-2.7,0.6-3.7,1.6l-15.9,15.9l-15.9-15.9
		l-0.1-0.1c-1-1-2.3-1.5-3.7-1.5c-1.5,0-2.8,0.6-3.8,1.6c-1,1-1.5,2.4-1.5,3.8s0.6,2.7,1.6,3.7l15.9,15.9l-15.9,15.9
		c-1,1-1.5,2.3-1.5,3.7c0,1.4,0.5,2.7,1.5,3.7c1,1,2.3,1.6,3.7,1.6s2.7-0.6,3.7-1.6L-252.1,428L-252.1,428z M-253.1,473
		c-7,0-13.8-1.4-20.3-4.1c-6.2-2.6-11.8-6.4-16.6-11.2c-4.8-4.8-8.5-10.4-11.2-16.6c-2.7-6.4-4.1-13.2-4.1-20.3
		c0-7,1.4-13.8,4.1-20.3c2.6-6.2,6.4-11.8,11.2-16.6c4.8-4.8,10.4-8.5,16.6-11.2c6.4-2.7,13.2-4.1,20.3-4.1c7,0,13.8,1.4,20.3,4.1
		c6.2,2.6,11.8,6.4,16.6,11.2c4.8,4.8,8.5,10.4,11.2,16.6c2.7,6.4,4.1,13.2,4.1,20.3c0,7-1.4,13.8-4.1,20.3
		c-2.6,6.2-6.4,11.8-11.2,16.6c-4.8,4.8-10.4,8.5-16.6,11.2C-239.2,471.6-246,473-253.1,473z"/>
</g>
</svg>
