<?xml version="1.0" encoding="UTF-8"?>
<svg id="Capa_1" data-name="Capa 1" xmlns="http://www.w3.org/2000/svg" viewBox="0 0 55.69 33.28">
  <defs>
    <style>
      .cls-1 {
        fill: #d7d7d7;
        stroke-width: 0px;
      }
    </style>
  </defs>
  <path class="cls-1" d="M1.05,6.15l10.78,10.78L1.12,27.07c-1.44,1.37-1.51,3.65-.14,5.09,1.37,1.44,3.65,1.5,5.09.14l16.08-15.23L6.15,1.05c-1.41-1.41-3.69-1.41-5.09,0-1.41,1.41-1.41,3.69,0,5.09h0Z"/>
  <path class="cls-1" d="M17.82,6.15l10.78,10.78-10.71,10.14c-1.44,1.37-1.51,3.65-.14,5.09,1.37,1.44,3.65,1.5,5.09.14l16.08-15.23L22.91,1.05c-1.41-1.41-3.69-1.41-5.09,0-1.41,1.41-1.41,3.69,0,5.09h0Z"/>
  <path class="cls-1" d="M34.59,6.15l10.78,10.78-10.71,10.14c-1.44,1.37-1.5,3.65-.14,5.09,1.37,1.44,3.65,1.5,5.09.14l16.08-15.23L39.68,1.05c-1.41-1.41-3.69-1.41-5.09,0-1.41,1.41-1.41,3.69,0,5.09h0Z"/>
</svg>