<?xml version="1.0" encoding="utf-8"?>
<svg version="1.1" xmlns:xlink="http://www.w3.org/1999/xlink" width="14px" height="12px" xmlns="http://www.w3.org/2000/svg">
  <g transform="matrix(1 0 0 1 -5652 -541 )">
    <path d="M 7.92371937639198 10.0853365384615  C 7.97308834446919 10.0396634615385  7.99777282850779 9.98317307692308  7.99777282850779 9.91586538461539  L 7.99777282850779 8.54567307692308  C 7.99777282850779 8.47836538461538  7.97308834446919 8.421875  7.92371937639198 8.37620192307692  C 7.87435040831477 8.33052884615385  7.8158871566444 8.30769230769231  7.74832962138085 8.30769230769231  L 6.25167037861915 8.30769230769231  C 6.18411284335561 8.30769230769231  6.12564959168523 8.33052884615385  6.07628062360802 8.37620192307692  C 6.02691165553081 8.421875  6.0022271714922 8.47836538461538  6.0022271714922 8.54567307692308  L 6.0022271714922 9.91586538461539  C 6.0022271714922 9.98317307692308  6.02691165553081 10.0396634615385  6.07628062360802 10.0853365384615  C 6.12564959168523 10.1310096153846  6.18411284335561 10.1538461538462  6.25167037861915 10.1538461538462  L 7.74832962138085 10.1538461538462  C 7.8158871566444 10.1538461538462  7.87435040831477 10.1310096153846  7.92371937639198 10.0853365384615  Z M 7.90033407572383 7.33774038461539  C 7.94970304380104 7.30649038461538  7.97698589458055 7.26682692307692  7.98218262806236 7.21875  L 8.12249443207127 3.90865384615385  C 8.12249443207127 3.85096153846154  8.09651076466221 3.80528846153846  8.0445434298441 3.77163461538462  C 7.97698589458055 3.71875  7.91462509279881 3.69230769230769  7.85746102449889 3.69230769230769  L 6.14253897550111 3.69230769230769  C 6.08537490720119 3.69230769230769  6.02301410541945 3.71875  5.9554565701559 3.77163461538462  C 5.90348923533779 3.80528846153846  5.87750556792873 3.85576923076923  5.87750556792873 3.92307692307692  L 6.01002227171492 7.21875  C 6.01002227171492 7.26682692307692  6.03600593912398 7.30649038461538  6.08797327394209 7.33774038461539  C 6.13994060876021 7.36899038461538  6.20230141054195 7.38461538461539  6.2750556792873 7.38461538461539  L 7.71714922048998 7.38461538461539  C 7.78990348923534 7.38461538461539  7.85096510764662 7.36899038461538  7.90033407572383 7.33774038461539  Z M 7.50668151447661 0.129807692307693  C 7.66258351893096 0.216346153846154  7.78470675575353 0.334134615384615  7.87305122494432 0.483173076923078  L 13.8596881959911 10.6370192307692  C 14.0415738678545 10.9399038461538  14.0363771343727 11.2427884615385  13.8440979955457 11.5456730769231  C 13.7557535263549 11.6850961538462  13.6349294729027 11.7956730769231  13.4816258351893 11.8774038461538  C 13.3283221974759 11.9591346153846  13.1633259094284 12  12.9866369710468 12  L 1.01336302895323 12  C 0.836674090571641 12  0.671677802524128 11.9591346153846  0.51837416481069 11.8774038461538  C 0.365070527097253 11.7956730769231  0.244246473645137 11.6850961538462  0.155902004454343 11.5456730769231  C -0.03637713437268 11.2427884615385  -0.0415738678544915 10.9399038461538  0.140311804008909 10.6370192307692  L 6.12694877505568 0.483173076923078  C 6.21529324424647 0.334134615384615  6.33741648106904 0.216346153846154  6.49331848552339 0.129807692307693  C 6.64922048997773 0.0432692307692313  6.8181143281366 0  7 0  C 7.1818856718634 0  7.35077951002227 0.0432692307692313  7.50668151447661 0.129807692307693  Z " fill-rule="nonzero" fill="#a80521" stroke="none" transform="matrix(1 0 0 1 5652 541 )" />
  </g>
</svg>