<?xml version="1.0" encoding="utf-8"?>
<svg version="1.1" xmlns:xlink="http://www.w3.org/1999/xlink" width="22px" height="20px" xmlns="http://www.w3.org/2000/svg">
  <g>
    <path d="M 12.4515590200445 16.8088942307692  C 12.529138827023 16.7327724358974  12.5679287305122 16.6386217948718  12.5679287305122 16.5264423076923  L 12.5679287305122 14.2427884615385  C 12.5679287305122 14.130608974359  12.529138827023 14.0364583333333  12.4515590200445 13.9603365384615  C 12.3739792130661 13.8842147435897  12.2821083890126 13.8461538461538  12.1759465478842 13.8461538461538  L 9.82405345211581 13.8461538461538  C 9.71789161098738 13.8461538461538  9.62602078693393 13.8842147435897  9.54844097995546 13.9603365384615  C 9.47086117297698 14.0364583333333  9.43207126948775 14.130608974359  9.43207126948775 14.2427884615385  L 9.43207126948775 16.5264423076923  C 9.43207126948775 16.6386217948718  9.47086117297698 16.7327724358974  9.54844097995546 16.8088942307692  C 9.62602078693393 16.885016025641  9.71789161098738 16.9230769230769  9.82405345211581 16.9230769230769  L 12.1759465478842 16.9230769230769  C 12.2821083890126 16.9230769230769  12.3739792130661 16.885016025641  12.4515590200445 16.8088942307692  Z M 12.4148106904232 12.2295673076923  C 12.4923904974016 12.177483974359  12.5352635486266 12.1113782051282  12.543429844098 12.03125  L 12.7639198218263 6.51442307692308  C 12.7639198218263 6.41826923076923  12.7230883444692 6.34214743589743  12.641425389755 6.28605769230769  C 12.5352635486266 6.19791666666667  12.4372680029696 6.15384615384615  12.347438752784 6.15384615384615  L 9.65256124721603 6.15384615384615  C 9.56273199703044 6.15384615384615  9.46473645137342 6.19791666666667  9.35857461024499 6.28605769230769  C 9.27691165553081 6.34214743589743  9.23608017817372 6.42628205128205  9.23608017817372 6.53846153846154  L 9.44432071269488 12.03125  C 9.44432071269488 12.1113782051282  9.48515219005197 12.177483974359  9.56681514476615 12.2295673076923  C 9.64847809948033 12.2816506410256  9.74647364513734 12.3076923076923  9.86080178173719 12.3076923076923  L 12.1269487750557 12.3076923076923  C 12.2412769116555 12.3076923076923  12.3372308834447 12.2816506410256  12.4148106904232 12.2295673076923  Z M 11.7962138084633 0.216346153846154  C 12.0412026726058 0.360576923076923  12.2331106161841 0.556891025641024  12.3719376391982 0.805288461538463  L 21.7795100222717 17.7283653846154  C 22.0653303637713 18.2331730769231  22.0571640682999 18.7379807692308  21.7550111358575 19.2427884615385  C 21.6161841128434 19.4751602564103  21.4263177431329 19.6594551282051  21.1854120267261 19.7956730769231  C 20.9445063103192 19.931891025641  20.6852264291017 20  20.4075723830735 20  L 1.5924276169265 20  C 1.31477357089829 20  1.05549368968077 19.931891025641  0.814587973273942 19.7956730769231  C 0.573682256867112 19.6594551282051  0.383815887156644 19.4751602564103  0.244988864142539 19.2427884615385  C -0.0571640682999258 18.7379807692308  -0.0653303637713437 18.2331730769231  0.220489977728285 17.7283653846154  L 9.62806236080178 0.805288461538463  C 9.76688938381589 0.556891025641024  9.95879732739421 0.360576923076923  10.2037861915367 0.216346153846154  C 10.4487750556793 0.0721153846153855  10.7141796585004 0  11 0  C 11.2858203414996 0  11.5512249443207 0.0721153846153855  11.7962138084633 0.216346153846154  Z " fill-rule="nonzero" fill="#a80521" stroke="none" />
  </g>
</svg>