<?xml version="1.0" encoding="utf-8"?>
<svg version="1.1" xmlns:xlink="http://www.w3.org/1999/xlink" width="13px" height="13px" xmlns="http://www.w3.org/2000/svg">
  <g transform="matrix(1 0 0 1 -884 -725 )">
    <path d="M 7.50716145833333 10.7571614583333  C 7.55794270833333 10.7063802083333  7.58333333333333 10.6414930555556  7.58333333333333 10.5625  L 7.58333333333333 8.9375  C 7.58333333333333 8.85850694444444  7.55794270833333 8.79361979166667  7.50716145833333 8.74283854166667  C 7.45638020833333 8.69205729166667  7.39149305555556 8.66666666666667  7.3125 8.66666666666667  L 5.6875 8.66666666666667  C 5.60850694444444 8.66666666666667  5.54361979166667 8.69205729166667  5.49283854166667 8.74283854166667  C 5.44205729166667 8.79361979166667  5.41666666666667 8.85850694444444  5.41666666666667 8.9375  L 5.41666666666667 10.5625  C 5.41666666666667 10.6414930555556  5.44205729166667 10.7063802083333  5.49283854166667 10.7571614583333  C 5.54361979166667 10.8079427083333  5.60850694444444 10.8333333333333  5.6875 10.8333333333333  L 7.3125 10.8333333333333  C 7.39149305555556 10.8333333333333  7.45638020833333 10.8079427083333  7.50716145833333 10.7571614583333  Z M 9.64420572916667 5.560546875  C 9.71473524305556 5.35177951388889  9.75 5.12326388888889  9.75 4.875  C 9.75 4.37847222222222  9.59342447916667 3.91861979166667  9.2802734375 3.49544270833333  C 8.96712239583333 3.072265625  8.57638888888889 2.74500868055555  8.10807291666667 2.513671875  C 7.63975694444444 2.28233506944444  7.16015625 2.16666666666667  6.66927083333333 2.16666666666667  C 5.29817708333333 2.16666666666667  4.25151909722222 2.767578125  3.529296875 3.96940104166667  C 3.44466145833333 4.10481770833333  3.46723090277778 4.22330729166667  3.59700520833333 4.32486979166667  L 4.71419270833333 5.17122395833333  C 4.75368923611111 5.205078125  4.80729166666667 5.22200520833333  4.875 5.22200520833333  C 4.96527777777778 5.22200520833333  5.03580729166667 5.18815104166667  5.08658854166667 5.12044270833333  C 5.38563368055556 4.73676215277778  5.62825520833333 4.47721354166667  5.814453125 4.341796875  C 6.00629340277778 4.20638020833333  6.24891493055556 4.138671875  6.54231770833333 4.138671875  C 6.81315104166667 4.138671875  7.05436197916667 4.21202256944444  7.26595052083333 4.35872395833333  C 7.4775390625 4.50542534722222  7.58333333333333 4.671875  7.58333333333333 4.85807291666667  C 7.58333333333333 5.07248263888889  7.52690972222222 5.24457465277778  7.4140625 5.37434895833333  C 7.30121527777778 5.50412326388889  7.109375 5.63107638888889  6.83854166666667 5.75520833333333  C 6.48307291666667 5.91319444444444  6.1572265625 6.1572265625  5.86100260416667 6.4873046875  C 5.56477864583333 6.8173828125  5.41666666666667 7.17144097222222  5.41666666666667 7.54947916666667  L 5.41666666666667 7.85416666666667  C 5.41666666666667 7.93315972222222  5.44205729166667 7.998046875  5.49283854166667 8.048828125  C 5.54361979166667 8.099609375  5.60850694444444 8.125  5.6875 8.125  L 7.3125 8.125  C 7.39149305555556 8.125  7.45638020833333 8.099609375  7.50716145833333 8.048828125  C 7.55794270833333 7.998046875  7.58333333333333 7.93315972222222  7.58333333333333 7.85416666666667  C 7.58333333333333 7.74696180555556  7.64398871527778 7.60731336805556  7.76529947916667 7.43522135416667  C 7.88661024305556 7.26312934027778  8.04036458333333 7.12348090277778  8.2265625 7.01627604166667  C 8.40711805555556 6.91471354166667  8.54535590277778 6.83430989583333  8.64127604166667 6.77506510416667  C 8.73719618055556 6.7158203125  8.86697048611111 6.61707899305556  9.03059895833333 6.47884114583333  C 9.19422743055556 6.34060329861111  9.31976996527778 6.20518663194444  9.4072265625 6.07259114583333  C 9.49468315972222 5.93999565972222  9.57367621527778 5.76931423611111  9.64420572916667 5.560546875  Z M 12.1282552083333 3.2373046875  C 12.7094184027778 4.23318142361111  13 5.32074652777778  13 6.5  C 13 7.67925347222222  12.7094184027778 8.76681857638889  12.1282552083333 9.7626953125  C 11.5470920138889 10.7585720486111  10.7585720486111 11.5470920138889  9.7626953125 12.1282552083333  C 8.76681857638889 12.7094184027778  7.67925347222222 13  6.5 13  C 5.32074652777778 13  4.23318142361111 12.7094184027778  3.2373046875 12.1282552083333  C 2.24142795138889 11.5470920138889  1.45290798611111 10.7585720486111  0.871744791666667 9.7626953125  C 0.290581597222222 8.76681857638889  0 7.67925347222222  0 6.5  C 0 5.32074652777778  0.290581597222222 4.23318142361111  0.871744791666667 3.2373046875  C 1.45290798611111 2.24142795138889  2.24142795138889 1.45290798611111  3.2373046875 0.871744791666666  C 4.23318142361111 0.290581597222221  5.32074652777778 0  6.5 0  C 7.67925347222222 0  8.76681857638889 0.290581597222221  9.7626953125 0.871744791666666  C 10.7585720486111 1.45290798611111  11.5470920138889 2.24142795138889  12.1282552083333 3.2373046875  Z " fill-rule="nonzero" fill="#3366cc" stroke="none" transform="matrix(1 0 0 1 884 725 )" />
  </g>
</svg>