<?xml version="1.0" encoding="utf-8"?>
<svg version="1.1" xmlns:xlink="http://www.w3.org/1999/xlink" width="17px" height="17px" xmlns="http://www.w3.org/2000/svg">
  <g transform="matrix(1 0 0 1 -1175 -641 )">
    <path d="M 16.205382436260624 0  C 16.542492917847024 0  16.779272898961285 0.15696022727272796  16.9157223796034 0.470880681818182  C 17.052171860245515 0.8008996212121194  16.995986779981116 1.0826231060606046  16.747167138810198 1.316051136363636  L 10.811614730878187 7.26846590909091  L 10.811614730878187 16.227272727272727  C 10.811614730878187 16.56534090909091  10.655099150141643 16.802793560606062  10.342067988668557 16.939630681818183  C 10.237724268177526 16.979876893939394  10.137393767705383 17  10.041076487252125 17  C 9.824362606232295 17  9.643767705382437 16.9235321969697  9.49929178470255 16.77059659090909  L 6.4171388101983 13.6796875  C 6.264636449480642 13.526751893939393  6.188385269121813 13.345643939393938  6.188385269121813 13.136363636363637  L 6.188385269121813 7.26846590909091  L 0.2528328611898017 1.316051136363636  C 0.004013220018885738 1.0826231060606046  -0.052171860245514644 0.8008996212121194  0.08427762039660057 0.470880681818182  C 0.2207271010387158 0.15696022727272796  0.4575070821529745 0  0.7946175637393768 0  L 16.205382436260624 0  Z " fill-rule="nonzero" fill="#3366cc" stroke="none" transform="matrix(1 0 0 1 1175 641 )" />
  </g>
</svg>