<?xml version="1.0" encoding="utf-8"?>
<svg version="1.1" xmlns:xlink="http://www.w3.org/1999/xlink" width="18px" height="15px" xmlns="http://www.w3.org/2000/svg">
  <g transform="matrix(1 0 0 1 -1172 -3085 )">
    <path d="M 6.051897321428571 7.280730897009966  C 6.303013392857142 7.031561461794019  6.428571428571429 6.730897009966776  6.428571428571429 6.378737541528239  C 6.428571428571429 6.0265780730897  6.303013392857142 5.725913621262458  6.051897321428571 5.476744186046511  C 5.80078125 5.2275747508305646  5.497767857142857 5.102990033222591  5.142857142857142 5.102990033222591  C 4.787946428571429 5.102990033222591  4.4849330357142865 5.2275747508305646  4.233816964285714 5.476744186046511  C 3.9827008928571432 5.725913621262458  3.8571428571428568 6.0265780730897  3.8571428571428568 6.378737541528239  C 3.8571428571428568 6.730897009966776  3.9827008928571432 7.031561461794019  4.233816964285714 7.280730897009966  C 4.4849330357142865 7.529900332225913  4.787946428571429 7.6544850498338874  5.142857142857142 7.6544850498338874  C 5.497767857142857 7.6544850498338874  5.80078125 7.529900332225913  6.051897321428571 7.280730897009966  Z M 9.909040178571427 7.280730897009966  C 10.16015625 7.031561461794019  10.285714285714285 6.730897009966776  10.285714285714285 6.378737541528239  C 10.285714285714285 6.0265780730897  10.16015625 5.725913621262458  9.909040178571427 5.476744186046511  C 9.657924107142858 5.2275747508305646  9.354910714285715 5.102990033222591  9 5.102990033222591  C 8.645089285714286 5.102990033222591  8.342075892857144 5.2275747508305646  8.090959821428571 5.476744186046511  C 7.83984375 5.725913621262458  7.7142857142857135 6.0265780730897  7.7142857142857135 6.378737541528239  C 7.7142857142857135 6.730897009966776  7.83984375 7.031561461794019  8.090959821428571 7.280730897009966  C 8.342075892857144 7.529900332225913  8.645089285714286 7.6544850498338874  9 7.6544850498338874  C 9.354910714285715 7.6544850498338874  9.657924107142858 7.529900332225913  9.909040178571427 7.280730897009966  Z M 13.766183035714285 7.280730897009966  C 14.017299107142858 7.031561461794019  14.142857142857142 6.730897009966776  14.142857142857142 6.378737541528239  C 14.142857142857142 6.0265780730897  14.017299107142858 5.725913621262458  13.766183035714285 5.476744186046511  C 13.515066964285715 5.2275747508305646  13.212053571428573 5.102990033222591  12.857142857142858 5.102990033222591  C 12.502232142857144 5.102990033222591  12.19921875 5.2275747508305646  11.948102678571427 5.476744186046511  C 11.696986607142858 5.725913621262458  11.571428571428573 6.0265780730897  11.571428571428573 6.378737541528239  C 11.571428571428573 6.730897009966776  11.696986607142858 7.031561461794019  11.948102678571427 7.280730897009966  C 12.19921875 7.529900332225913  12.502232142857144 7.6544850498338874  12.857142857142858 7.6544850498338874  C 13.212053571428573 7.6544850498338874  13.515066964285715 7.529900332225913  13.766183035714285 7.280730897009966  Z M 16.794642857142858 3.174418604651162  C 17.598214285714285 4.1544850498338874  18 5.222591362126245  18 6.378737541528239  C 18 7.5348837209302335  17.598214285714285 8.60299003322259  16.794642857142858 9.583056478405316  C 15.991071428571427 10.56312292358804  14.899553571428573 11.337209302325581  13.520089285714285 11.90531561461794  C 12.140625000000002 12.473421926910298  10.633928571428571 12.757475083056478  9 12.757475083056478  C 8.263392857142858 12.757475083056478  7.556919642857144 12.69767441860465  6.880580357142858 12.578073089700997  C 5.722098214285715 13.727574750830565  4.265625 14.488372093023257  2.5111607142857144 14.86046511627907  C 2.162946428571429 14.926910299003323  1.875 14.970099667774088  1.6473214285714284 14.990033222591363  C 1.5669642857142856 14.996677740863788  1.4933035714285716 14.976744186046512  1.4263392857142856 14.930232558139535  C 1.3593750000000002 14.883720930232558  1.3158482142857144 14.82392026578073  1.2957589285714284 14.750830564784053  C 1.2689732142857142 14.651162790697674  1.3359375 14.528239202657808  1.4966517857142856 14.382059800664452  C 1.5301339285714286 14.348837209302326  1.6088169642857144 14.277408637873753  1.7327008928571428 14.167774086378738  C 1.8565848214285714 14.058139534883722  1.9419642857142858 13.980066445182725  1.9888392857142856 13.933554817275748  C 2.035714285714286 13.887043189368772  2.1143973214285716 13.802325581395348  2.224888392857143 13.679401993355482  C 2.3353794642857144 13.556478405315616  2.4157366071428568 13.451827242524919  2.465959821428571 13.365448504983389  C 2.5161830357142856 13.279069767441861  2.584821428571429 13.156146179401993  2.671875 12.996677740863788  C 2.7589285714285716 12.837209302325581  2.8258928571428577 12.677740863787374  2.8727678571428568 12.518272425249169  C 2.919642857142857 12.358803986710964  2.9681919642857144 12.167774086378737  3.018415178571429 11.945182724252492  C 3.0686383928571432 11.722591362126245  3.1104910714285716 11.48172757475083  3.1439732142857144 11.222591362126245  C 2.1662946428571432 10.624584717607974  1.3978794642857144 9.905315614617939  0.8387276785714286 9.064784053156146  C 0.27957589285714285 8.224252491694351  0 7.32890365448505  0 6.378737541528239  C 0 5.222591362126245  0.4017857142857143 4.1544850498338874  1.2053571428571428 3.174418604651162  C 2.0089285714285716 2.194352159468436  3.1004464285714284 1.4202657807308972  4.479910714285714 0.8521594684385386  C 5.859375000000001 0.2840531561461801  7.36607142857143 0  9 0  C 10.633928571428571 0  12.140625000000002 0.2840531561461801  13.520089285714285 0.8521594684385386  C 14.899553571428573 1.4202657807308972  15.991071428571427 2.194352159468436  16.794642857142858 3.174418604651162  Z " fill-rule="nonzero" fill="#3366cc" stroke="none" transform="matrix(1 0 0 1 1172 3085 )" />
  </g>
</svg>