<?xml version="1.0" encoding="utf-8"?>
<svg version="1.1" xmlns:xlink="http://www.w3.org/1999/xlink" width="13px" height="17px" xmlns="http://www.w3.org/2000/svg">
  <g transform="matrix(1 0 0 1 -133 -1186 )">
    <path d="M 3.611111111111111 5.40909090909091  L 3.611111111111111 7.727272727272728  L 9.38888888888889 7.727272727272728  L 9.38888888888889 5.40909090909091  C 9.38888888888889 4.555871212121211  9.106770833333334 3.827414772727272  8.542534722222223 3.22372159090909  C 7.978298611111112 2.62002840909091  7.297453703703705 2.318181818181818  6.5 2.318181818181818  C 5.702546296296297 2.318181818181818  5.021701388888888 2.62002840909091  4.457465277777778 3.22372159090909  C 3.893229166666667 3.827414772727272  3.611111111111111 4.555871212121211  3.611111111111111 5.40909090909091  Z M 12.684027777777777 8.06534090909091  C 12.894675925925927 8.290719696969697  13 8.564393939393938  13 8.886363636363637  L 13 15.840909090909092  C 13 16.16287878787879  12.894675925925927 16.43655303030303  12.684027777777777 16.661931818181817  C 12.473379629629632 16.887310606060606  12.217592592592593 17  11.916666666666666 17  L 1.0833333333333333 17  C 0.7824074074074076 17  0.5266203703703705 16.887310606060606  0.3159722222222222 16.661931818181817  C 0.10532407407407407 16.43655303030303  0 16.16287878787879  0 15.840909090909092  L 0 8.886363636363637  C 0 8.564393939393938  0.10532407407407407 8.290719696969697  0.3159722222222222 8.06534090909091  C 0.5266203703703705 7.839962121212121  0.7824074074074076 7.727272727272728  1.0833333333333333 7.727272727272728  L 1.4444444444444444 7.727272727272728  L 1.4444444444444444 5.40909090909091  C 1.4444444444444444 3.9280303030303014  1.940972222222222 2.65625  2.9340277777777777 1.59375  C 3.927083333333333 0.53125  5.115740740740741 0  6.5 0  C 7.8842592592592595 0  9.072916666666666 0.53125  10.065972222222223 1.59375  C 11.059027777777777 2.65625  11.555555555555555 3.9280303030303014  11.555555555555555 5.40909090909091  L 11.555555555555555 7.727272727272728  L 11.916666666666666 7.727272727272728  C 12.217592592592593 7.727272727272728  12.473379629629632 7.839962121212121  12.684027777777777 8.06534090909091  Z " fill-rule="nonzero" fill="#aaaaaa" stroke="none" transform="matrix(1 0 0 1 133 1186 )" />
  </g>
</svg>