<?xml version="1.0" encoding="UTF-8"?><svg id="Capa_1" xmlns="http://www.w3.org/2000/svg" viewBox="0 0 188.7 111.14"><defs><style>.cls-1{fill:#fff;}.cls-2{fill:#36c;}</style></defs><circle class="cls-2" cx="55.57" cy="55.57" r="55.57"/><path class="cls-1" d="M89.38,70.95c0,3.25-1.15,5.99-3.45,8.23l-5.96,5.92c-2.24,2.24-4.98,3.36-8.23,3.36s-6.03-1.15-8.27-3.45l-8.35-8.39c-2.24-2.24-3.37-4.98-3.37-8.23s1.19-6.15,3.57-8.47l-3.57-3.57c-2.32,2.38-5.14,3.57-8.43,3.57s-6-1.14-8.27-3.41l-8.44-8.43c-2.27-2.27-3.41-5.03-3.41-8.27s1.15-5.99,3.45-8.23l5.96-5.92c2.24-2.24,4.99-3.37,8.23-3.37s6.03,1.15,8.27,3.45l8.35,8.39c2.24,2.24,3.36,4.99,3.36,8.23s-1.19,6.15-3.57,8.47l3.57,3.57c2.32-2.38,5.14-3.57,8.44-3.57s6,1.14,8.27,3.41l8.43,8.44c2.27,2.27,3.41,5.03,3.41,8.27Zm-36.29-28.58c0-1.08-.38-2-1.14-2.76l-8.35-8.39c-.76-.75-1.68-1.14-2.76-1.14s-1.97,.37-2.76,1.1l-5.96,5.92c-.76,.76-1.14,1.66-1.14,2.72s.38,2,1.14,2.76l8.43,8.44c.73,.73,1.65,1.09,2.76,1.09s2.11-.42,2.92-1.26c-.08-.08-.34-.33-.77-.75-.43-.42-.72-.71-.87-.87-.15-.16-.35-.42-.61-.77s-.43-.69-.53-1.03c-.09-.34-.14-.71-.14-1.11,0-1.08,.38-2,1.14-2.76s1.67-1.14,2.76-1.14c.41,0,.78,.05,1.11,.14,.34,.09,.68,.27,1.03,.53s.61,.46,.77,.61c.16,.15,.45,.44,.87,.87,.42,.43,.67,.69,.75,.77,.89-.84,1.34-1.82,1.34-2.96Zm28.5,28.58c0-1.08-.38-2-1.14-2.76l-8.44-8.44c-.76-.76-1.68-1.14-2.76-1.14-1.14,0-2.11,.43-2.92,1.3,.08,.08,.34,.33,.77,.75s.72,.71,.87,.87c.15,.16,.35,.42,.61,.77,.25,.35,.43,.7,.53,1.03s.14,.71,.14,1.11c0,1.08-.38,2-1.14,2.76s-1.68,1.14-2.76,1.14c-.41,0-.78-.05-1.11-.14s-.68-.27-1.03-.53c-.35-.25-.61-.46-.77-.61s-.45-.44-.87-.87-.67-.69-.75-.77c-.89,.84-1.34,1.82-1.34,2.96s.38,2,1.14,2.76l8.35,8.39c.73,.73,1.65,1.09,2.76,1.09s2-.35,2.76-1.05l5.96-5.92c.76-.76,1.14-1.66,1.14-2.72Z"/><path class="cls-2" d="M130.51,40.74l6.06-6.03c.46-.46,1.01-.69,1.64-.69s1.18,.23,1.64,.69l19.4,19.4,19.4-19.4c.47-.46,1.01-.69,1.64-.69s1.18,.23,1.64,.69l6.06,6.03c.46,.46,.69,1.02,.69,1.66s-.23,1.2-.69,1.66l-27.1,27.07c-.47,.46-1.01,.69-1.64,.69s-1.18-.23-1.64-.69l-27.1-27.07c-.46-.46-.7-1.02-.7-1.66s.23-1.2,.7-1.66Z"/></svg>