<?xml version="1.0" encoding="utf-8"?>
<svg version="1.1" xmlns:xlink="http://www.w3.org/1999/xlink" width="19px" height="19px" xmlns="http://www.w3.org/2000/svg">
  <g transform="matrix(1 0 0 1 -1171 -628 )">
    <path d="M 13.5714285714286 4.07142857142857  L 17.9821428571429 4.07142857142857  C 18.264880952381 4.07142857142857  18.5052083333333 4.1703869047619  18.703125 4.36830357142857  C 18.9010416666667 4.56622023809524  19 4.80654761904762  19 5.08928571428572  L 19 17.9821428571429  C 19 18.264880952381  18.9010416666667 18.5052083333333  18.703125 18.703125  C 18.5052083333333 18.9010416666667  18.264880952381 19  17.9821428571429 19  L 7.80357142857143 19  C 7.52083333333333 19  7.28050595238095 18.9010416666667  7.08258928571429 18.703125  C 6.88467261904762 18.5052083333333  6.78571428571429 18.264880952381  6.78571428571429 17.9821428571429  L 6.78571428571429 14.9285714285714  L 1.01785714285714 14.9285714285714  C 0.735119047619048 14.9285714285714  0.494791666666667 14.8296130952381  0.296875 14.6316964285714  C 0.0989583333333333 14.4337797619048  0 14.1934523809524  0 13.9107142857143  L 0 6.78571428571428  C 0 6.50297619047619  0.0706845238095238 6.19196428571428  0.212053571428571 5.85267857142857  C 0.353422619047619 5.51339285714286  0.523065476190476 5.24479166666667  0.720982142857143 5.046875  L 5.046875 0.720982142857143  C 5.24479166666667 0.523065476190475  5.51339285714286 0.353422619047619  5.85267857142857 0.212053571428572  C 6.19196428571429 0.0706845238095246  6.50297619047619 0  6.78571428571429 0  L 11.1964285714286 0  C 11.4791666666667 0  11.719494047619 0.098958333333334  11.9174107142857 0.296875  C 12.1153273809524 0.494791666666666  12.2142857142857 0.735119047619047  12.2142857142857 1.01785714285714  L 12.2142857142857 4.49553571428572  C 12.6949404761905 4.21279761904762  13.1473214285714 4.07142857142857  13.5714285714286 4.07142857142857  Z M 12.2142857142857 9.5  L 12.2142857142857 6.32979910714286  L 9.04408482142857 9.5  L 12.2142857142857 9.5  Z M 5.42857142857143 5.42857142857143  L 5.42857142857143 2.25837053571428  L 2.25837053571429 5.42857142857143  L 5.42857142857143 5.42857142857143  Z M 6.99776785714286 9.92410714285714  C 7.13913690476191 9.58482142857143  7.30877976190476 9.31622023809524  7.50669642857143 9.11830357142857  L 10.8571428571429 5.76785714285714  L 10.8571428571429 1.35714285714286  L 6.78571428571429 1.35714285714286  L 6.78571428571429 5.76785714285714  C 6.78571428571429 6.05059523809524  6.68675595238095 6.29092261904762  6.48883928571429 6.48883928571428  C 6.29092261904762 6.68675595238095  6.05059523809524 6.78571428571428  5.76785714285714 6.78571428571428  L 1.35714285714286 6.78571428571428  L 1.35714285714286 13.5714285714286  L 6.78571428571429 13.5714285714286  L 6.78571428571429 10.8571428571429  C 6.78571428571429 10.5744047619048  6.85639880952381 10.2633928571429  6.99776785714286 9.92410714285714  Z M 8.14285714285714 17.6428571428571  L 17.6428571428571 17.6428571428571  L 17.6428571428571 5.42857142857143  L 13.5714285714286 5.42857142857143  L 13.5714285714286 9.83928571428571  C 13.5714285714286 10.1220238095238  13.4724702380952 10.3623511904762  13.2745535714286 10.5602678571429  C 13.0766369047619 10.7581845238095  12.8363095238095 10.8571428571429  12.5535714285714 10.8571428571429  L 8.14285714285714 10.8571428571429  L 8.14285714285714 17.6428571428571  Z " fill-rule="nonzero" fill="#3366cc" stroke="none" transform="matrix(1 0 0 1 1171 628 )" />
  </g>
</svg>