<?xml version="1.0" encoding="utf-8"?>
<svg version="1.1" xmlns:xlink="http://www.w3.org/1999/xlink" width="26px" height="19px" xmlns="http://www.w3.org/2000/svg">
  <g transform="matrix(1 0 0 1 -134 -835 )">
    <path d="M 25.633315593400745 10.5390625  C 25.877771864466915 10.656013257575756  26 10.849431818181818  26 11.119318181818182  C 26 11.398200757575756  25.857016143338655 11.695075757575756  25.571048430015964 12.009943181818182  L 20.92176689728579 17.35369318181818  C 20.525102004612386 17.8125  19.969309916622315 18.201586174242422  19.254390633315595 18.520951704545453  C 18.53947135000887 18.840317234848488  17.877594465141033 19  17.268759978712083 19  L 2.213943587014369 19  C 1.9003015788540003 19  1.6212524392407313 18.94152462121212  1.3767961681745609 18.824573863636363  C 1.1323398971083911 18.707623106060606  1.0101117615753061 18.514204545454547  1.0101117615753061 18.24431818181818  C 1.0101117615753061 17.965435606060606  1.1530956182366507 17.668560606060606  1.43906333155934 17.35369318181818  L 6.088344864289516 12.009943181818182  C 6.485009756962925 11.551136363636363  7.040801844952989 11.162050189393938  7.755721128259713 10.84268465909091  C 8.470640411566437 10.523319128787875  9.132517296434273 10.363636363636363  9.741351782863225 10  L 24.796168174560936 10  C 25.109810182721304 10.363636363636363  25.38885932233458 10.42211174242424  25.633315593400745 10.5390625  Z M 20.34060670569452 4.345170454545453  C 20.94944119212347 4.938920454545453  21.253858435337946 5.64962121212121  21.253858435337946 6.4772727272727275  L 21.253858435337946 9  L 9.741351782863225 9  C 8.874223877949264 8.636363636363637  7.965584530778784 8.850023674242426  7.015433741351782 9.27734375  C 6.065282951924783 9.704663825757574  5.30885222636154 10.2421875  4.746141564662054 10.889914772727273  L 0.08302288451303885 16.233664772727273  L 0.013837147418839808 16.31463068181818  C 0.013837147418839808 16.278645833333332  0.011530956182366508 16.222419507575758  0.006918573709419904 16.145951704545457  C 0.0023061912364733014 16.06948390151515  0 16.013257575757578  0 15.977272727272728  L 0 3.022727272727272  C 0 2.1950757575757547  0.3044172432144758 1.484375  0.9132517296434274 0.890625  C 1.5220862160723792 0.296875  2.2508426467979423 0  3.099521021820117 0  L 7.527408195848856 0  C 8.376086570871031 0  9.104843001596594 0.296875  9.713677488025546 0.890625  C 10.322511974454496 1.484375  10.626929217668973 2.1950757575757547  10.626929217668973 3.022727272727272  L 10.626929217668973 3.4545454545454537  L 18.15433741351783 3.4545454545454537  C 19.003015788540004 3.4545454545454537  19.731772219265565 3.7514204545454537  20.34060670569452 4.345170454545453  Z " fill-rule="nonzero" fill="#004884" stroke="none" transform="matrix(1 0 0 1 134 835 )" />
  </g>
</svg>