<?xml version="1.0" encoding="utf-8"?>
<svg version="1.1" xmlns:xlink="http://www.w3.org/1999/xlink" width="13px" height="17px" xmlns="http://www.w3.org/2000/svg">
  <g transform="matrix(1 0 0 1 -133 -1186 )">
    <path d="M 3.611111111111111 8.5  L 11.916666666666666 8.5  C 12.217592592592593 8.5  12.473379629629632 8.60329861111111  12.684027777777777 8.809895833333334  C 12.894675925925927 9.016493055555555  13 9.26736111111111  13 9.5625  L 13 15.9375  C 13 16.23263888888889  12.894675925925927 16.483506944444443  12.684027777777777 16.690104166666668  C 12.473379629629632 16.89670138888889  12.217592592592593 17  11.916666666666666 17  L 1.0833333333333333 17  C 0.7824074074074076 17  0.5266203703703705 16.89670138888889  0.3159722222222222 16.690104166666668  C 0.10532407407407407 16.483506944444443  0 16.23263888888889  0 15.9375  L 0 9.5625  C 0 9.26736111111111  0.10532407407407407 9.016493055555555  0.3159722222222222 8.809895833333334  C 0.5266203703703705 8.60329861111111  0.7824074074074076 8.5  1.0833333333333333 8.5  L 1.4444444444444444 8.5  L 1.4444444444444444 4.958333333333333  C 1.4444444444444444 3.5933159722222205  1.9390914351851856 2.425672743055553  2.9283854166666665 1.4554036458333326  C 3.9176793981481484 0.48513454861111216  5.108217592592593 0  6.5 0  C 7.891782407407408 0  9.082320601851851 0.48513454861111216  10.071614583333334 1.4554036458333326  C 11.060908564814817 2.425672743055553  11.555555555555555 3.5933159722222205  11.555555555555555 4.958333333333333  C 11.555555555555555 5.150173611111111  11.484085648148149 5.316189236111111  11.341145833333334 5.456380208333333  C 11.198206018518519 5.596571180555554  11.028935185185185 5.666666666666667  10.833333333333334 5.666666666666667  L 10.11111111111111 5.666666666666667  C 9.91550925925926 5.666666666666667  9.746238425925927 5.596571180555554  9.60329861111111 5.456380208333333  C 9.460358796296298 5.316189236111111  9.38888888888889 5.150173611111111  9.38888888888889 4.958333333333333  C 9.38888888888889 4.176215277777778  9.106770833333334 3.5084635416666674  8.542534722222223 2.955078125  C 7.978298611111112 2.4016927083333326  7.297453703703705 2.125  6.5 2.125  C 5.702546296296297 2.125  5.021701388888888 2.4016927083333326  4.457465277777778 2.955078125  C 3.893229166666667 3.5084635416666674  3.611111111111111 4.176215277777778  3.611111111111111 4.958333333333333  L 3.611111111111111 8.5  Z " fill-rule="nonzero" fill="#069169" stroke="none" fill-opacity="0.9882352941176471" transform="matrix(1 0 0 1 133 1186 )" />
  </g>
</svg>