<?xml version="1.0" encoding="utf-8"?>
<svg version="1.1" xmlns:xlink="http://www.w3.org/1999/xlink" width="348px" height="48px" xmlns="http://www.w3.org/2000/svg">
  <defs>
    <mask fill="white" id="clip3">
      <path d="M 0 48  L 0.5 24.5555555555555  L 0 0  L 335 0.0555555555555429  L 348 23.5555555555555  L 335 48  L 0 48  Z " fill-rule="evenodd" />
    </mask>
  </defs>
  <g transform="matrix(1 0 0 1 -109 -218 )">
    <path d="M 0 48  L 0.5 24.5555555555555  L 0 0  L 335 0.0555555555555429  L 348 23.5555555555555  L 335 48  L 0 48  Z " fill-rule="nonzero" fill="#f6f8f9" stroke="none" transform="matrix(1 0 0 1 109 218 )" />
    <path d="M 0 48  L 0.5 24.5555555555555  L 0 0  L 335 0.0555555555555429  L 348 23.5555555555555  L 335 48  L 0 48  Z " stroke-width="2" stroke="#004884" fill="none" transform="matrix(1 0 0 1 109 218 )" mask="url(#clip3)" />
  </g>
</svg>