<?xml version="1.0" encoding="utf-8"?>
<svg version="1.1" xmlns:xlink="http://www.w3.org/1999/xlink" width="10px" height="9px" xmlns="http://www.w3.org/2000/svg">
  <g transform="matrix(1 0 0 1 -108 -898 )">
    <path d="M 5.6597995545657 7.56400240384615  C 5.69506310319228 7.52974759615385  5.71269487750557 7.48737980769231  5.71269487750557 7.43689903846154  L 5.71269487750557 6.40925480769231  C 5.71269487750557 6.35877403846154  5.69506310319228 6.31640625  5.6597995545657 6.28215144230769  C 5.62453600593912 6.24789663461539  5.58277654046028 6.23076923076923  5.53452115812918 6.23076923076923  L 4.46547884187082 6.23076923076923  C 4.41722345953972 6.23076923076923  4.37546399406088 6.24789663461539  4.3402004454343 6.28215144230769  C 4.30493689680772 6.31640625  4.28730512249443 6.35877403846154  4.28730512249443 6.40925480769231  L 4.28730512249443 7.43689903846154  C 4.28730512249443 7.48737980769231  4.30493689680772 7.52974759615385  4.3402004454343 7.56400240384615  C 4.37546399406088 7.59825721153846  4.41722345953972 7.61538461538462  4.46547884187082 7.61538461538462  L 5.53452115812918 7.61538461538462  C 5.58277654046028 7.61538461538462  5.62453600593912 7.59825721153846  5.6597995545657 7.56400240384615  Z M 5.64309576837416 5.50330528846154  C 5.67835931700074 5.47986778846154  5.69784706755754 5.45012019230769  5.70155902004454 5.4140625  L 5.80178173719376 2.93149038461538  C 5.80178173719376 2.88822115384615  5.78322197475872 2.85396634615385  5.74610244988864 2.82872596153846  C 5.69784706755754 2.7890625  5.65330363771344 2.76923076923077  5.61247216035635 2.76923076923077  L 4.38752783964365 2.76923076923077  C 4.34669636228656 2.76923076923077  4.30215293244247 2.7890625  4.25389755011136 2.82872596153846  C 4.21677802524128 2.85396634615385  4.19821826280624 2.89182692307692  4.19821826280624 2.94230769230769  L 4.29287305122494 5.4140625  C 4.29287305122494 5.45012019230769  4.31143281365999 5.47986778846154  4.34855233853007 5.50330528846154  C 4.38567186340015 5.52674278846154  4.43021529324425 5.53846153846154  4.48218262806236 5.53846153846154  L 5.51224944320713 5.53846153846154  C 5.56421677802524 5.53846153846154  5.60783221974759 5.52674278846154  5.64309576837416 5.50330528846154  Z M 5.3619153674833 0.0973557692307694  C 5.47327394209354 0.162259615384615  5.56050482553823 0.250600961538461  5.62360801781737 0.362379807692308  L 9.89977728285078 7.97776442307692  C 10.0296956198961 8.20492788461539  10.0259836674091 8.43209134615385  9.88864142538976 8.65925480769231  C 9.82553823311062 8.76382211538462  9.73923533778768 8.84675480769231  9.62973273942094 8.90805288461539  C 9.5202301410542 8.96935096153846  9.40237564959169 9  9.27616926503341 9  L 0.723830734966592 9  C 0.597624350408315 9  0.479769858945806 8.96935096153846  0.370267260579065 8.90805288461539  C 0.260764662212324 8.84675480769231  0.174461766889384 8.76382211538462  0.111358574610245 8.65925480769231  C -0.0259836674090572 8.43209134615385  -0.0296956198960653 8.20492788461539  0.100222717149221 7.97776442307692  L 4.37639198218263 0.362379807692308  C 4.43949517446177 0.250600961538461  4.52672605790646 0.162259615384615  4.6380846325167 0.0973557692307694  C 4.74944320712695 0.0324519230769235  4.87008166295471 0  5 0  C 5.12991833704529 0  5.25055679287305 0.0324519230769235  5.3619153674833 0.0973557692307694  Z " fill-rule="nonzero" fill="#a80521" stroke="none" transform="matrix(1 0 0 1 108 898 )" />
  </g>
</svg>