<?xml version="1.0" encoding="utf-8"?>
<svg version="1.1" xmlns:xlink="http://www.w3.org/1999/xlink" width="16px" height="10px" xmlns="http://www.w3.org/2000/svg">
  <g transform="matrix(1 0 0 1 -10 -8 )">
    <path d="M 11.8794642857143 7.83420138888889  C 13.0729166666667 7.13107638888889  14.0654761904762 6.18634259259259  14.8571428571429 5  C 13.952380952381 3.63425925925926  12.8184523809524 2.61284722222222  11.4553571428571 1.93576388888889  C 11.8184523809524 2.53761574074074  12 3.18865740740741  12 3.88888888888889  C 12 4.95949074074074  11.608630952381 5.87528935185185  10.8258928571429 6.63628472222222  C 10.0431547619048 7.39728009259259  9.10119047619048 7.77777777777778  8 7.77777777777778  C 6.89880952380952 7.77777777777778  5.95684523809524 7.39728009259259  5.17410714285714 6.63628472222222  C 4.39136904761905 5.87528935185185  4 4.95949074074074  4 3.88888888888889  C 4 3.18865740740741  4.18154761904762 2.53761574074074  4.54464285714286 1.93576388888889  C 3.18154761904762 2.61284722222222  2.04761904761905 3.63425925925926  1.14285714285714 5  C 1.93452380952381 6.18634259259259  2.92708333333333 7.13107638888889  4.12053571428571 7.83420138888889  C 5.3139880952381 8.53732638888889  6.60714285714286 8.88888888888889  8 8.88888888888889  C 9.39285714285714 8.88888888888889  10.6860119047619 8.53732638888889  11.8794642857143 7.83420138888889  Z M 8.30357142857143 1.96180555555556  C 8.38690476190476 1.88078703703704  8.42857142857143 1.78240740740741  8.42857142857143 1.66666666666667  C 8.42857142857143 1.55092592592593  8.38690476190476 1.4525462962963  8.30357142857143 1.37152777777778  C 8.2202380952381 1.29050925925926  8.11904761904762 1.25  8 1.25  C 7.25595238095238 1.25  6.61755952380952 1.50896990740741  6.08482142857143 2.02690972222222  C 5.55208333333333 2.54484953703704  5.28571428571429 3.16550925925926  5.28571428571429 3.88888888888889  C 5.28571428571429 4.00462962962963  5.32738095238095 4.10300925925926  5.41071428571429 4.18402777777778  C 5.49404761904762 4.2650462962963  5.5952380952381 4.30555555555556  5.71428571428571 4.30555555555556  C 5.83333333333333 4.30555555555556  5.93452380952381 4.2650462962963  6.01785714285714 4.18402777777778  C 6.10119047619048 4.10300925925926  6.14285714285714 4.00462962962963  6.14285714285714 3.88888888888889  C 6.14285714285714 3.3912037037037  6.32440476190476 2.96585648148148  6.6875 2.61284722222222  C 7.05059523809524 2.25983796296296  7.48809523809524 2.08333333333333  8 2.08333333333333  C 8.11904761904762 2.08333333333333  8.2202380952381 2.04282407407407  8.30357142857143 1.96180555555556  Z M 15.8214285714286 4.40104166666667  C 15.9404761904762 4.60358796296296  16 4.80324074074074  16 5  C 16 5.19675925925926  15.9404761904762 5.39641203703704  15.8214285714286 5.59895833333333  C 14.9880952380952 6.92997685185185  13.8675595238095 7.99623842592593  12.4598214285714 8.79774305555556  C 11.0520833333333 9.59924768518519  9.56547619047619 10  8 10  C 6.43452380952381 10  4.94791666666667 9.59780092592593  3.54017857142857 8.79340277777778  C 2.13244047619048 7.98900462962963  1.01190476190476 6.92418981481481  0.178571428571429 5.59895833333333  C 0.0595238095238095 5.39641203703704  0 5.19675925925926  0 5  C 0 4.80324074074074  0.0595238095238095 4.60358796296296  0.178571428571429 4.40104166666667  C 1.01190476190476 3.07581018518519  2.13244047619048 2.01099537037037  3.54017857142857 1.20659722222222  C 4.94791666666667 0.402199074074073  6.43452380952381 0  8 0  C 9.56547619047619 0  11.0520833333333 0.402199074074073  12.4598214285714 1.20659722222222  C 13.8675595238095 2.01099537037037  14.9880952380952 3.07581018518519  15.8214285714286 4.40104166666667  Z " fill-rule="nonzero" fill="#3366cc" stroke="none" transform="matrix(1 0 0 1 10 8 )" />
  </g>
</svg>