<?xml version="1.0" encoding="UTF-8"?>
<svg id="Capa_1" data-name="Capa 1" xmlns="http://www.w3.org/2000/svg" viewBox="0 0 55.69 60.74">
  <defs>
    <style>
      .cls-1 {
        fill: #ffab01;
      }
    </style>
  </defs>
  <g>
    <path class="cls-1" d="M1.05,33.61l10.78,10.78L1.12,54.53c-1.44,1.37-1.51,3.65-.14,5.09,1.37,1.44,3.65,1.5,5.09.14l16.08-15.23L6.15,28.52c-1.41-1.41-3.69-1.41-5.09,0-1.41,1.41-1.41,3.69,0,5.09h0Z"/>
    <path class="cls-1" d="M17.82,33.61l10.78,10.78-10.71,10.14c-1.44,1.37-1.51,3.65-.14,5.09,1.37,1.44,3.65,1.5,5.09.14l16.08-15.23-16.01-16.01c-1.41-1.41-3.69-1.41-5.09,0-1.41,1.41-1.41,3.69,0,5.09h0Z"/>
    <path class="cls-1" d="M34.59,33.61l10.78,10.78-10.71,10.14c-1.44,1.37-1.5,3.65-.14,5.09,1.37,1.44,3.65,1.5,5.09.14l16.08-15.23-16.01-16.01c-1.41-1.41-3.69-1.41-5.09,0-1.41,1.41-1.41,3.69,0,5.09h0Z"/>
  </g>
  <polygon class="cls-1" points="14.37 9.88 18.38 5.97 23.27 10.64 34.01 0 37.81 4.02 23.37 18.56 14.37 9.88"/>
</svg>