<?xml version="1.0" encoding="UTF-8"?>
<svg id="Capa_1" data-name="Capa 1" xmlns="http://www.w3.org/2000/svg" viewBox="0 0 36.83 39.28">
  <defs>
    <style>
      .cls-1 {
        fill: #a80521;
      }
    </style>
  </defs>
  <path class="cls-1" d="M22.1,2.45c0-1.36-1.1-2.45-2.45-2.45s-2.45,1.1-2.45,2.45v15.96c0,.68-.55,1.23-1.23,1.23s-1.23-.55-1.23-1.23V4.91c0-1.36-1.1-2.45-2.45-2.45s-2.45,1.1-2.45,2.45v20.87c0,.12,0,.24,0,.35l-4.64-4.42c-1.23-1.17-3.17-1.12-4.34.11s-1.12,3.17.11,4.34l8.62,8.21c3.31,3.15,7.7,4.91,12.27,4.91h1.47c7.46,0,13.5-6.05,13.5-13.5v-15.96c0-1.36-1.1-2.45-2.45-2.45s-2.45,1.1-2.45,2.45v8.59c0,.68-.55,1.23-1.23,1.23s-1.23-.55-1.23-1.23V4.91c0-1.36-1.1-2.45-2.45-2.45s-2.45,1.1-2.45,2.45v13.5c0,.68-.55,1.23-1.23,1.23s-1.23-.55-1.23-1.23V2.45Z"/>
</svg>