<?xml version="1.0" encoding="utf-8"?>
<!-- Generator: Adobe Illustrator 19.0.0, SVG Export Plug-In . SVG Version: 6.00 Build 0)  -->
<svg version="1.1" id="Capa_1" xmlns="http://www.w3.org/2000/svg" xmlns:xlink="http://www.w3.org/1999/xlink" x="0px" y="0px"
	 viewBox="-133 256.9 329 329" style="enable-background:new -133 256.9 329 329;" xml:space="preserve">
<style type="text/css">
	.st0{fill:#004883;}
</style>
<path class="st0" d="M61.6,421.7l128.1-128.1c8.3-8.3,8.3-21.8,0-30.1c-8.3-8.3-21.8-8.3-30.1,0L31.5,391.5L-96.6,263.4
	c-8.3-8.3-21.8-8.3-30.1,0c-8.3,8.3-8.3,21.8,0,30.1L1.4,421.7l-128.1,128.1c-8.3,8.3-8.3,21.8,0,30.1c4.2,4.2,9.6,6.2,15.1,6.2
	c5.5,0,10.9-2.1,15.1-6.2L31.5,451.8l128.1,128.1c4.2,4.2,9.6,6.2,15.1,6.2c5.5,0,10.9-2.1,15.1-6.2c8.3-8.3,8.3-21.8,0-30.1
	L61.6,421.7z"/>
</svg>
