<?xml version="1.0" encoding="UTF-8"?><svg id="Capa_1" xmlns="http://www.w3.org/2000/svg" viewBox="0 0 118.14 118.14"><defs><style>.cls-1{fill:#d7d7d7;}.cls-2{fill:#fff;stroke:#d7d7d7;stroke-miterlimit:10;stroke-width:7px;}</style></defs><circle class="cls-2" cx="59.07" cy="59.07" r="55.57"/><path class="cls-1" d="M89.39,59.2l-19.54,19.54h19.82c1.1,0,1.65,.55,1.65,1.65v5.51c0,1.1-.55,1.65-1.65,1.65H40.67c-1.84,0-3.39-.64-4.68-1.93l-13.21-13.21c-1.29-1.28-1.93-2.84-1.93-4.68s.64-3.39,1.93-4.68L58.02,27.82c1.28-1.28,2.84-1.93,4.68-1.93s3.39,.64,4.68,1.93l22.02,22.02c1.28,1.29,1.93,2.85,1.93,4.68s-.64,3.4-1.93,4.68Zm-41.7-8.67l-17.07,17.2,11.01,11.01h15.69l9.36-9.22-18.99-18.99Z"/></svg>