<?xml version="1.0" encoding="utf-8"?>
<svg version="1.1" xmlns:xlink="http://www.w3.org/1999/xlink" width="33px" height="26px" xmlns="http://www.w3.org/2000/svg">
  <g transform="matrix(1 0 0 1 -34 -186 )">
    <path d="M 6.896484375 19.0845170454545  C 7.01311383928571 19.2014678030303  7.07142857142857 19.3399621212121  7.07142857142857 19.5  L 7.07142857142857 20.6818181818182  C 7.07142857142857 20.8418560606061  7.01311383928571 20.9803503787879  6.896484375 21.0973011363636  C 6.77985491071429 21.2142518939394  6.64174107142857 21.2727272727273  6.48214285714286 21.2727272727273  L 5.30357142857143 21.2727272727273  C 5.14397321428572 21.2727272727273  5.005859375 21.2142518939394  4.88922991071429 21.0973011363636  C 4.77260044642857 20.9803503787879  4.71428571428571 20.8418560606061  4.71428571428571 20.6818181818182  L 4.71428571428571 19.5  C 4.71428571428571 19.3399621212121  4.77260044642857 19.2014678030303  4.88922991071429 19.0845170454545  C 5.005859375 18.9675662878788  5.14397321428572 18.9090909090909  5.30357142857143 18.9090909090909  L 6.48214285714286 18.9090909090909  C 6.64174107142857 18.9090909090909  6.77985491071429 18.9675662878788  6.896484375 19.0845170454545  Z M 6.896484375 14.3572443181818  C 7.01311383928571 14.4741950757576  7.07142857142857 14.6126893939394  7.07142857142857 14.7727272727273  L 7.07142857142857 15.9545454545455  C 7.07142857142857 16.1145833333333  7.01311383928571 16.2530776515151  6.896484375 16.3700284090909  C 6.77985491071429 16.4869791666667  6.64174107142857 16.5454545454545  6.48214285714286 16.5454545454545  L 5.30357142857143 16.5454545454545  C 5.14397321428572 16.5454545454545  5.005859375 16.4869791666667  4.88922991071429 16.3700284090909  C 4.77260044642857 16.2530776515151  4.71428571428571 16.1145833333333  4.71428571428571 15.9545454545455  L 4.71428571428571 14.7727272727273  C 4.71428571428571 14.6126893939394  4.77260044642857 14.4741950757576  4.88922991071429 14.3572443181818  C 5.005859375 14.2402935606061  5.14397321428572 14.1818181818182  5.30357142857143 14.1818181818182  L 6.48214285714286 14.1818181818182  C 6.64174107142857 14.1818181818182  6.77985491071429 14.2402935606061  6.896484375 14.3572443181818  Z M 6.896484375 9.62997159090909  C 7.01311383928571 9.74692234848485  7.07142857142857 9.88541666666666  7.07142857142857 10.0454545454545  L 7.07142857142857 11.2272727272727  C 7.07142857142857 11.3873106060606  7.01311383928571 11.5258049242424  6.896484375 11.6427556818182  C 6.77985491071429 11.7597064393939  6.64174107142857 11.8181818181818  6.48214285714286 11.8181818181818  L 5.30357142857143 11.8181818181818  C 5.14397321428572 11.8181818181818  5.005859375 11.7597064393939  4.88922991071429 11.6427556818182  C 4.77260044642857 11.5258049242424  4.71428571428571 11.3873106060606  4.71428571428571 11.2272727272727  L 4.71428571428571 10.0454545454545  C 4.71428571428571 9.88541666666666  4.77260044642857 9.74692234848485  4.88922991071429 9.62997159090909  C 5.005859375 9.51302083333333  5.14397321428572 9.45454545454546  5.30357142857143 9.45454545454546  L 6.48214285714286 9.45454545454546  C 6.64174107142857 9.45454545454546  6.77985491071429 9.51302083333333  6.896484375 9.62997159090909  Z M 28.1107700892857 19.0845170454545  C 28.2273995535714 19.2014678030303  28.2857142857143 19.3399621212121  28.2857142857143 19.5  L 28.2857142857143 20.6818181818182  C 28.2857142857143 20.8418560606061  28.2273995535714 20.9803503787879  28.1107700892857 21.0973011363636  C 27.994140625 21.2142518939394  27.8560267857143 21.2727272727273  27.6964285714286 21  L 10.0178571428571 21  C 9.85825892857143 21.2727272727273  9.72014508928572 21.2142518939394  9.603515625 21.0973011363636  C 9.48688616071429 20.9803503787879  9.42857142857143 20.8418560606061  9.42857142857143 20.6818181818182  L 9.42857142857143 19.5  C 9.42857142857143 19.3399621212121  9.48688616071429 19.2014678030303  9.603515625 19.0845170454545  C 9.72014508928572 18.9675662878788  9.85825892857143 18.9090909090909  10.0178571428571 19  L 27.6964285714286 19  C 27.8560267857143 18.9090909090909  27.994140625 18.9675662878788  28.1107700892857 19.0845170454545  Z M 28.1107700892857 14.3572443181818  C 28.2273995535714 14.4741950757576  28.2857142857143 14.6126893939394  28.2857142857143 14.7727272727273  L 28.2857142857143 15.9545454545455  C 28.2857142857143 16.1145833333333  28.2273995535714 16.2530776515151  28.1107700892857 16.3700284090909  C 27.994140625 16.4869791666667  27.8560267857143 16.5454545454545  27.6964285714286 16.5454545454545  L 10.0178571428571 16.5454545454545  C 9.85825892857143 16.5454545454545  9.72014508928572 16.4869791666667  9.603515625 16.3700284090909  C 9.48688616071429 16.2530776515151  9.42857142857143 16.1145833333333  9.42857142857143 15.9545454545455  L 9.42857142857143 14.7727272727273  C 9.42857142857143 14.6126893939394  9.48688616071429 14.4741950757576  9.603515625 14.3572443181818  C 9.72014508928572 14.2402935606061  9.85825892857143 14.1818181818182  10.0178571428571 14  L 27.6964285714286 14  C 27.8560267857143 14.1818181818182  27.994140625 14.2402935606061  28.1107700892857 14.3572443181818  Z M 28.1107700892857 9.62997159090909  C 28.2273995535714 9.74692234848485  28.2857142857143 9.88541666666666  28.2857142857143 10.0454545454545  L 28.2857142857143 11.2272727272727  C 28.2857142857143 11.3873106060606  28.2273995535714 11.5258049242424  28.1107700892857 11.6427556818182  C 27.994140625 11.7597064393939  27.8560267857143 11.8181818181818  27.6964285714286 12  L 10.0178571428571 12  C 9.85825892857143 11.8181818181818  9.72014508928572 11.7597064393939  9.603515625 11.6427556818182  C 9.48688616071429 11.5258049242424  9.42857142857143 11.3873106060606  9.42857142857143 11.2272727272727  L 9.42857142857143 10.0454545454545  C 9.42857142857143 9.88541666666666  9.48688616071429 9.74692234848485  9.603515625 9.62997159090909  C 9.72014508928572 9.51302083333333  9.85825892857143 9.45454545454546  10.0178571428571 9.45454545454546  L 27.6964285714286 9.45454545454546  C 27.8560267857143 9.45454545454546  27.994140625 9.51302083333333  28.1107700892857 9.62997159090909  Z M 30.4679129464286 23.4609375  C 30.5845424107143 23.3439867424242  30.6428571428571 23.2054924242424  30 23.0454545454545  L 30 7.68181818181818  C 30.6428571428571 7.5217803030303  30.5845424107143 7.38328598484848  30.4679129464286 7.26633522727273  C 30.3512834821429 7.14938446969697  30.2131696428571 7.09090909090909  30.0535714285714 7  L 2.94642857142857 7  C 2.78683035714286 7.09090909090909  2.64871651785714 7.14938446969697  2.53208705357143 7.26633522727273  C 2.41545758928571 7.38328598484848  2.35714285714286 7.5217803030303  3 7.68181818181818  L 3 23.0454545454545  C 2.35714285714286 23.2054924242424  2.41545758928571 23.3439867424242  2.53208705357143 23.4609375  C 2.64871651785714 23.5778882575758  2.78683035714286 23.6363636363636  2.94642857142857 23.6363636363636  L 30.0535714285714 23.6363636363636  C 30.2131696428571 23.6363636363636  30.3512834821429 23.5778882575758  30.4679129464286 23.4609375  Z M 32.1344866071429 0.867897727272726  C 32.7114955357143 1.44649621212121  33 2.14204545454546  33 2.95454545454546  L 33 23.0454545454545  C 33 23.8579545454545  32.7114955357143 24.5535037878788  32.1344866071429 25.1321022727273  C 31.5574776785714 25.7107007575758  30.8638392857143 26  30.0535714285714 26  L 2.94642857142857 26  C 2.13616071428571 26  1.44252232142857 25.7107007575758  0.865513392857143 25.1321022727273  C 0.288504464285714 24.5535037878788  0 23.8579545454545  0 23.0454545454545  L 0 2.95454545454546  C 0 2.14204545454546  0.288504464285714 1.44649621212121  0.865513392857143 0.867897727272726  C 1.44252232142857 0.289299242424239  2.13616071428571 0  2.94642857142857 0  L 30.0535714285714 0  C 30.8638392857143 0  31.5574776785714 0.289299242424239  32.1344866071429 0.867897727272726  Z " fill-rule="nonzero" fill="#004884" stroke="none" transform="matrix(1 0 0 1 34 186 )" />
  </g>
</svg>