<?xml version="1.0" encoding="utf-8"?>
<svg version="1.1" xmlns:xlink="http://www.w3.org/1999/xlink" width="22px" height="26px" xmlns="http://www.w3.org/2000/svg">
  <g>
    <path d="M 1.99375 0  L 20.00625 0  C 20.2697916666667 0  20.521875 0.0515532055518841  20.7625 0.154659616655652  C 21.140625 0.303591099361089  21.44140625 0.538444591319673  21.66484375 0.859220092531395  C 21.88828125 1.17999559374311  22 1.53513989865609  22 1.92465300727032  L 22 24.0753469927297  C 22 24.4648601013439  21.88828125 24.8200044062569  21.66484375 25.1407799074686  C 21.44140625 25.4615554086803  21.140625 25.6964089006389  20.7625 25.8453403833443  C 20.5447916666667 25.9369905265477  20.2927083333333 25.9828155981494  20.00625 25.9828155981494  C 19.45625 25.9828155981494  18.9807291666667 25.7995153117427  18.5796875 25.4329147389293  L 11 18.1467283542631  L 3.4203125 25.4329147389293  C 3.0078125 25.8109715796431  2.53229166666667 26  1.99375 26  C 1.73020833333333 26  1.478125 25.9484467944481  1.2375 25.8453403833443  C 0.859375 25.6964089006389  0.55859375 25.4615554086803  0.33515625 25.1407799074686  C 0.11171875 24.8200044062569  0 24.4648601013439  0 24.0753469927297  L 0 1.92465300727032  C 0 1.53513989865609  0.11171875 1.17999559374311  0.33515625 0.859220092531395  C 0.55859375 0.538444591319673  0.859375 0.303591099361089  1.2375 0.154659616655652  C 1.478125 0.0515532055518841  1.73020833333333 0  1.99375 0  Z " fill-rule="nonzero" fill="#3366cc" stroke="none" />
  </g>
</svg>