<?xml version="1.0" encoding="utf-8"?>
<svg version="1.1" xmlns:xlink="http://www.w3.org/1999/xlink" width="18px" height="18px" xmlns="http://www.w3.org/2000/svg">
  <g transform="matrix(1 0 0 1 -1124 -1102 )">
    <path d="M 13.5 8.35546875  C 13.75 8.49609375  13.875 8.7109375  13.875 9  C 13.875 9.2890625  13.75 9.50390625  13.5 9.64453125  L 7.125 13.39453125  C 7.0078125 13.46484375  6.8828125 13.5  6.75 13.5  C 6.625 13.5  6.5 13.46875  6.375 13.40625  C 6.125 13.2578125  6 13.0390625  6 12.75  L 6 5.25  C 6 4.9609375  6.125 4.7421875  6.375 4.59375  C 6.6328125 4.453125  6.8828125 4.45703125  7.125 4.60546875  L 13.5 8.35546875  Z M 14.51953125 12.19921875  C 15.08984375 11.22265625  15.375 10.15625  15.375 9  C 15.375 7.84375  15.08984375 6.77734375  14.51953125 5.80078125  C 13.94921875 4.82421875  13.17578125 4.05078125  12.19921875 3.48046875  C 11.22265625 2.91015625  10.15625 2.625  9 2.625  C 7.84375 2.625  6.77734375 2.91015625  5.80078125 3.48046875  C 4.82421875 4.05078125  4.05078125 4.82421875  3.48046875 5.80078125  C 2.91015625 6.77734375  2.625 7.84375  2.625 9  C 2.625 10.15625  2.91015625 11.22265625  3.48046875 12.19921875  C 4.05078125 13.17578125  4.82421875 13.94921875  5.80078125 14.51953125  C 6.77734375 15.08984375  7.84375 15.375  9 15.375  C 10.15625 15.375  11.22265625 15.08984375  12.19921875 14.51953125  C 13.17578125 13.94921875  13.94921875 13.17578125  14.51953125 12.19921875  Z M 16.79296875 4.482421875  C 17.59765625 5.861328125  18 7.3671875  18 9  C 18 10.6328125  17.59765625 12.138671875  16.79296875 13.517578125  C 15.98828125 14.896484375  14.896484375 15.98828125  13.517578125 16.79296875  C 12.138671875 17.59765625  10.6328125 18  9 18  C 7.3671875 18  5.861328125 17.59765625  4.482421875 16.79296875  C 3.103515625 15.98828125  2.01171875 14.896484375  1.20703125 13.517578125  C 0.40234375 12.138671875  0 10.6328125  0 9  C 0 7.3671875  0.40234375 5.861328125  1.20703125 4.482421875  C 2.01171875 3.103515625  3.103515625 2.01171875  4.482421875 1.20703125  C 5.861328125 0.402343749999998  7.3671875 0  9 0  C 10.6328125 0  12.138671875 0.402343749999998  13.517578125 1.20703125  C 14.896484375 2.01171875  15.98828125 3.103515625  16.79296875 4.482421875  Z " fill-rule="nonzero" fill="#3266cc" stroke="none" fill-opacity="0.996078431372549" transform="matrix(1 0 0 1 1124 1102 )" />
  </g>
</svg>