<svg xmlns="http://www.w3.org/2000/svg" width="40" height="40" viewBox="0 0 40 40">
  <g id="Grupo_5011" data-name="Grupo 5011" transform="translate(-1633 -668)">
    <g id="Grupo_5004" data-name="Grupo 5004" transform="translate(519 459)">
      <g id="Grupo_3874" data-name="Grupo 3874" transform="translate(61 -203)">
        <g id="Selection_Control_Radio_On_Focus" data-name="Selection Control / Radio / On / Focus" transform="translate(1053 412)">
          <circle id="Elipse_44" data-name="Elipse 44" cx="20" cy="20" r="20" fill="#325dae" opacity="0.1"/>
        </g>
      </g>
    </g>
    <g id="Grupo_5005" data-name="Grupo 5005" transform="translate(1 245)">
      <g id="Grupo_4259" data-name="Grupo 4259" transform="translate(1640 431)">
        <g id="Grupo_4258" data-name="Grupo 4258">
          <path id="Caminho_8749" data-name="Caminho 8749" d="M24.969,14.549V10.42l-3.385-.667a9.444,9.444,0,0,0-.736-1.771L22.736,5.15,19.819,2.233,16.987,4.121a9.44,9.44,0,0,0-1.771-.736L14.549,0H10.42L9.753,3.385a9.444,9.444,0,0,0-1.771.736L5.15,2.233,2.233,5.15,4.121,7.982a9.444,9.444,0,0,0-.736,1.771L0,10.42v4.129l3.385.667a9.446,9.446,0,0,0,.736,1.771L2.233,19.819,5.15,22.737l2.833-1.888a9.443,9.443,0,0,0,1.771.736l.667,3.385h4.129l.667-3.385a9.443,9.443,0,0,0,1.771-.736l2.833,1.888,2.917-2.917-1.888-2.833a9.445,9.445,0,0,0,.736-1.771Zm-4.115,5.084-1.221,1.221-2.6-1.732A8.521,8.521,0,0,1,13.958,20.4l-.612,3.107H11.623L11.011,20.4a8.522,8.522,0,0,1-3.077-1.278l-2.6,1.732L4.115,19.633l1.732-2.6A8.521,8.521,0,0,1,4.57,13.958l-3.107-.612V11.623l3.107-.612A8.528,8.528,0,0,1,5.847,7.934l-1.732-2.6L5.336,4.115l2.6,1.732A8.521,8.521,0,0,1,11.011,4.57l.612-3.107h1.723l.612,3.107a8.521,8.521,0,0,1,3.077,1.278l2.6-1.732,1.221,1.221-1.732,2.6A8.524,8.524,0,0,1,20.4,11.011l3.107.612v1.723l-3.107.612a8.518,8.518,0,0,1-1.278,3.077Z" fill="#2c5ab1"/>
        </g>
      </g>
      <g id="Grupo_4261" data-name="Grupo 4261" transform="translate(1497 288)">
        <g id="Grupo_4260" data-name="Grupo 4260" transform="translate(151 151)">
          <path id="Caminho_8750" data-name="Caminho 8750" d="M155.5,151a4.5,4.5,0,1,0,4.5,4.5A4.505,4.505,0,0,0,155.5,151Zm0,7.714a3.214,3.214,0,1,1,3.214-3.214A3.218,3.218,0,0,1,155.5,158.714Z" transform="translate(-151 -151)" fill="#2c5ab1"/>
        </g>
      </g>
    </g>
  </g>
</svg>
