<svg xmlns="http://www.w3.org/2000/svg" width="40" height="40" viewBox="0 0 40 40">
  <g id="Grupo_5012" data-name="Grupo 5012" transform="translate(-1679 -668)">
    <g id="Grupo_5008" data-name="Grupo 5008" transform="translate(0 -2)">
      <g id="Grupo_5006" data-name="Grupo 5006" transform="translate(1689 678)">
        <path id="Caminho_8821" data-name="Caminho 8821" d="M19.79,2.49H19.1V1.734a1.685,1.685,0,1,0-3.368,0v.755H14V1.734a1.685,1.685,0,1,0-3.368,0v.755H8.906V1.734a1.685,1.685,0,1,0-3.368,0v.755H4.654a2.684,2.684,0,0,0-2.68,2.68V20.3a2.684,2.684,0,0,0,2.68,2.68H19.79a2.683,2.683,0,0,0,2.68-2.68V5.169A2.683,2.683,0,0,0,19.79,2.49Zm-3.114-.756a.739.739,0,1,1,1.476,0V4.822a.739.739,0,1,1-1.476,0Zm-5.1,0a.739.739,0,1,1,1.476,0V4.822a.739.739,0,1,1-1.476,0Zm-5.1,0a.739.739,0,1,1,1.476,0V4.822a.739.739,0,1,1-1.476,0ZM20.893,20.305a1.1,1.1,0,0,1-1.1,1.1H4.654a1.1,1.1,0,0,1-1.1-1.1V6.431H20.893Z" transform="translate(-1.974)" fill="#5688e8"/>
        <rect id="Retângulo_673" data-name="Retângulo 673" width="2.898" height="2.579" transform="translate(2.996 9.224)" fill="#5688e8"/>
        <rect id="Retângulo_674" data-name="Retângulo 674" width="2.898" height="2.579" transform="translate(6.863 9.224)" fill="#5688e8"/>
        <rect id="Retângulo_675" data-name="Retângulo 675" width="2.898" height="2.579" transform="translate(10.734 9.224)" fill="#5688e8"/>
        <rect id="Retângulo_676" data-name="Retângulo 676" width="2.898" height="2.579" transform="translate(14.602 9.224)" fill="#5688e8"/>
        <rect id="Retângulo_677" data-name="Retângulo 677" width="2.898" height="2.577" transform="translate(2.996 12.666)" fill="#5688e8"/>
        <rect id="Retângulo_678" data-name="Retângulo 678" width="2.898" height="2.577" transform="translate(6.863 12.666)" fill="#5688e8"/>
        <rect id="Retângulo_679" data-name="Retângulo 679" width="2.898" height="2.577" transform="translate(10.734 12.666)" fill="#5688e8"/>
        <rect id="Retângulo_680" data-name="Retângulo 680" width="2.898" height="2.577" transform="translate(14.602 12.666)" fill="#5688e8"/>
        <rect id="Retângulo_681" data-name="Retângulo 681" width="2.898" height="2.577" transform="translate(2.996 16.106)" fill="#5688e8"/>
        <rect id="Retângulo_682" data-name="Retângulo 682" width="2.898" height="2.577" transform="translate(6.863 16.106)" fill="#5688e8"/>
        <rect id="Retângulo_683" data-name="Retângulo 683" width="2.898" height="2.577" transform="translate(10.734 16.106)" fill="#5688e8"/>
        <rect id="Retângulo_684" data-name="Retângulo 684" width="2.898" height="2.577" transform="translate(14.602 16.106)" fill="#5688e8"/>
      </g>
      <g id="Grupo_5007" data-name="Grupo 5007" transform="translate(626 258)">
        <g id="Selection_Control_Radio_On_Focus" data-name="Selection Control / Radio / On / Focus" transform="translate(1053 412)">
          <circle id="Elipse_44" data-name="Elipse 44" cx="20" cy="20" r="20" fill="#325dae" opacity="0.1"/>
        </g>
      </g>
    </g>
  </g>
</svg>
