<?xml version="1.0" encoding="utf-8"?>
<!-- Generator: Adobe Illustrator 28.0.0, SVG Export Plug-In . SVG Version: 6.00 Build 0)  -->
<svg version="1.1" id="Capa_1" xmlns="http://www.w3.org/2000/svg" xmlns:xlink="http://www.w3.org/1999/xlink" x="0px" y="0px"
	 viewBox="0 0 512 512" style="enable-background:new 0 0 512 512;" xml:space="preserve">
<style type="text/css">
	.st0{fill:#3366CC;}
</style>
<path class="st0" d="M8,64C8,28.7,36.7,0,72,0h160v128c0,17.7,14.3,32,32,32h128v144H184c-35.3,0-64,28.7-64,64v144H72
	c-35.3,0-64-28.7-64-64V64z M392,128H264V0L392,128z M184,352h32c30.9,0,56,25.1,56,56s-25.1,56-56,56h-16v32c0,8.8-7.2,16-16,16
	s-16-7.2-16-16v-48v-80C168,359.2,175.2,352,184,352z M216,432c13.3,0,24-10.7,24-24s-10.7-24-24-24h-16v48H216z M312,352h32
	c26.5,0,48,21.5,48,48v64c0,26.5-21.5,48-48,48h-32c-8.8,0-16-7.2-16-16V368C296,359.2,303.2,352,312,352z M344,480
	c8.8,0,16-7.2,16-16v-64c0-8.8-7.2-16-16-16h-16v96H344z M424,368c0-8.8,7.2-16,16-16h48c8.8,0,16,7.2,16,16s-7.2,16-16,16h-32v32
	h32c8.8,0,16,7.2,16,16s-7.2,16-16,16h-32v48c0,8.8-7.2,16-16,16s-16-7.2-16-16v-64V368z"/>
</svg>
