<?xml version="1.0" encoding="UTF-8"?><svg id="Capa_1" xmlns="http://www.w3.org/2000/svg" viewBox="0 0 62.4 51.93"><defs><style>.cls-1{fill:#d7d7d7;}.cls-2{fill:#36c;}</style></defs><path class="cls-1" d="M35.52,22.06l-8.56-4.94-8.56-4.94c-1.28-.74-2.88,.18-2.88,1.66v19.76c0,1.48,1.6,2.4,2.88,1.66l8.56-4.94,8.56-4.94c1.28-.74,1.28-2.59,0-3.33Z"/><polygon class="cls-2" points="24.54 37.91 31.03 31.6 38.91 39.13 56.27 21.96 62.4 28.44 39.09 51.93 24.54 37.91"/><path class="cls-1" d="M39,34.56l7.96-7.78c.14-1.04,.24-2.1,.24-3.19,0-6.51-2.65-12.43-6.91-16.69C36.03,2.65,30.11,0,23.6,0,17.09,0,11.17,2.65,6.91,6.91,2.65,11.17,0,17.09,0,23.6c0,6.51,2.65,12.43,6.91,16.69,4.26,4.27,10.18,6.91,16.69,6.91,1.68,0,3.32-.19,4.9-.53l-6.24-6.24c-4.14-.32-7.84-2.11-10.61-4.88-3.06-3.07-4.95-7.27-4.95-11.95,0-4.68,1.89-8.88,4.95-11.95,3.07-3.06,7.27-4.95,11.95-4.95,4.68,0,8.88,1.89,11.95,4.95,3.06,3.07,4.95,7.27,4.95,11.95,0,3.57-1.12,6.86-3.01,9.58l1.51,1.38Z"/></svg>