<svg xmlns="http://www.w3.org/2000/svg" width="40" height="40" viewBox="0 0 40 40">
  <g id="Grupo_5013" data-name="Grupo 5013" transform="translate(-1728 -668)">
    <g id="Grupo_5009" data-name="Grupo 5009" transform="translate(675 256)">
      <g id="Selection_Control_Radio_On_Focus" data-name="Selection Control / Radio / On / Focus" transform="translate(1053 412)">
        <circle id="Elipse_44" data-name="Elipse 44" cx="20" cy="20" r="20" fill="#325dae" opacity="0.1"/>
      </g>
    </g>
    <g id="email" transform="translate(1736 618)">
      <g id="Grupo_5001" data-name="Grupo 5001" transform="translate(0 61)">
        <path id="Caminho_8822" data-name="Caminho 8822" d="M22.079,61H2.127A2.131,2.131,0,0,0,0,63.127V77.311a2.131,2.131,0,0,0,2.127,2.127H22.079a2.131,2.131,0,0,0,2.127-2.127V63.127A2.131,2.131,0,0,0,22.079,61Zm-.294,1.418-9.637,9.637-9.72-9.637ZM1.418,77.017v-13.6l6.831,6.772Zm1,1,6.835-6.835,2.395,2.374a.709.709,0,0,0,1,0l2.335-2.335,6.8,6.8Zm20.367-1-6.8-6.8,6.8-6.8Z" transform="translate(0 -61)" fill="#037795"/>
      </g>
    </g>
  </g>
</svg>
