<svg xmlns="http://www.w3.org/2000/svg" width="40" height="40" viewBox="0 0 40 40">
  <g id="Grupo_5014" data-name="Grupo 5014" transform="translate(-1776 -668)">
    <g id="Selection_Control_Checkbox_On_Pressed" data-name="Selection Control / Checkbox / On / Pressed" transform="translate(1776 668)">
      <path id="Caminho_8714" data-name="Caminho 8714" d="M20,0A20,20,0,1,1,0,20,20,20,0,0,1,20,0Z" fill="#f05252" opacity="0.1"/>
    </g>
    <g id="Grupo_5010" data-name="Grupo 5010" transform="translate(-28 130)">
      <g id="garbage" transform="translate(1813 546)">
        <g id="Grupo_24" data-name="Grupo 24">
          <path id="Caminho_28" data-name="Caminho 28" d="M48.213,3.56H43.067V2.721A2.724,2.724,0,0,0,40.346,0H35.454a2.724,2.724,0,0,0-2.721,2.721V3.56H27.587a.687.687,0,0,0,0,1.373h1.241V21.064A3.677,3.677,0,0,0,32.5,24.736H43.3a3.677,3.677,0,0,0,3.672-3.672V4.933h1.241a.687.687,0,1,0,0-1.373ZM34.106,2.721a1.35,1.35,0,0,1,1.348-1.348h4.892a1.35,1.35,0,0,1,1.348,1.348V3.56H34.106ZM45.6,21.064a2.3,2.3,0,0,1-2.3,2.3H32.5a2.3,2.3,0,0,1-2.3-2.3V4.933H45.6V21.064Z" transform="translate(-26.9)" fill="#f15252"/>
        </g>
      </g>
      <g id="Grupo_3908" data-name="Grupo 3908" transform="translate(1)">
        <line id="Linha_52" data-name="Linha 52" y2="12" transform="translate(1819.395 554.5)" fill="none" stroke="#f15252" stroke-width="1"/>
        <line id="Linha_53" data-name="Linha 53" y2="12" transform="translate(1826.5 554.5)" fill="none" stroke="#f15252" stroke-width="1"/>
        <line id="Linha_54" data-name="Linha 54" y2="12" transform="translate(1822.948 554.5)" fill="none" stroke="#f15252" stroke-width="1"/>
      </g>
    </g>
  </g>
</svg>
