<?xml version="1.0" encoding="utf-8"?>
<svg version="1.1" xmlns:xlink="http://www.w3.org/1999/xlink" width="12px" height="12px" xmlns="http://www.w3.org/2000/svg">
  <g transform="matrix(1 0 0 1 -1972 -1410 )">
    <path d="M 9.296875 5  C 9.296875 5.135416666666666  9.247395833333334 5.252604166666666  9.1484375 5.3515625  L 5.8515625 8.6484375  C 5.752604166666667 8.747395833333332  5.635416666666667 8.796875  5.5 8.796875  C 5.364583333333334 8.796875  5.247395833333334 8.747395833333332  5.1484375 8.6484375  L 2.8515625 6.3515625  C 2.752604166666667 6.252604166666665  2.703125 6.135416666666665  2.703125 6  C 2.703125 5.864583333333334  2.752604166666667 5.747395833333334  2.8515625 5.6484375  L 3.6484375 4.8515625  C 3.747395833333334 4.752604166666666  3.864583333333334 4.703125  4 4.703125  C 4.135416666666667 4.703125  4.252604166666667 4.752604166666666  4.3515625 4.8515625  L 5.5 6  L 7.6484375 3.8515624999999996  C 7.747395833333334 3.752604166666666  7.864583333333334 3.703125  8 3.703125  C 8.135416666666668 3.703125  8.252604166666668 3.752604166666666  8.3515625 3.8515624999999996  L 9.1484375 4.6484375  C 9.247395833333334 4.747395833333333  9.296875 4.864583333333333  9.296875 5  Z M 9.6796875 8.1328125  C 10.059895833333334 7.481770833333332  10.25 6.770833333333334  10.25 6  C 10.25 5.229166666666666  10.059895833333334 4.518229166666666  9.6796875 3.8671875  C 9.299479166666668 3.216145833333332  8.783854166666668 2.700520833333332  8.1328125 2.3203125  C 7.481770833333334 1.9401041666666665  6.770833333333334 1.7500000000000004  6 1.7500000000000004  C 5.229166666666667 1.7500000000000004  4.518229166666667 1.9401041666666665  3.8671875 2.3203125  C 3.2161458333333335 2.700520833333332  2.7005208333333335 3.216145833333332  2.3203125 3.8671875  C 1.940104166666667 4.518229166666666  1.75 5.229166666666666  1.75 6  C 1.75 6.770833333333334  1.940104166666667 7.481770833333332  2.3203125 8.1328125  C 2.7005208333333335 8.783854166666664  3.2161458333333335 9.299479166666666  3.8671875 9.6796875  C 4.518229166666667 10.059895833333334  5.229166666666667 10.25  6 10.25  C 6.770833333333334 10.25  7.481770833333334 10.059895833333334  8.1328125 9.6796875  C 8.783854166666668 9.299479166666666  9.299479166666668 8.783854166666664  9.6796875 8.1328125  Z M 11.1953125 2.98828125  C 11.731770833333332 3.907552083333332  12 4.911458333333332  12 6  C 12 7.088541666666667  11.731770833333332 8.092447916666664  11.1953125 9.01171875  C 10.658854166666668 9.930989583333334  9.930989583333334 10.658854166666666  9.01171875 11.1953125  C 8.092447916666668 11.731770833333334  7.088541666666667 12  6 12  C 4.911458333333334 12  3.9075520833333335 11.731770833333334  2.98828125 11.1953125  C 2.069010416666667 10.658854166666666  1.3411458333333335 9.930989583333334  0.8046875 9.01171875  C 0.26822916666666663 8.092447916666664  0 7.088541666666667  0 6  C 0 4.911458333333332  0.26822916666666663 3.907552083333332  0.8046875 2.98828125  C 1.3411458333333335 2.0690104166666665  2.069010416666667 1.3411458333333321  2.98828125 0.8046874999999996  C 3.9075520833333335 0.26822916666666563  4.911458333333334 0  6 0  C 7.088541666666667 0  8.092447916666668 0.26822916666666563  9.01171875 0.8046874999999996  C 9.930989583333334 1.3411458333333321  10.658854166666668 2.0690104166666665  11.1953125 2.98828125  Z " fill-rule="nonzero" fill="#d7d7d7" stroke="none" transform="matrix(1 0 0 1 1972 1410 )" />
  </g>
</svg>