<?xml version="1.0" encoding="utf-8"?>
<!-- Generator: Adobe Illustrator 19.0.0, SVG Export Plug-In . SVG Version: 6.00 Build 0)  -->
<svg version="1.1" id="Layer_1" xmlns="http://www.w3.org/2000/svg" xmlns:xlink="http://www.w3.org/1999/xlink" x="0px" y="0px"
	 viewBox="-112 383.5 369.5 74.4" style="enable-background:new -112 383.5 369.5 74.4;" xml:space="preserve">
<style type="text/css">
	.st0{fill:#FFFFFF;}
</style>
<g id="XMLID_10_">
	<g id="XMLID_8_">
		<path id="XMLID_32_" class="st0" d="M-58,412l-1.1,0.7c-0.3-3.9-0.5-5.5-0.6-5.5h1.7l3.1-3.8l-4.6,2l-0.4,1.3l-4.5,3.4
			c0.1,0.8,0.4,3.4,0.2,5.9l1-0.7c0.4,18.6-8.1,25.6-8.1,25.6c-2.1-1-2.7-1.7-2.7-1.7c7.8-8.6,7.4-21.1,7.4-21.6l-0.8,0.5
			c0,0,0.3-4,0.1-5.8l-1.4,1.1c0-1.3-0.1-2.3-0.2-3.1c0.9,0.1,1.8-0.1,2.5-0.6c0.8-0.6,1.2-2.2,1.3-2.9c0.1-0.7,0-0.9-0.5-1.2
			c-0.4-0.3-1.3-1.1-1.7-1.5c0,0,0.7-0.3,2.5,0.5c1.9,0.9,3.3,0.5,4.9-1.9l-1.9,0.3l0.2-1.3c0,0,0.1,0,0.1,0.1
			c0.3,0.2,1.2,0.5,1.6,0.6s0.4,0,0.7,0.2c0.3,0.2,0.5,0.2,0.6,0.2c0,0,1.1,0.6,1.5,0c0,0,0.4,0.2,0.6,0.3c0.3,0.1,0.8,0.3,1,0.3
			s0.6,0.1,0.6,0.2c0.7,0.3,1.1,0.2,1.2,0s-0.4-0.7-0.8-1s-0.7-0.4-0.7-0.4c0.1-0.1,0.1-0.2-0.2-0.5c-0.3-0.3-1.1-0.7-1.1-0.7
			c0-0.2-1-0.8-1.5-1.3c-0.6-0.4-0.3-0.4-1-1c-0.6-0.6-3.4-2.9-4.8-3.9s-5.2-3.9-8.5-5s-5.2-0.8-6.6,0c-1.4,0.9-1,2-0.8,2.7
			c0.2,0.7,0.7,1.6,1,2.1c0.3,0.5,0.1,0.5-0.1,0.6c-0.1,0.1,0,0.3-0.1,0.3s-0.2,0.1-0.4,0.3c-0.1,0.1-0.3,0.2-0.6,0.2
			c-0.1-0.3,0.1-0.5,0.1-0.5c-0.2-0.1-0.6-0.2-0.6-0.2c0-0.1,0.2-0.2,0.2-0.2c-0.2-0.1-0.7,0-0.7,0c0.1-0.1,0.1-0.1,0.1-0.1
			c-0.4-0.1-0.8,0.2-1,0.4c-0.2-0.3-0.4-0.6-0.7-0.8c-0.3-0.2-0.4-0.6-0.7-0.9c0,0,0.2-0.3,0.1-0.7c-0.2-0.3-0.6-0.6-0.9-0.7
			c0,0,0.2-0.1,0.2-0.4s-0.3-0.4-0.5-0.3c-0.3,0.1-0.6,0.1-0.8,0.3c0,0-0.2,0-0.4,0c0.2-0.7,0.3-1.7-0.9-2.4c-1.4-0.9-3.3-1.1-6.6,0
			c-3.3,1.1-7.1,4-8.5,5s-4.2,3.2-4.8,3.9c-0.6,0.6-0.4,0.6-1,1s-1.5,1-1.5,1.3c0,0-0.8,0.4-1.1,0.7c-0.3,0.3-0.3,0.4-0.2,0.5
			c0,0-0.3,0.1-0.7,0.4s-0.9,0.9-0.8,1c0.1,0.2,0.5,0.3,1.2,0c0.1,0,0.5-0.2,0.6-0.2c0.2,0,0.7-0.2,1-0.3c0.2-0.1,0.6-0.3,0.6-0.3
			c0.4,0.6,1.5,0,1.5,0c0.1,0.1,0.4,0,0.6-0.2c0.3-0.2,0.3-0.1,0.7-0.2s1.3-0.4,1.6-0.6c0,0,0.1,0,0.1-0.1l0.2,1.3l-1.9-0.3
			c1.6,2.4,3,2.8,4.9,1.9c1.7-0.8,2.5-0.5,2.5-0.5c-0.4,0.4-1.3,1.2-1.7,1.5s-0.6,0.5-0.4,1.2c0.1,0.7,0.5,2.4,1.3,2.9
			c0.7,0.5,1.6,0.7,2.5,0.6c-0.1,0.7-0.2,1.8-0.2,3.1l-1.4-1.1c-0.2,1.9,0.1,5.8,0.1,5.8l-0.8-0.5c0,0.4-0.4,12.9,7.4,21.6
			c0,0-0.6,0.7-2.7,1.7c0,0-8.5-7-8.1-25.6l1,0.7c-0.2-2.5,0.1-5,0.2-5.9l-4.5-3.4l-0.4-1.3l-4.5-2l3.1,3.8h1.7
			c-0.1,0-0.3,1.5-0.6,5.5l-1-0.7l-0.5-1.3l-4.7-1.8l3.3,3.7l1.7-0.1c0,0-1.7,16.5,3.9,25.3c4.7,7.4,11.4,7.4,17.6,3.3
			c-0.2,0.7-1,2.9-3,6.8c0,0,1.2,0,2.5,0.2c0,0-0.3,1.1-0.4,1.4s-0.1,0.9,0.5,0.9s1.5,0.1,1.5,0.1s-0.1,0.8-0.1,1.2
			c0,0.6-0.1,0.8,2.1,0.9c2.3-0.1,2.2-0.3,2.1-0.9c0-0.4-0.1-1.2-0.1-1.2s0.8-0.1,1.5-0.1c0.6,0,0.7-0.6,0.5-0.9
			c-0.1-0.3-0.4-1.4-0.4-1.4c1.3-0.2,2.5-0.2,2.5-0.2c-2.1-3.9-2.8-6.1-3.1-6.8c6.2,4.1,13,4.1,17.6-3.3c5.6-8.9,3.9-25.3,3.9-25.3
			l1.7,0.1l3.3-3.7l-4.7,1.8L-58,412z M-79.8,402.5c0.2-0.8,0.3-1.5,0.5-1.4c0.2,0.1,0.5,0.1,0.6,0s0.1-0.2,0.2,0s0.6,0.4,0.9-0.2
			c0.3-0.6,0.2-0.3,0.3-0.1c0.1,0.2,0.4,0.3,0.7,0.1c0.3-0.2,0.5-0.4,0.8-0.5c0.2-0.1,0.2-0.1,0.3-0.3c0.1-0.2,0.3-0.3,0.3-0.5
			c0-0.1-0.1-0.3,0.1-0.4s0.3-0.2,0.5-0.1s0.2-0.1,0.3,0c0.1,0.1,0.2,0.1,0.3,0c0.1-0.1,0.2-0.3,0.3-0.1c0.1,0.2,0.4,0.3,0.5,0.2
			c0.1-0.1,0.1-0.1,0.2,0.1s0.4,0.3,0.7,0.3c0,0,0.3,0.4,0.7,0.4c0.4-0.1,0.5-0.3,0.5-0.5c0-0.3-0.1-1.1,0.1-0.9
			c0.3,0.2,0.2,0.1,0.3,0c0.1-0.1,0.2,0,0.3,0c0.1,0,0.1-0.2,0.3,0c0.2,0.2,0.2,0.3,0.4,0.4c0.2,0.1,0.3,0.1,0.5,0.3
			c0.2,0.2,0.5,0.5,0.8,0.3c0,0,0.2,0.3,0.5,0.3c0,0,0.5,0.6,0.8,0.5c0,0,0.5,0.2,0.7,0.2s0.2-0.1,0.3-0.1c0.1,0.1,0.1-0.2,0.2,0
			c0.2,0.2,0.5,0.5,0.6,0.5c0,0,0.4,0.4,0.8,0.4c0.3,0,0.4,0.1,0.5,0.1s0.1-0.1,0.2,0c0.2,0.2,0.5,0.2,0.7,0.2
			c0.2-0.1,0.3-0.1,0.4,0c0.1,0,0.1,0,0.2,0c-0.5,0.6-1.2,1.2-2.6,0.7c-1.7-0.5-2.3-0.3-2.6,0.1c-0.4,0.4-1.2,1.4-1.4,2.1
			c-0.2,0.7-0.1,1.2,1.2,2.7c0,0-1.7,0.1-3.9-0.6c-2.2-0.7-4.3-1-6.3,0c-0.4,0.2-0.7,0.3-1,0.5c-0.2-0.2-0.8-0.8-1-1.1
			c0,0,0.1-0.7,0.1-1.1c0-0.5,0-0.7-0.2-0.9C-79.7,403.7-79.9,403.4-79.8,402.5z M-70.9,409.8c-1,0.6-2.6,1.3-5.1,1.3
			c-1.9,0-3.4-0.4-4.4-0.9c0.4-0.3,2.1-1.2,4.2-1.3c2.5-0.1,3.5,0.3,4.7,0.7C-71.3,409.7-71.1,409.7-70.9,409.8z M-81.2,406.8
			c0-0.2,0.1-0.3,0.1-0.5l0,0c0.4,0.2,0.9,0.1,0.9,0.1c0.1,0.1,0.8,0.7,1,0.9c-0.6,0.3-1.2,0.7-1.7,1.1
			C-81,407.9-81.2,407.1-81.2,406.8z M-84.2,394.6c0.2,0.2,0.7,0.4,0.9,0.8c0,0.1,0.1,0.2,0.1,0.3c-0.3-0.1-0.6-0.1-0.8-0.1
			c-0.3-0.6-0.7-0.9-1.1-1.2C-84.7,394.5-84.4,394.4-84.2,394.6z M-86.2,394.4L-86.2,394.4c0.3,0.4,0.9,1.2,2,1.4
			c-0.1,0.1-0.2,0.1-0.2,0.2c-0.6-0.1-1-0.2-1.2-0.3c-0.2-0.2-0.2-0.3-0.4-0.3c-0.1,0,0-0.2-0.1-0.3
			C-86.3,394.9-86.5,394.9-86.2,394.4z M-86.6,401.3c0,0.3,0.1,0.6,0.3,0.9c0,0.1-0.1,0.1-0.1,0.2c-0.1-0.7-0.4-1.1-0.4-1.2
			C-86.8,401.3-86.7,401.3-86.6,401.3z M-97.5,407.1c1.3-1.5,1.4-2,1.2-2.7c-0.2-0.7-1-1.7-1.4-2.1s-0.9-0.6-2.6-0.1
			c-1.3,0.4-2-0.1-2.6-0.7c0.1,0,0.1,0,0.2,0c0.2,0,0.2,0,0.4,0c0.2,0.1,0.5,0,0.7-0.2c0.2-0.1,0.1,0,0.2,0s0.2-0.1,0.5-0.1
			c0.3,0,0.8-0.4,0.8-0.4c0.2,0.1,0.5-0.3,0.6-0.5c0.2-0.2,0.1,0.1,0.2,0s0.1,0.1,0.3,0.1c0.2,0,0.7-0.2,0.7-0.2
			c0.3,0.1,0.8-0.5,0.8-0.5c0.3,0,0.5-0.3,0.5-0.3c0.4,0.1,0.6-0.1,0.8-0.3c0.2-0.2,0.3-0.3,0.5-0.3c0.2-0.1,0.2-0.2,0.4-0.4
			c0.2-0.2,0.2,0,0.3,0s0.2-0.1,0.3,0c0.1,0.2,0.1,0.2,0.3,0c0.3-0.2,0.1,0.7,0.1,0.9c0,0.3,0.2,0.4,0.5,0.5
			c0.4,0.1,0.7-0.4,0.7-0.4c0.3,0.1,0.6-0.1,0.7-0.3c0.1-0.2,0.1-0.2,0.2-0.1s0.4,0.1,0.5-0.2c0.1-0.2,0.2,0,0.3,0.1s0.2,0.1,0.3,0
			s0.2,0.1,0.3,0c0.2-0.1,0.3,0,0.5,0.1c0.2,0.1,0.1,0.3,0.1,0.4s0.2,0.2,0.3,0.5c0.1,0.2,0.1,0.2,0.3,0.3c0.2,0.1,0.5,0.3,0.8,0.5
			c0.3,0.2,0.5,0.1,0.6-0.1c0,0.2,0.1,0.5,0.2,0.5c0.1,0,0.2-0.2,0.2-0.4c0.1,0.1,0.2,0.1,0.3,0.1c-0.1,0.1-0.8,1.6,0.1,3l0,0
			l0.1-0.1c0.1,0.9,0,1.1,0,1.1s-0.4,0.5-0.7,1.5c-2-0.9-4.1-0.6-6.2,0.1C-95.8,407.2-97.5,407.1-97.5,407.1z M-88.1,409
			c-0.3,0.8-0.6,1.5-1,2.2c-2.3-0.1-3.8-0.7-4.8-1.3c0.2-0.1,0.4-0.1,0.6-0.2c1.2-0.4,2.3-0.8,4.7-0.7
			C-88.4,408.9-88.2,409-88.1,409z M-95.4,410.1c0.2,0,0.4,0,0.6-0.1c0.6,0.6,2.4,2.1,5.8,2.1c4.4,0,6.6-2.1,6.6-2.1
			s2.2,2.1,6.6,2.1c3.4,0,5.1-1.4,5.8-2c0.2,0.1,0.4,0,0.6,0.1c0.5,4.4-0.3,10.6-0.3,10.6h-12.7H-95
			C-95,420.7-95.9,414.5-95.4,410.1z M-95,421.4h12.6h12.6c0,0-0.4,4.8-2.4,8.9h-10.2h-10.2C-94.6,426.3-95,421.4-95,421.4z
			 M-82.4,442.1c-7.6-5.5-9.8-11.1-9.8-11.1h9.8h9.8C-72.6,431-74.8,436.7-82.4,442.1z"/>
		<path id="XMLID_57_" class="st0" d="M-77.7,420.1c0.4,0,0.8-0.2,1.2-0.4c0.2,0.1,0.4,0.1,0.6,0.1c0.7,0,1.3-0.5,1.6-1.1
			c0.3,0,0.6,0,0.9-0.2c0.6-0.3,0.9-1.1,0.8-1.8l0.1-0.1c0.6-0.5,0.6-1.4,0-2.1c0,0,0,0-0.1-0.1c0.2-0.1,0.3-0.4,0.3-0.6
			c0-0.4-0.5-0.8-1-0.8s-1,0.3-1,0.8l0,0c0,0-0.3,0.1-0.5,0.3c-0.2,0.2-0.3,0.5-0.3,0.8c-0.1,0-0.1,0.1-0.2,0.1
			c-0.1,0.1-0.2,0.1-0.3,0.2c-0.1,0-0.3-0.1-0.4,0c-0.2,0-0.4,0-0.6,0.1c-0.3-0.2-0.7-0.4-1.2-0.4c-1.2,0-2.2,1.2-2.2,2.6
			C-79.9,419-78.9,420.1-77.7,420.1z"/>
		<path id="XMLID_58_" class="st0" d="M-92.1,416.6C-92.1,416.6-92.1,416.7-92.1,416.6c0,0.8,0.2,1.6,0.9,1.9
			c0.3,0.2,0.6,0.2,0.9,0.2c0.3,0.7,0.9,1.1,1.6,1.1c0.2,0,0.4,0,0.6-0.1c0.3,0.3,0.7,0.4,1.2,0.4c1.2,0,2.2-1.1,2.3-2.5
			c0-1.4-0.9-2.6-2.2-2.6c-0.4,0-0.8,0.1-1.2,0.4c-0.2-0.1-0.4-0.1-0.6-0.1c-0.1,0-0.3,0-0.4,0c-0.1-0.1-0.2-0.2-0.3-0.2
			s-0.2-0.1-0.3-0.1c0-0.3-0.1-0.6-0.3-0.8c-0.2-0.1-0.5-0.2-0.5-0.3l0,0c0-0.4-0.5-0.8-0.9-0.8c-0.5,0-0.9,0.3-0.9,0.8
			c0,0.2,0.1,0.4,0.3,0.6c0,0,0,0-0.1,0.1C-92.7,415.2-92.7,416.1-92.1,416.6z"/>
		<path id="XMLID_59_" class="st0" d="M-82.3,429.8l1-1.6l-0.2-0.8l0.8,0.1c0.1,0.3,0.3,0.7,0.6,0.8c0.3,0.1,0.9,0,0.9,0l0.3-0.4
			c-0.4-0.4-0.9-0.7-0.9-0.7c-0.1-2.2-0.5-3.7-0.8-4.5c-0.3-0.8-0.6-0.8-1.3-0.7c-0.7,0.1-2.6,1.2-2.6,1.2l-0.1,1.1l0.6,0.1
			c0,0-0.4,1.2-0.5,1.7c-0.1,0.4,0,0.4,0.2,0.6c0.2,0.2,1.1,0.4,1.1,0.4l-0.3,1.1L-82.3,429.8z"/>
		<path id="XMLID_62_" class="st0" d="M-84.8,415.9c0.4,2.2,1.8,2.4,2.3,2.4c0,0.8-0.1,1.4-0.1,1.4l0.7,0.5c0.1-0.9,0.1-1.6,0-2.2
			c1.7-0.2,2-2.7,2-2.7c-1.6,0.7-2,1.9-2,2.4c-0.1-0.9-0.3-1.4-0.4-1.6c1-0.1,1.9-1,1.9-2.1c0-0.6-0.3-1.1-0.7-1.5l0.3-0.6l-0.7,0.1
			l-0.3-0.6l-0.5,0.4l-0.3-0.4l-0.3,0.5l-0.6-0.4l0.2,0.6c-0.7,0.3-1.2,1.1-1.2,1.9c0,1,0.8,1.9,1.7,2.1c0.3,0.5,0.5,1.2,0.5,1.8
			C-83.4,416.3-84.8,415.9-84.8,415.9z M-82.5,416c-0.5,0-0.9-0.9-0.9-2s0.4-2,0.9-2s0.9,0.9,0.9,2C-81.6,415.1-82,416-82.5,416z"/>
		<path id="XMLID_63_" class="st0" d="M-80.7,433.7c-0.2-0.4-0.2-0.9,0-1.3h-2.5c-0.2,0.5-0.2,0.9,0,1.3H-80.7z"/>
		<path id="XMLID_64_" class="st0" d="M-83.2,436.9c-0.2,0.4-0.2,1.4,0,1.8h2.5c-0.2-0.5-0.2-1.4,0-1.8H-83.2z"/>
		<polygon id="XMLID_65_" class="st0" points="-80.1,435.1 -79.5,434.2 -83.4,434.2 -83.8,433.7 -84,433.7 -85.4,433.7 -85.2,434.2 
			-84.8,434.2 -84.4,435.1 		"/>
		<polygon id="XMLID_66_" class="st0" points="-80.1,439.2 -80.3,439.2 -80.9,439.2 -81.4,439.2 -82.1,439.2 -82.5,439.2 
			-83.2,439.2 -83.4,439.2 -83.6,438.7 -84.5,438.7 -84.2,439.2 -83.5,439.6 -80.2,439.6 -79.5,439.2 -79.4,438.7 -80,438.7 		"/>
		<path id="XMLID_67_" class="st0" d="M7.1,424.8h14.2v10.3c-4.1,3.4-8.1,4.5-12.4,4.5c-13.2,0-18.8-9-18.8-18.3
			c-0.1-10.8,6.8-19.7,18.8-19.7c4.7,0,10.1,1.9,13.7,5.5l5.1-5.2c-5.2-5.2-12.1-7.7-18.8-7.7c-17.4,0-26.8,12.5-26.8,27.2
			c0,13.5,8.1,26,26.8,26c8.6,0,14.9-3.3,20-8.9v-20.9H7.2v7.2H7.1z"/>
		<path id="XMLID_70_" class="st0" d="M61.5,394.1c-15.4,0-26.3,11.2-26.3,26.8c0,13.4,8.4,26.4,26.1,26.4s26.1-12.6,26.1-26.4
			C87.5,407,79,394.2,61.5,394.1z M61.4,439.8c-12.6,0-17.9-9.7-18-18.8c0-11.2,6.4-19.4,18.2-19.4c12.5,0.2,17.9,10,17.9,19.4
			C79.4,430.8,74.1,439.8,61.4,439.8z"/>
		<polygon id="XMLID_71_" class="st0" points="132,394.3 115.1,437.2 98.3,394.3 88.8,394.3 110.7,447.3 119.6,447.3 141.4,394.3 		
			"/>
		<path id="XMLID_72_" class="st0" d="M136.3,441.9c0,7.1,10.7,7.1,10.7,0C146.9,434.9,136.3,434.9,136.3,441.9z"/>
		<path id="XMLID_73_" class="st0" d="M179.3,439.6c-13.3,0-18.8-9.3-18.9-18.7c-0.1-9.4,5.9-19,18.9-19c4.8,0,9.6,1.7,13.3,5.3
			l5.5-5.3c-5.2-5.2-11.9-7.8-18.7-7.8c-18.3,0-27.1,13.4-27,26.9s8.4,26.3,27,26.3c7.2,0,14-2.4,19.3-7.6l-5.6-5.6
			C189.3,437.6,184.1,439.6,179.3,439.6z"/>
		<path id="XMLID_76_" class="st0" d="M231.7,394.3c-15.4,0-26.2,11.2-26.2,26.7c0,13.4,8.4,26.3,26.1,26.3s26.1-12.6,26.1-26.4
			C257.6,407.2,249.1,394.3,231.7,394.3z M231.5,439.8c-12.6,0-17.8-9.7-18-18.7c0-11.1,6.3-19.4,18.1-19.4
			c12.5,0.2,17.8,10,17.8,19.4C249.5,430.8,244.2,439.8,231.5,439.8z"/>
	</g>
	<rect id="XMLID_7_" x="-39.2" y="383.5" class="st0" width="5.7" height="31.9"/>
	<rect id="XMLID_6_" x="-39.2" y="415.4" class="st0" width="5.7" height="21.3"/>
	<rect id="XMLID_1_" x="-39.2" y="436.6" class="st0" width="5.7" height="21.3"/>
</g>
</svg>
