<?xml version="1.0" encoding="utf-8"?>
<!-- Generator: Adobe Illustrator 19.0.0, SVG Export Plug-In . SVG Version: 6.00 Build 0)  -->
<svg version="1.1" id="Layer_1" xmlns="http://www.w3.org/2000/svg" xmlns:xlink="http://www.w3.org/1999/xlink" x="0px" y="0px"
	 viewBox="30.3 383.7 369.5 74.4" style="enable-background:new 30.3 383.7 369.5 74.4;" xml:space="preserve">
<style type="text/css">
	.st0{fill:#FFFFFF;}
	.st1{fill:#FFD017;}
	.st2{fill:#1356A1;}
	.st3{fill:#E51D42;}
</style>
<g id="XMLID_10_">
	<g id="XMLID_8_">
		<path id="XMLID_32_" class="st0" d="M84.2,412.2l-1.1,0.7c-0.3-3.9-0.5-5.5-0.6-5.5l1.7,0l3.1-3.8l-4.6,2l-0.4,1.3l-4.5,3.4
			c0.1,0.8,0.4,3.4,0.2,5.9l1-0.7c0.4,18.6-8.1,25.6-8.1,25.6c-2.1-1-2.7-1.7-2.7-1.7c7.8-8.6,7.4-21.1,7.4-21.6l-0.8,0.5
			c0,0,0.3-4,0.1-5.8l-1.4,1.1c0-1.3-0.1-2.3-0.2-3.1c0.9,0.1,1.8-0.1,2.5-0.6c0.8-0.6,1.2-2.2,1.3-2.9c0.1-0.7,0-0.9-0.5-1.2
			c-0.4-0.3-1.3-1.1-1.7-1.5c0,0,0.7-0.3,2.5,0.5c1.9,0.9,3.3,0.5,4.9-1.9l-1.9,0.3l0.2-1.3c0,0,0.1,0,0.1,0.1
			c0.3,0.2,1.2,0.5,1.6,0.6c0.4,0.1,0.4,0,0.7,0.2c0.3,0.2,0.5,0.2,0.6,0.2c0,0,1.1,0.6,1.5,0c0,0,0.4,0.2,0.6,0.3
			c0.3,0.1,0.8,0.3,1,0.3c0.2,0,0.6,0.1,0.6,0.2c0.7,0.3,1.1,0.2,1.2,0c0.1-0.2-0.4-0.7-0.8-1c-0.4-0.3-0.7-0.4-0.7-0.4
			c0.1-0.1,0.1-0.2-0.2-0.5c-0.3-0.3-1.1-0.7-1.1-0.7c0-0.2-1-0.8-1.5-1.3c-0.6-0.4-0.3-0.4-1-1c-0.6-0.6-3.4-2.9-4.8-3.9
			c-1.4-1-5.2-3.9-8.5-5c-3.3-1.1-5.2-0.8-6.6,0c-1.4,0.9-1,2-0.8,2.7c0.2,0.7,0.7,1.6,1,2.1c0.3,0.5,0.1,0.5-0.1,0.6
			c-0.1,0.1,0,0.3-0.1,0.3c-0.1,0-0.2,0.1-0.4,0.3c-0.1,0.1-0.3,0.2-0.6,0.2c-0.1-0.3,0.1-0.5,0.1-0.5c-0.2-0.1-0.6-0.2-0.6-0.2
			c0-0.1,0.2-0.2,0.2-0.2c-0.2-0.1-0.7,0-0.7,0c0.1-0.1,0.1-0.1,0.1-0.1c-0.4-0.1-0.8,0.2-1,0.4c-0.2-0.3-0.4-0.6-0.7-0.8
			c-0.3-0.2-0.4-0.6-0.7-0.9c0,0,0.2-0.3,0.1-0.7c-0.2-0.3-0.6-0.6-0.9-0.7c0,0,0.2-0.1,0.2-0.4c0-0.3-0.3-0.4-0.5-0.3
			c-0.3,0.1-0.6,0.1-0.8,0.3c0,0-0.2,0-0.4,0c0.2-0.7,0.3-1.7-0.9-2.4c-1.4-0.9-3.3-1.1-6.6,0c-3.3,1.1-7.1,4-8.5,5
			c-1.4,1-4.2,3.2-4.8,3.9c-0.6,0.6-0.4,0.6-1,1c-0.6,0.4-1.5,1-1.5,1.3c0,0-0.8,0.4-1.1,0.7c-0.3,0.3-0.3,0.4-0.2,0.5
			c0,0-0.3,0.1-0.7,0.4c-0.4,0.3-0.9,0.9-0.8,1c0.1,0.2,0.5,0.3,1.2,0c0.1,0,0.5-0.2,0.6-0.2c0.2,0,0.7-0.2,1-0.3
			c0.2-0.1,0.6-0.3,0.6-0.3c0.4,0.6,1.5,0,1.5,0c0.1,0.1,0.4,0,0.6-0.2c0.3-0.2,0.3-0.1,0.7-0.2c0.4-0.1,1.3-0.4,1.6-0.6
			c0,0,0.1,0,0.1-0.1l0.2,1.3l-1.9-0.3c1.6,2.4,3,2.8,4.9,1.9c1.7-0.8,2.5-0.5,2.5-0.5c-0.4,0.4-1.3,1.2-1.7,1.5
			c-0.4,0.3-0.6,0.5-0.4,1.2c0.1,0.7,0.5,2.4,1.3,2.9c0.7,0.5,1.6,0.7,2.5,0.6c-0.1,0.7-0.2,1.8-0.2,3.1l-1.4-1.1
			c-0.2,1.9,0.1,5.8,0.1,5.8l-0.8-0.5c0,0.4-0.4,12.9,7.4,21.6c0,0-0.6,0.7-2.7,1.7c0,0-8.5-7-8.1-25.6l1,0.7
			c-0.2-2.5,0.1-5,0.2-5.9l-4.5-3.4l-0.4-1.3l-4.5-2l3.1,3.8l1.7,0c-0.1,0-0.3,1.5-0.6,5.5l-1-0.7l-0.5-1.3l-4.7-1.8l3.3,3.7
			l1.7-0.1c0,0-1.7,16.5,3.9,25.3c4.7,7.4,11.4,7.4,17.6,3.3c-0.2,0.7-1,2.9-3,6.8c0,0,1.2,0,2.5,0.2c0,0-0.3,1.1-0.4,1.4
			c-0.1,0.3-0.1,0.9,0.5,0.9c0.6,0,1.5,0.1,1.5,0.1s-0.1,0.8-0.1,1.2c0,0.6-0.1,0.8,2.1,0.9c2.3-0.1,2.2-0.3,2.1-0.9
			c0-0.4-0.1-1.2-0.1-1.2s0.8-0.1,1.5-0.1c0.6,0,0.7-0.6,0.5-0.9c-0.1-0.3-0.4-1.4-0.4-1.4c1.3-0.2,2.5-0.2,2.5-0.2
			c-2.1-3.9-2.8-6.1-3.1-6.8c6.2,4.1,13,4.1,17.6-3.3c5.6-8.9,3.9-25.3,3.9-25.3l1.7,0.1l3.3-3.7l-4.7,1.8L84.2,412.2z M62.4,402.7
			c0.2-0.8,0.3-1.5,0.5-1.4c0.2,0.1,0.5,0.1,0.6,0c0.1-0.1,0.1-0.2,0.2,0c0.1,0.2,0.6,0.4,0.9-0.2c0.3-0.6,0.2-0.3,0.3-0.1
			c0.1,0.2,0.4,0.3,0.7,0.1c0.3-0.2,0.5-0.4,0.8-0.5c0.2-0.1,0.2-0.1,0.3-0.3c0.1-0.2,0.3-0.3,0.3-0.5c0-0.1-0.1-0.3,0.1-0.4
			c0.2-0.1,0.3-0.2,0.5-0.1c0.2,0.1,0.2-0.1,0.3,0c0.1,0.1,0.2,0.1,0.3,0c0.1-0.1,0.2-0.3,0.3-0.1c0.1,0.2,0.4,0.3,0.5,0.2
			c0.1-0.1,0.1-0.1,0.2,0.1c0.1,0.2,0.4,0.3,0.7,0.3c0,0,0.3,0.4,0.7,0.4c0.4-0.1,0.5-0.3,0.5-0.5c0-0.3-0.1-1.1,0.1-0.9
			c0.3,0.2,0.2,0.1,0.3,0c0.1-0.1,0.2,0,0.3,0c0.1,0,0.1-0.2,0.3,0c0.2,0.2,0.2,0.3,0.4,0.4c0.2,0.1,0.3,0.1,0.5,0.3
			c0.2,0.2,0.5,0.5,0.8,0.3c0,0,0.2,0.3,0.5,0.3c0,0,0.5,0.6,0.8,0.5c0,0,0.5,0.2,0.7,0.2c0.2,0,0.2-0.1,0.3-0.1
			c0.1,0.1,0.1-0.2,0.2,0c0.2,0.2,0.5,0.5,0.6,0.5c0,0,0.4,0.4,0.8,0.4c0.3,0,0.4,0.1,0.5,0.1c0.1,0,0.1-0.1,0.2,0
			c0.2,0.2,0.5,0.2,0.7,0.2c0.2-0.1,0.3-0.1,0.4,0c0.1,0,0.1,0,0.2,0c-0.5,0.6-1.2,1.2-2.6,0.7c-1.7-0.5-2.3-0.3-2.6,0.1
			c-0.4,0.4-1.2,1.4-1.4,2.1c-0.2,0.7-0.1,1.2,1.2,2.7c0,0-1.7,0.1-3.9-0.6c-2.2-0.7-4.3-1-6.3,0c-0.4,0.2-0.7,0.3-1,0.5
			c-0.2-0.2-0.8-0.8-1-1.1c0,0,0.1-0.7,0.1-1.1c0-0.5,0-0.7-0.2-0.9C62.5,403.9,62.3,403.6,62.4,402.7z M71.3,410
			c-1,0.6-2.6,1.3-5.1,1.3c-1.9,0-3.4-0.4-4.4-0.9c0.4-0.3,2.1-1.2,4.2-1.3c2.5-0.1,3.5,0.3,4.7,0.7C70.9,409.9,71.1,409.9,71.3,410
			z M61,407c0-0.2,0.1-0.3,0.1-0.5c0,0,0,0,0,0c0.4,0.2,0.9,0.1,0.9,0.1c0.1,0.1,0.8,0.7,1,0.9c-0.6,0.3-1.2,0.7-1.7,1.1
			C61.2,408.1,61,407.3,61,407z M58,394.8c0.2,0.2,0.7,0.4,0.9,0.8c0,0.1,0.1,0.2,0.1,0.3c-0.3-0.1-0.6-0.1-0.8-0.1
			c-0.3-0.6-0.7-0.9-1.1-1.2C57.5,394.7,57.8,394.6,58,394.8z M56,394.6C56,394.6,56,394.6,56,394.6c0.3,0.4,0.9,1.2,2,1.4
			c-0.1,0.1-0.2,0.1-0.2,0.2c-0.6-0.1-1-0.2-1.2-0.3c-0.2-0.2-0.2-0.3-0.4-0.3c-0.1,0,0-0.2-0.1-0.3C55.9,395.1,55.7,395.1,56,394.6
			z M55.6,401.5c0,0.3,0.1,0.6,0.3,0.9c0,0.1-0.1,0.1-0.1,0.2c-0.1-0.7-0.4-1.1-0.4-1.2C55.4,401.5,55.5,401.5,55.6,401.5z
			 M44.7,407.3c1.3-1.5,1.4-2,1.2-2.7c-0.2-0.7-1-1.7-1.4-2.1c-0.4-0.4-0.9-0.6-2.6-0.1c-1.3,0.4-2-0.1-2.6-0.7c0.1,0,0.1,0,0.2,0
			c0.2,0,0.2,0,0.4,0c0.2,0.1,0.5,0,0.7-0.2c0.2-0.1,0.1,0,0.2,0c0.1,0,0.2-0.1,0.5-0.1c0.3,0,0.8-0.4,0.8-0.4
			c0.2,0.1,0.5-0.3,0.6-0.5c0.2-0.2,0.1,0.1,0.2,0c0.1-0.1,0.1,0.1,0.3,0.1c0.2,0,0.7-0.2,0.7-0.2c0.3,0.1,0.8-0.5,0.8-0.5
			c0.3,0,0.5-0.3,0.5-0.3c0.4,0.1,0.6-0.1,0.8-0.3c0.2-0.2,0.3-0.3,0.5-0.3c0.2-0.1,0.2-0.2,0.4-0.4c0.2-0.2,0.2,0,0.3,0
			c0.1,0,0.2-0.1,0.3,0c0.1,0.2,0.1,0.2,0.3,0c0.3-0.2,0.1,0.7,0.1,0.9c0,0.3,0.2,0.4,0.5,0.5c0.4,0.1,0.7-0.4,0.7-0.4
			c0.3,0.1,0.6-0.1,0.7-0.3c0.1-0.2,0.1-0.2,0.2-0.1c0.1,0.1,0.4,0.1,0.5-0.2c0.1-0.2,0.2,0,0.3,0.1c0.1,0.1,0.2,0.1,0.3,0
			c0.1-0.1,0.2,0.1,0.3,0c0.2-0.1,0.3,0,0.5,0.1c0.2,0.1,0.1,0.3,0.1,0.4c0,0.1,0.2,0.2,0.3,0.5c0.1,0.2,0.1,0.2,0.3,0.3
			c0.2,0.1,0.5,0.3,0.8,0.5c0.3,0.2,0.5,0.1,0.6-0.1c0,0.2,0.1,0.5,0.2,0.5c0.1,0,0.2-0.2,0.2-0.4c0.1,0.1,0.2,0.1,0.3,0.1
			c-0.1,0.1-0.8,1.6,0.1,3h0c0,0,0.1-0.1,0.1-0.1c0.1,0.9,0,1.1,0,1.1s-0.4,0.5-0.7,1.5c-2-0.9-4.1-0.6-6.2,0.1
			C46.4,407.4,44.7,407.3,44.7,407.3z M54.1,409.2c-0.3,0.8-0.6,1.5-1,2.2c-2.3-0.1-3.8-0.7-4.8-1.3c0.2-0.1,0.4-0.1,0.6-0.2
			c1.2-0.4,2.3-0.8,4.7-0.7C53.8,409.1,54,409.2,54.1,409.2z M46.8,410.3c0.2,0,0.4,0,0.6-0.1c0.6,0.6,2.4,2.1,5.8,2.1
			c4.4,0,6.6-2.1,6.6-2.1s2.2,2.1,6.6,2.1c3.4,0,5.1-1.4,5.8-2c0.2,0.1,0.4,0,0.6,0.1c0.5,4.4-0.3,10.6-0.3,10.6H59.8H47.2
			C47.2,420.9,46.3,414.7,46.8,410.3z M47.2,421.6h12.6h12.6c0,0-0.4,4.8-2.4,8.9H59.8H49.6C47.6,426.5,47.2,421.6,47.2,421.6z
			 M59.8,442.3c-7.6-5.5-9.8-11.1-9.8-11.1h9.8h9.8C69.6,431.2,67.4,436.9,59.8,442.3z"/>
		<path id="XMLID_57_" class="st0" d="M64.5,420.3c0.4,0,0.8-0.2,1.2-0.4c0.2,0.1,0.4,0.1,0.6,0.1c0.7,0,1.3-0.5,1.6-1.1
			c0.3,0,0.6,0,0.9-0.2c0.6-0.3,0.9-1.1,0.8-1.8c0,0,0.1-0.1,0.1-0.1c0.6-0.5,0.6-1.4,0-2.1c0,0,0,0-0.1-0.1
			c0.2-0.1,0.3-0.4,0.3-0.6c0-0.4-0.5-0.8-1-0.8c-0.5,0-1,0.3-1,0.8v0c0,0-0.3,0.1-0.5,0.3c-0.2,0.2-0.3,0.5-0.3,0.8
			c-0.1,0-0.1,0.1-0.2,0.1c-0.1,0.1-0.2,0.1-0.3,0.2c-0.1,0-0.3-0.1-0.4,0c-0.2,0-0.4,0-0.6,0.1c-0.3-0.2-0.7-0.4-1.2-0.4
			c-1.2,0-2.2,1.2-2.2,2.6C62.3,419.2,63.3,420.3,64.5,420.3z"/>
		<path id="XMLID_58_" class="st0" d="M50.1,416.8C50.1,416.8,50.1,416.9,50.1,416.8c0,0.8,0.2,1.6,0.9,1.9c0.3,0.2,0.6,0.2,0.9,0.2
			c0.3,0.7,0.9,1.1,1.6,1.1c0.2,0,0.4,0,0.6-0.1c0.3,0.3,0.7,0.4,1.2,0.4c1.2,0,2.2-1.1,2.3-2.5c0-1.4-0.9-2.6-2.2-2.6
			c-0.4,0-0.8,0.1-1.2,0.4c-0.2-0.1-0.4-0.1-0.6-0.1c-0.1,0-0.3,0-0.4,0c-0.1-0.1-0.2-0.2-0.3-0.2c-0.1,0-0.2-0.1-0.3-0.1
			c0-0.3-0.1-0.6-0.3-0.8c-0.2-0.1-0.5-0.2-0.5-0.3v0c0-0.4-0.5-0.8-0.9-0.8c-0.5,0-0.9,0.3-0.9,0.8c0,0.2,0.1,0.4,0.3,0.6
			c0,0,0,0-0.1,0.1C49.5,415.4,49.5,416.3,50.1,416.8z"/>
		<path id="XMLID_59_" class="st0" d="M59.9,430l1-1.6l-0.2-0.8l0.8,0.1c0.1,0.3,0.3,0.7,0.6,0.8c0.3,0.1,0.9,0,0.9,0l0.3-0.4
			c-0.4-0.4-0.9-0.7-0.9-0.7c-0.1-2.2-0.5-3.7-0.8-4.5c-0.3-0.8-0.6-0.8-1.3-0.7c-0.7,0.1-2.6,1.2-2.6,1.2l-0.1,1.1l0.6,0.1
			c0,0-0.4,1.2-0.5,1.7c-0.1,0.4,0,0.4,0.2,0.6c0.2,0.2,1.1,0.4,1.1,0.4l-0.3,1.1L59.9,430z"/>
		<path id="XMLID_62_" class="st0" d="M57.4,416.1c0.4,2.2,1.8,2.4,2.3,2.4c0,0.8-0.1,1.4-0.1,1.4l0.7,0.5c0.1-0.9,0.1-1.6,0-2.2
			c1.7-0.2,2-2.7,2-2.7c-1.6,0.7-2,1.9-2,2.4c-0.1-0.9-0.3-1.4-0.4-1.6c1-0.1,1.9-1,1.9-2.1c0-0.6-0.3-1.1-0.7-1.5l0.3-0.6l-0.7,0.1
			l-0.3-0.6l-0.5,0.4l-0.3-0.4l-0.3,0.5l-0.6-0.4l0.2,0.6c-0.7,0.3-1.2,1.1-1.2,1.9c0,1,0.8,1.9,1.7,2.1c0.3,0.5,0.5,1.2,0.5,1.8
			C58.8,416.5,57.4,416.1,57.4,416.1z M59.7,416.2c-0.5,0-0.9-0.9-0.9-2c0-1.1,0.4-2,0.9-2c0.5,0,0.9,0.9,0.9,2
			C60.6,415.3,60.2,416.2,59.7,416.2z"/>
		<path id="XMLID_63_" class="st0" d="M61.5,433.9c-0.2-0.4-0.2-0.9,0-1.3H59c-0.2,0.5-0.2,0.9,0,1.3H61.5z"/>
		<path id="XMLID_64_" class="st0" d="M59,437.1c-0.2,0.4-0.2,1.4,0,1.8h2.5c-0.2-0.5-0.2-1.4,0-1.8H59z"/>
		<polygon id="XMLID_65_" class="st0" points="62.1,435.3 62.7,434.4 58.8,434.4 58.4,433.9 58.2,433.9 56.8,433.9 57,434.4 
			57.4,434.4 57.8,435.3 		"/>
		<polygon id="XMLID_66_" class="st0" points="62.1,439.4 61.9,439.4 61.3,439.4 60.8,439.4 60.1,439.4 59.7,439.4 59,439.4 
			58.8,439.4 58.6,438.9 57.7,438.9 58,439.4 58.7,439.8 62,439.8 62.7,439.4 62.8,438.9 62.2,438.9 		"/>
		<path id="XMLID_67_" class="st0" d="M149.3,425h14.2v10.3c-4.1,3.4-8.1,4.5-12.4,4.5c-13.2,0-18.8-9-18.8-18.3
			c-0.1-10.8,6.8-19.7,18.8-19.7c4.7,0,10.1,1.9,13.7,5.5l5.1-5.2c-5.2-5.2-12.1-7.7-18.8-7.7c-17.4,0-26.8,12.5-26.8,27.2
			c0,13.5,8.1,26,26.8,26c8.6,0,14.9-3.3,20-8.9v-20.9h-21.7V425z"/>
		<path id="XMLID_70_" class="st0" d="M203.7,394.3c-15.4,0-26.3,11.2-26.3,26.8c0,13.4,8.4,26.4,26.1,26.4
			c17.7,0,26.1-12.6,26.1-26.4C229.7,407.2,221.2,394.4,203.7,394.3z M203.6,440c-12.6,0-17.9-9.7-18-18.8
			c0-11.2,6.4-19.4,18.2-19.4c12.5,0.2,17.9,10,17.9,19.4C221.6,431,216.3,440,203.6,440z"/>
		<polygon id="XMLID_71_" class="st0" points="274.2,394.5 257.3,437.4 240.5,394.5 231,394.5 252.9,447.5 261.8,447.5 283.6,394.5 
					"/>
		<path id="XMLID_72_" class="st0" d="M278.5,442.1c0,7.1,10.7,7.1,10.7,0C289.1,435.1,278.5,435.1,278.5,442.1z"/>
		<path id="XMLID_73_" class="st0" d="M321.5,439.8c-13.3,0-18.8-9.3-18.9-18.7c-0.1-9.4,5.9-19,18.9-19c4.8,0,9.6,1.7,13.3,5.3
			l5.5-5.3c-5.2-5.2-11.9-7.8-18.7-7.8c-18.3,0-27.1,13.4-27,26.9c0.1,13.5,8.4,26.3,27,26.3c7.2,0,14-2.4,19.3-7.6l-5.6-5.6
			C331.5,437.8,326.3,439.8,321.5,439.8z"/>
		<path id="XMLID_76_" class="st0" d="M373.9,394.5c-15.4,0-26.2,11.2-26.2,26.7c0,13.4,8.4,26.3,26.1,26.3
			c17.7,0,26.1-12.6,26.1-26.4C399.8,407.4,391.3,394.5,373.9,394.5z M373.7,440c-12.6,0-17.8-9.7-18-18.7
			c0-11.1,6.3-19.4,18.1-19.4c12.5,0.2,17.8,10,17.8,19.4C391.7,431,386.4,440,373.7,440z"/>
	</g>
	<rect id="XMLID_7_" x="103" y="383.7" class="st1" width="5.7" height="31.9"/>
	<rect id="XMLID_6_" x="103" y="415.6" class="st2" width="5.7" height="21.3"/>
	<rect id="XMLID_1_" x="103" y="436.8" class="st3" width="5.7" height="21.3"/>
</g>
</svg>
