<?xml version="1.0" encoding="utf-8"?>
<!-- Generator: Adobe Illustrator 19.0.0, SVG Export Plug-In . SVG Version: 6.00 Build 0)  -->
<svg version="1.1" id="Capa_1" xmlns="http://www.w3.org/2000/svg" xmlns:xlink="http://www.w3.org/1999/xlink" x="0px" y="0px"
	 viewBox="61.9 269.4 305.8 302.9" style="enable-background:new 61.9 269.4 305.8 302.9;" xml:space="preserve">
<style type="text/css">
	.st0{fill:#E21351;}
	.st1{fill:#0193CF;}
	.st2{fill:#FFC324;}
	.st3{fill:#6FB43F;}
	.st4{fill:#A51984;}
	.st5{fill:#FDFEFD;}
	.st6{fill:#FEFEFE;}
</style>
<g>
	<rect x="61.9" y="372.2" class="st0" width="189.9" height="189.9"/>
	<polygon class="st1" points="363.1,469.2 174.3,469.2 174.3,279.2 366.6,279.2 366.6,447.7 	"/>
	<circle class="st2" cx="159.4" cy="366.9" r="97.5"/>
	<circle class="st3" cx="239.3" cy="444" r="128.4"/>
	<circle class="st4" cx="180.5" cy="476.8" r="85.3"/>
	<g>
		<polygon class="st5" points="213.9,512.1 224.6,512.1 227.5,496.4 232.1,512.1 238.1,512.1 242.3,496.4 245.1,512.1 255.6,512.1 
			249.7,481.3 239,481.3 235,494.8 230.9,481.3 220.1,481.3 		"/>
		<rect x="289.3" y="481.3" class="st5" width="10.4" height="31.1"/>
		<path class="st5" d="M278.2,495.9L278.2,495.9c3.2,0,5.9-2.6,5.9-5.9l0,0c0-4.9-4-8.9-8.9-8.9h-16.7v14.8v16.2h19.7
			c4.1,0,7.4-3.3,7.4-7.4v-1.4C285.6,499.2,282.3,495.9,278.2,495.9z M269.2,488h2c1.2,0,2.1,1,2.1,2.1v0.1c0,1.2-1,2.1-2.1,2.1h-2
			V488z M274.4,502.1c0,1.2-1,2.1-2.1,2.1h-3.1v-4.4h3.1C273.4,499.8,274.4,500.8,274.4,502.1L274.4,502.1z"/>
		<polygon class="st5" points="167.3,504.3 167.3,481.3 156.7,481.3 156.7,512.1 165.8,512.1 167.3,512.1 177.4,512.1 177.4,504.3 
					"/>
		<path class="st5" d="M325.5,481.3h-12.3l-10.4,30.8h10.4l1.7-4.6h8.8l1.9,4.6h10.3L325.5,481.3z M317.1,500.7l2.2-6.1l2.1,6.1
			H317.1z"/>
		<path class="st5" d="M196.5,480.9c-10.6,0-17.4,7.2-17.4,16c0,8.8,6.8,16,17.4,16c10.8,0,17.4-7.2,17.4-16
			C213.9,488,207,480.9,196.5,480.9z M196.5,503.6c-3.2,0-5.5-3-5.5-6.6s2.3-6.6,5.5-6.6c3.2,0,5.5,3,5.5,6.6
			S199.7,503.6,196.5,503.6z"/>
		<path class="st5" d="M136.7,480.9c-10.6,0-17.4,7.2-17.4,16c0,8.8,6.8,16,17.4,16c10.8,0,17.4-7.2,17.4-16
			C154.1,488,147.3,480.9,136.7,480.9z M136.8,503.6c-3.2,0-5.5-3-5.5-6.6s2.3-6.6,5.5-6.6c3.2,0,5.5,3,5.5,6.6
			S140,503.6,136.8,503.6z"/>
		<path class="st5" d="M115.7,500.8c-1.3,0.9-3,1.5-4.9,1.7c-4.8,0.5-6.7-2.6-6.7-5.7c0-3.1,1.7-5.7,6-5.8c2.1,0,4.8,1.4,6,2.5
			l3.1-9.8c-2.8-1.8-6.3-2.7-10.1-2.7c-10.1,0-17,6.4-17,16.2c0,10.6,7.6,16.5,17,16.5c4,0,7.7-1.4,10.6-3.6L115.7,500.8z"/>
	</g>
	<path class="st6" d="M269.2,333.9c-42.7,0-70.4,29-70.4,64.7s27.4,64.7,70.4,64.7c43.6,0,70.4-29,70.4-64.7
		S311.9,333.9,269.2,333.9z M269.3,425.9c-12.9,0-22.3-12-22.3-26.9c0-14.8,9.4-26.9,22.3-26.9s22.3,12,22.3,26.9
		C291.5,413.9,282.2,425.9,269.3,425.9z"/>
	<path class="st6" d="M191,412.6c-5.2,3.8-14,6.5-21.8,7.3c-19.8,2.2-27.5-10.5-27.5-23.4s6.9-23.5,24.9-23.8
		c8.6-0.1,19.4,6,24.4,10.2l12.7-39c-12.7-8.1-25.5-11.7-41.1-12.3c-42.7-1.7-70,26.3-70,66.8c0,46.1,31.4,67.9,70,67.9
		c16.5,0,31.7-5.6,43.7-14.9L191,412.6z"/>
</g>
</svg>
