<?xml version="1.0" encoding="utf-8"?>
<!-- Generator: Adobe Illustrator 25.2.1, SVG Export Plug-In . SVG Version: 6.00 Build 0)  -->
<svg version="1.1" id="Capa_1" xmlns="http://www.w3.org/2000/svg" xmlns:xlink="http://www.w3.org/1999/xlink" x="0px" y="0px"
	 viewBox="0 0 216.86 194.36" style="enable-background:new 0 0 216.86 194.36;" xml:space="preserve">
<style type="text/css">
	.st0{fill:#004A84;}
	.st1{fill:#91D9F8;}
	.st2{fill:#2366CF;}
	.st3{fill:#6699FF;}
</style>
<g>
	<rect y="139.78" class="st0" width="184.14" height="3.96"/>
	<path class="st0" d="M19.8,134.74H7.92c-2.78,0-5.04-2.26-5.04-5.04V35.92c0-2.78,2.26-5.04,5.04-5.04H19.8
		c2.78,0,5.04,2.26,5.04,5.04v93.78C24.84,132.48,22.58,134.74,19.8,134.74z"/>
	<path class="st0" d="M172.35,134.56h-11.88c-2.78,0-5.04-2.26-5.04-5.04V35.74c0-2.78,2.26-5.04,5.04-5.04h11.88
		c2.78,0,5.04,2.26,5.04,5.04v93.78C177.39,132.3,175.13,134.56,172.35,134.56z"/>
	<ellipse class="st0" cx="64.08" cy="63.63" rx="13.5" ry="5.13"/>
	<ellipse class="st1" cx="116.19" cy="16.93" rx="13.5" ry="5.13"/>
	<g>
		<path class="st0" d="M0.65,154.95c0.89-0.15,2.06-0.27,3.54-0.27c1.82,0,3.16,0.42,4.01,1.18c0.78,0.67,1.25,1.7,1.25,2.96
			c0,1.28-0.38,2.29-1.1,3.02c-0.98,1.03-2.57,1.55-4.37,1.55c-0.55,0-1.06-0.02-1.48-0.13v5.67H0.65V154.95z M2.49,161.77
			c0.4,0.11,0.91,0.15,1.53,0.15c2.23,0,3.58-1.07,3.58-3.02c0-1.87-1.34-2.77-3.37-2.77c-0.81,0-1.42,0.06-1.74,0.15V161.77z"/>
		<path class="st0" d="M11.76,154.02h1.87v14.91h-1.87V154.02z"/>
		<path class="st0" d="M22.45,168.93l-0.15-1.28h-0.06c-0.57,0.8-1.68,1.51-3.14,1.51c-2.08,0-3.14-1.45-3.14-2.92
			c0-2.46,2.21-3.8,6.17-3.78v-0.21c0-0.84-0.23-2.35-2.33-2.35c-0.95,0-1.95,0.29-2.67,0.76l-0.42-1.22
			c0.85-0.55,2.08-0.9,3.37-0.9c3.14,0,3.9,2.12,3.9,4.16v3.8c0,0.88,0.04,1.74,0.17,2.44H22.45z M22.17,163.74
			c-2.04-0.04-4.35,0.31-4.35,2.29c0,1.2,0.81,1.76,1.76,1.76c1.34,0,2.18-0.84,2.48-1.7c0.06-0.19,0.11-0.4,0.11-0.59V163.74z"/>
		<path class="st0" d="M29.15,155.85v2.92h2.67v1.41h-2.67v5.48c0,1.26,0.36,1.97,1.4,1.97c0.49,0,0.85-0.06,1.08-0.13l0.08,1.39
			c-0.36,0.15-0.93,0.25-1.65,0.25c-0.87,0-1.57-0.27-2.01-0.78c-0.53-0.55-0.72-1.45-0.72-2.65v-5.54h-1.59v-1.41h1.59v-2.44
			L29.15,155.85z"/>
		<path class="st0" d="M39.61,168.93l-0.15-1.28H39.4c-0.57,0.8-1.68,1.51-3.14,1.51c-2.08,0-3.14-1.45-3.14-2.92
			c0-2.46,2.21-3.8,6.17-3.78v-0.21c0-0.84-0.23-2.35-2.33-2.35c-0.95,0-1.95,0.29-2.67,0.76l-0.42-1.22
			c0.85-0.55,2.08-0.9,3.37-0.9c3.14,0,3.9,2.12,3.9,4.16v3.8c0,0.88,0.04,1.74,0.17,2.44H39.61z M39.33,163.74
			c-2.04-0.04-4.35,0.31-4.35,2.29c0,1.2,0.81,1.76,1.76,1.76c1.34,0,2.18-0.84,2.48-1.7c0.06-0.19,0.11-0.4,0.11-0.59V163.74z"/>
		<path class="st0" d="M44.34,168.93v-8.76H42.9v-1.41h1.44v-0.48c0-1.43,0.32-2.73,1.19-3.55c0.7-0.67,1.63-0.95,2.5-0.95
			c0.66,0,1.23,0.15,1.59,0.29l-0.25,1.43c-0.28-0.13-0.66-0.23-1.19-0.23c-1.59,0-1.99,1.39-1.99,2.94v0.55h2.48v1.41h-2.48v8.76
			H44.34z"/>
		<path class="st0" d="M59.36,163.76c0,3.76-2.63,5.4-5.11,5.4c-2.78,0-4.92-2.02-4.92-5.23c0-3.4,2.25-5.4,5.09-5.4
			C57.36,158.54,59.36,160.66,59.36,163.76z M51.21,163.87c0,2.23,1.29,3.91,3.12,3.91c1.78,0,3.12-1.66,3.12-3.95
			c0-1.72-0.87-3.91-3.08-3.91C52.16,159.92,51.21,161.94,51.21,163.87z"/>
		<path class="st0" d="M61.71,161.94c0-1.2-0.02-2.22-0.08-3.17h1.63l0.06,1.99h0.08c0.47-1.36,1.59-2.22,2.84-2.22
			c0.21,0,0.36,0.02,0.53,0.06v1.74c-0.19-0.04-0.38-0.06-0.64-0.06c-1.31,0-2.25,0.99-2.5,2.37c-0.04,0.25-0.08,0.54-0.08,0.86
			v5.42h-1.85V161.94z"/>
		<path class="st0" d="M68.73,161.52c0-1.05-0.02-1.91-0.08-2.75h1.63l0.08,1.64h0.06c0.57-0.97,1.53-1.87,3.22-1.87
			c1.4,0,2.46,0.84,2.91,2.04h0.04c0.32-0.57,0.72-1.01,1.15-1.32c0.62-0.46,1.29-0.71,2.27-0.71c1.36,0,3.37,0.88,3.37,4.41v5.98
			h-1.82v-5.75c0-1.95-0.72-3.13-2.23-3.13c-1.06,0-1.89,0.78-2.21,1.68c-0.08,0.25-0.15,0.59-0.15,0.92v6.28h-1.82v-6.09
			c0-1.62-0.72-2.79-2.14-2.79c-1.17,0-2.01,0.92-2.31,1.85c-0.11,0.27-0.15,0.59-0.15,0.9v6.13h-1.82V161.52z"/>
		<path class="st0" d="M92.1,168.93l-0.15-1.28h-0.06c-0.57,0.8-1.68,1.51-3.14,1.51c-2.08,0-3.14-1.45-3.14-2.92
			c0-2.46,2.21-3.8,6.17-3.78v-0.21c0-0.84-0.23-2.35-2.33-2.35c-0.95,0-1.95,0.29-2.67,0.76l-0.42-1.22
			c0.85-0.55,2.08-0.9,3.37-0.9c3.14,0,3.9,2.12,3.9,4.16v3.8c0,0.88,0.04,1.74,0.17,2.44H92.1z M91.83,163.74
			c-2.04-0.04-4.35,0.31-4.35,2.29c0,1.2,0.81,1.76,1.76,1.76c1.34,0,2.18-0.84,2.48-1.7c0.06-0.19,0.11-0.4,0.11-0.59V163.74z"/>
		<path class="st0" d="M103.05,154.78v14.15h-1.85v-14.15H103.05z"/>
		<path class="st0" d="M106.42,161.52c0-1.05-0.02-1.91-0.08-2.75h1.65l0.11,1.68h0.04c0.51-0.97,1.7-1.91,3.39-1.91
			c1.42,0,3.63,0.84,3.63,4.32v6.07h-1.87v-5.86c0-1.64-0.61-3-2.38-3c-1.23,0-2.18,0.86-2.5,1.89c-0.08,0.23-0.13,0.55-0.13,0.86
			v6.11h-1.87V161.52z"/>
		<path class="st0" d="M120.35,155.85v2.92h2.67v1.41h-2.67v5.48c0,1.26,0.36,1.97,1.4,1.97c0.49,0,0.85-0.06,1.08-0.13l0.08,1.39
			c-0.36,0.15-0.93,0.25-1.65,0.25c-0.87,0-1.57-0.27-2.02-0.78c-0.53-0.55-0.72-1.45-0.72-2.65v-5.54h-1.59v-1.41h1.59v-2.44
			L120.35,155.85z"/>
		<path class="st0" d="M126.04,164.18c0.04,2.5,1.65,3.53,3.52,3.53c1.34,0,2.14-0.23,2.84-0.52l0.32,1.32
			c-0.66,0.29-1.78,0.63-3.42,0.63c-3.16,0-5.05-2.06-5.05-5.12s1.82-5.48,4.81-5.48c3.35,0,4.24,2.92,4.24,4.79
			c0,0.38-0.04,0.67-0.06,0.86H126.04z M131.51,162.86c0.02-1.18-0.49-3-2.59-3c-1.89,0-2.71,1.72-2.86,3H131.51z"/>
		<path class="st0" d="M144.47,158.77c-0.04,0.73-0.08,1.55-0.08,2.79v5.9c0,2.33-0.47,3.76-1.46,4.64c-1,0.92-2.44,1.22-3.73,1.22
			c-1.23,0-2.59-0.29-3.41-0.84l0.47-1.41c0.68,0.42,1.74,0.8,3.01,0.8c1.91,0,3.31-0.99,3.31-3.55v-1.13h-0.04
			c-0.57,0.94-1.68,1.7-3.27,1.7c-2.54,0-4.37-2.14-4.37-4.96c0-3.44,2.27-5.4,4.62-5.4c1.78,0,2.76,0.92,3.2,1.76h0.04l0.08-1.53
			H144.47z M142.54,162.78c0-0.31-0.02-0.59-0.11-0.84c-0.34-1.07-1.25-1.95-2.61-1.95c-1.78,0-3.05,1.49-3.05,3.84
			c0,1.99,1.02,3.65,3.03,3.65c1.15,0,2.18-0.71,2.59-1.89c0.11-0.32,0.15-0.67,0.15-0.99V162.78z"/>
		<path class="st0" d="M147.35,161.94c0-1.2-0.02-2.22-0.08-3.17h1.63l0.06,1.99h0.08c0.47-1.36,1.59-2.22,2.84-2.22
			c0.21,0,0.36,0.02,0.53,0.06v1.74c-0.19-0.04-0.38-0.06-0.64-0.06c-1.32,0-2.25,0.99-2.5,2.37c-0.04,0.25-0.08,0.54-0.08,0.86
			v5.42h-1.85V161.94z"/>
		<path class="st0" d="M159.87,168.93l-0.15-1.28h-0.06c-0.57,0.8-1.68,1.51-3.14,1.51c-2.08,0-3.14-1.45-3.14-2.92
			c0-2.46,2.21-3.8,6.17-3.78v-0.21c0-0.84-0.23-2.35-2.33-2.35c-0.95,0-1.95,0.29-2.67,0.76l-0.42-1.22
			c0.85-0.55,2.08-0.9,3.37-0.9c3.14,0,3.9,2.12,3.9,4.16v3.8c0,0.88,0.04,1.74,0.17,2.44H159.87z M159.59,163.74
			c-2.04-0.04-4.35,0.31-4.35,2.29c0,1.2,0.81,1.76,1.76,1.76c1.34,0,2.18-0.84,2.48-1.7c0.06-0.19,0.11-0.4,0.11-0.59V163.74z"/>
		<path class="st0" d="M173.27,154.02v12.28c0,0.9,0.02,1.93,0.08,2.62h-1.68l-0.08-1.76h-0.04c-0.57,1.13-1.82,1.99-3.5,1.99
			c-2.48,0-4.39-2.08-4.39-5.16c-0.02-3.38,2.1-5.46,4.6-5.46c1.57,0,2.63,0.73,3.1,1.55h0.04v-6.07H173.27z M171.41,162.9
			c0-0.23-0.02-0.55-0.08-0.78c-0.28-1.18-1.29-2.14-2.69-2.14c-1.93,0-3.08,1.68-3.08,3.93c0,2.06,1.02,3.76,3.03,3.76
			c1.25,0,2.4-0.82,2.74-2.21c0.06-0.25,0.08-0.5,0.08-0.8V162.9z"/>
		<path class="st0" d="M182.05,168.93l-0.15-1.28h-0.06c-0.57,0.8-1.68,1.51-3.14,1.51c-2.08,0-3.14-1.45-3.14-2.92
			c0-2.46,2.21-3.8,6.17-3.78v-0.21c0-0.84-0.23-2.35-2.33-2.35c-0.95,0-1.95,0.29-2.67,0.76l-0.42-1.22
			c0.85-0.55,2.08-0.9,3.37-0.9c3.14,0,3.9,2.12,3.9,4.16v3.8c0,0.88,0.04,1.74,0.17,2.44H182.05z M181.78,163.74
			c-2.04-0.04-4.35,0.31-4.35,2.29c0,1.2,0.81,1.76,1.76,1.76c1.34,0,2.18-0.84,2.48-1.7c0.06-0.19,0.11-0.4,0.11-0.59V163.74z"/>
		<path class="st0" d="M13.9,179.22v12.28c0,0.9,0.02,1.93,0.08,2.62h-1.68l-0.08-1.76h-0.04c-0.57,1.13-1.82,1.99-3.5,1.99
			c-2.48,0-4.39-2.08-4.39-5.16c-0.02-3.38,2.1-5.46,4.6-5.46c1.57,0,2.63,0.73,3.1,1.55h0.04v-6.07H13.9z M12.04,188.1
			c0-0.23-0.02-0.55-0.08-0.78c-0.28-1.18-1.29-2.14-2.69-2.14c-1.93,0-3.08,1.68-3.08,3.93c0,2.06,1.02,3.76,3.03,3.76
			c1.25,0,2.4-0.82,2.74-2.21c0.06-0.25,0.08-0.5,0.08-0.8V188.1z"/>
		<path class="st0" d="M18.04,189.38c0.04,2.5,1.65,3.53,3.52,3.53c1.34,0,2.14-0.23,2.84-0.52l0.32,1.32
			c-0.66,0.29-1.78,0.63-3.41,0.63c-3.16,0-5.05-2.06-5.05-5.12s1.82-5.48,4.81-5.48c3.35,0,4.24,2.92,4.24,4.79
			c0,0.38-0.04,0.67-0.06,0.86H18.04z M23.51,188.06c0.02-1.18-0.49-3-2.59-3c-1.89,0-2.71,1.72-2.86,3H23.51z"/>
		<path class="st0" d="M34.03,179.98v14.15h-1.85v-14.15H34.03z"/>
		<path class="st0" d="M37.4,186.72c0-1.05-0.02-1.91-0.08-2.75h1.65l0.11,1.68h0.04c0.51-0.97,1.7-1.91,3.39-1.91
			c1.42,0,3.63,0.84,3.63,4.32v6.07h-1.87v-5.86c0-1.64-0.62-3-2.38-3c-1.23,0-2.18,0.86-2.5,1.89c-0.08,0.23-0.13,0.55-0.13,0.86
			v6.11H37.4V186.72z"/>
		<path class="st0" d="M49.62,183.97l2.01,5.71c0.34,0.92,0.62,1.76,0.83,2.6h0.06c0.23-0.84,0.53-1.68,0.87-2.6l1.99-5.71h1.95
			l-4.03,10.16h-1.78l-3.9-10.16H49.62z"/>
		<path class="st0" d="M59.93,189.38c0.04,2.5,1.65,3.53,3.52,3.53c1.34,0,2.14-0.23,2.84-0.52l0.32,1.32
			c-0.66,0.29-1.78,0.63-3.41,0.63c-3.16,0-5.05-2.06-5.05-5.12s1.82-5.48,4.81-5.48c3.35,0,4.24,2.92,4.24,4.79
			c0,0.38-0.04,0.67-0.06,0.86H59.93z M65.4,188.06c0.02-1.18-0.49-3-2.59-3c-1.89,0-2.71,1.72-2.86,3H65.4z"/>
		<path class="st0" d="M69.51,187.14c0-1.2-0.02-2.22-0.08-3.17h1.63l0.06,1.99h0.08c0.47-1.36,1.59-2.22,2.84-2.22
			c0.21,0,0.36,0.02,0.53,0.06v1.74c-0.19-0.04-0.38-0.06-0.64-0.06c-1.31,0-2.25,0.99-2.5,2.37c-0.04,0.25-0.08,0.54-0.08,0.86
			v5.42h-1.85V187.14z"/>
		<path class="st0" d="M76.19,192.24c0.55,0.36,1.53,0.74,2.46,0.74c1.36,0,1.99-0.67,1.99-1.51c0-0.88-0.53-1.37-1.91-1.87
			c-1.85-0.65-2.71-1.66-2.71-2.88c0-1.64,1.34-2.98,3.54-2.98c1.04,0,1.95,0.29,2.52,0.63l-0.47,1.34c-0.4-0.25-1.15-0.59-2.1-0.59
			c-1.1,0-1.72,0.63-1.72,1.39c0,0.84,0.62,1.22,1.95,1.72c1.78,0.67,2.69,1.55,2.69,3.07c0,1.78-1.4,3.04-3.84,3.04
			c-1.12,0-2.16-0.27-2.88-0.69L76.19,192.24z"/>
		<path class="st0" d="M86.93,181.11c0.02,0.63-0.45,1.13-1.19,1.13c-0.66,0-1.12-0.5-1.12-1.13c0-0.65,0.49-1.15,1.17-1.15
			C86.48,179.96,86.93,180.46,86.93,181.11z M84.85,194.13v-10.16h1.87v10.16H84.85z"/>
		<path class="st0" d="M99.1,188.96c0,3.76-2.63,5.4-5.11,5.4c-2.78,0-4.92-2.02-4.92-5.23c0-3.4,2.25-5.4,5.09-5.4
			C97.11,183.74,99.1,185.86,99.1,188.96z M90.96,189.07c0,2.23,1.29,3.91,3.12,3.91c1.78,0,3.12-1.66,3.12-3.95
			c0-1.72-0.87-3.91-3.08-3.91C91.91,185.12,90.96,187.14,90.96,189.07z M96.87,179.58l-2.59,3h-1.34l1.87-3H96.87z"/>
		<path class="st0" d="M101.46,186.72c0-1.05-0.02-1.91-0.08-2.75h1.65l0.11,1.68h0.04c0.51-0.97,1.7-1.91,3.39-1.91
			c1.42,0,3.63,0.84,3.63,4.32v6.07h-1.87v-5.86c0-1.64-0.62-3-2.38-3c-1.23,0-2.18,0.86-2.5,1.89c-0.08,0.23-0.13,0.55-0.13,0.86
			v6.11h-1.87V186.72z"/>
		<path class="st0" d="M117.79,180.15c0.89-0.15,2.06-0.27,3.54-0.27c1.82,0,3.16,0.42,4.01,1.18c0.79,0.67,1.25,1.7,1.25,2.96
			c0,1.28-0.38,2.29-1.1,3.02c-0.98,1.03-2.57,1.55-4.37,1.55c-0.55,0-1.06-0.02-1.48-0.13v5.67h-1.84V180.15z M119.63,186.97
			c0.4,0.11,0.91,0.15,1.53,0.15c2.23,0,3.58-1.07,3.58-3.02c0-1.87-1.34-2.77-3.37-2.77c-0.81,0-1.42,0.06-1.74,0.15V186.97z"/>
		<path class="st0" d="M137.28,191.36c0,1.05,0.02,1.97,0.08,2.77h-1.65l-0.11-1.66h-0.04c-0.49,0.82-1.57,1.89-3.39,1.89
			c-1.61,0-3.54-0.88-3.54-4.45v-5.94h1.87v5.63c0,1.93,0.59,3.23,2.29,3.23c1.25,0,2.12-0.86,2.46-1.68
			c0.11-0.27,0.17-0.61,0.17-0.94v-6.24h1.87V191.36z M136,179.58l-2.59,3h-1.34l1.87-3H136z"/>
		<path class="st0" d="M140.29,194.13c0.04-0.69,0.08-1.72,0.08-2.62v-12.28h1.85v6.38h0.04c0.66-1.13,1.85-1.87,3.5-1.87
			c2.54,0,4.35,2.1,4.33,5.19c0,3.63-2.31,5.44-4.6,5.44c-1.49,0-2.67-0.57-3.44-1.91h-0.06l-0.08,1.68H140.29z M142.22,190.06
			c0,0.23,0.04,0.46,0.08,0.67c0.36,1.28,1.44,2.16,2.8,2.16c1.95,0,3.12-1.58,3.12-3.91c0-2.04-1.06-3.78-3.05-3.78
			c-1.27,0-2.46,0.86-2.84,2.27c-0.04,0.21-0.11,0.46-0.11,0.76V190.06z"/>
		<path class="st0" d="M152.44,179.22h1.87v14.91h-1.87V179.22z"/>
		<path class="st0" d="M159.53,181.11c0.02,0.63-0.45,1.13-1.19,1.13c-0.66,0-1.12-0.5-1.12-1.13c0-0.65,0.49-1.15,1.17-1.15
			C159.08,179.96,159.53,180.46,159.53,181.11z M157.45,194.13v-10.16h1.87v10.16H157.45z"/>
		<path class="st0" d="M169.73,193.75c-0.49,0.25-1.57,0.59-2.95,0.59c-3.1,0-5.11-2.08-5.11-5.19c0-3.13,2.16-5.4,5.51-5.4
			c1.1,0,2.08,0.27,2.59,0.52l-0.42,1.43c-0.45-0.25-1.14-0.48-2.16-0.48c-2.35,0-3.63,1.72-3.63,3.84c0,2.35,1.53,3.8,3.56,3.8
			c1.06,0,1.76-0.27,2.29-0.5L169.73,193.75z"/>
		<path class="st0" d="M177.6,194.13l-0.15-1.28h-0.06c-0.57,0.8-1.68,1.51-3.14,1.51c-2.08,0-3.14-1.45-3.14-2.92
			c0-2.46,2.21-3.8,6.17-3.78v-0.21c0-0.84-0.23-2.35-2.33-2.35c-0.95,0-1.95,0.29-2.67,0.76l-0.42-1.22
			c0.85-0.55,2.08-0.9,3.37-0.9c3.14,0,3.9,2.12,3.9,4.16v3.8c0,0.88,0.04,1.74,0.17,2.44H177.6z M177.32,188.94
			c-2.04-0.04-4.35,0.31-4.35,2.29c0,1.2,0.81,1.76,1.76,1.76c1.34,0,2.18-0.84,2.48-1.7c0.06-0.19,0.11-0.4,0.11-0.59V188.94z"/>
	</g>
	<path class="st0" d="M102.6,55.63v-7.92c0,0,12.6,8.82,27.18,0.18l-0.09,7.74C129.69,55.63,117.36,64,102.6,55.63z"/>
	<path class="st0" d="M50.4,74.84v-7.92c0,0,12.6,8.82,27.18,0.18l-0.09,7.74C77.49,74.84,65.16,83.21,50.4,74.84z"/>
	<path class="st0" d="M50.4,84.38v-7.92c0,0,12.6,8.82,27.18,0.18l-0.09,7.74C77.49,84.38,65.16,92.75,50.4,84.38z"/>
	<path class="st0" d="M50.4,93.74v-7.92c0,0,12.6,8.82,27.18,0.18l-0.09,7.74C77.49,93.74,65.16,102.11,50.4,93.74z"/>
	<path class="st0" d="M50.4,102.92V95c0,0,12.6,8.82,27.18,0.18l-0.09,7.74C77.49,102.92,65.16,111.29,50.4,102.92z"/>
	<path class="st0" d="M50.4,112.28v-7.92c0,0,12.6,8.82,27.18,0.18l-0.09,7.74C77.49,112.28,65.16,120.65,50.4,112.28z"/>
	<path class="st0" d="M50.4,121.46v-7.92c0,0,12.6,8.82,27.18,0.18l-0.09,7.74C77.49,121.46,65.16,129.83,50.4,121.46z"/>
	<path class="st0" d="M50.4,130.82v-7.92c0,0,12.6,8.82,27.18,0.18l-0.09,7.74C77.49,130.82,65.16,139.19,50.4,130.82z"/>
	<path class="st2" d="M102.6,83.76v-7.92c0,0,12.6,8.82,27.18,0.18l-0.09,7.74C129.69,83.76,117.36,92.13,102.6,83.76z"/>
	<path class="st0" d="M102.6,93.12V85.2c0,0,12.6,8.82,27.18,0.18l-0.09,7.74C129.69,93.12,117.36,101.49,102.6,93.12z"/>
	<path class="st0" d="M102.6,102.3v-7.92c0,0,12.6,8.82,27.18,0.18l-0.09,7.74C129.69,102.3,117.36,110.67,102.6,102.3z"/>
	<path class="st0" d="M102.6,111.66v-7.92c0,0,12.6,8.82,27.18,0.18l-0.09,7.74C129.69,111.66,117.36,120.03,102.6,111.66z"/>
	<path class="st0" d="M102.6,120.84v-7.92c0,0,12.6,8.82,27.18,0.18l-0.09,7.74C129.69,120.84,117.36,129.21,102.6,120.84z"/>
	<path class="st0" d="M102.6,130.2v-7.92c0,0,12.6,8.82,27.18,0.18l-0.09,7.74C129.69,130.2,117.36,138.57,102.6,130.2z"/>
	<path class="st1" d="M102.6,27.78v-7.92c0,0,12.6,8.82,27.18,0.18l-0.09,7.74C129.69,27.78,117.36,36.15,102.6,27.78z"/>
	<path class="st3" d="M102.6,37.14v-7.92c0,0,12.6,8.82,27.18,0.18l-0.09,7.74C129.69,37.14,117.36,45.51,102.6,37.14z"/>
	<path class="st3" d="M102.6,46.32V38.4c0,0,12.6,8.82,27.18,0.18l-0.09,7.74C129.69,46.32,117.36,54.69,102.6,46.32z"/>
	<path class="st3" d="M102.6,55.68v-7.92c0,0,12.6,8.82,27.18,0.18l-0.09,7.74C129.69,55.68,117.36,64.05,102.6,55.68z"/>
	<path class="st2" d="M102.6,64.86v-7.92c0,0,12.6,8.82,27.18,0.18l-0.09,7.74C129.69,64.86,117.36,73.23,102.6,64.86z"/>
	<path class="st2" d="M102.6,74.22V66.3c0,0,12.6,8.82,27.18,0.18l-0.09,7.74C129.69,74.22,117.36,82.59,102.6,74.22z"/>
	<path class="st0" d="M3.78,8.02c0,0,17.64-4.68,32.04,1.26s19.26,14.4,19.98,21.78c0.72,7.38-5.58,22.86-30.78,26.28v6.48
		c0,0,20.88-1.08,34.02-16.56c9.17-10.81,6.66-23.76-1.8-32.94S32.22-3.14,3.78,1.18V8.02z"/>
	<path class="st0" d="M155.79,9.73c0,0,17.64-4.68,32.04,1.26s19.26,14.4,19.98,21.78s-5.58,22.86-30.78,26.28v6.48
		c0,0,20.88-1.08,34.02-16.56c9.17-10.81,6.66-23.76-1.8-32.94c-8.46-9.18-25.02-17.46-53.46-13.14V9.73z"/>
</g>
</svg>
