<?xml version="1.0" encoding="UTF-8"?>
<svg id="Capa_1" data-name="Capa 1" xmlns="http://www.w3.org/2000/svg" viewBox="0 0 58.28 67.4">
  <defs>
    <style>
      .cls-1 {
        fill: #36c;
        stroke-width: 0px;
      }
    </style>
  </defs>
  <g>
    <path class="cls-1" d="M14.35,33.73c-1.43,2.62-5.48,4.15-6.78,4.28l.57,4.09c3.26-.55,5.5-2.95,5.5-2.95v17.67h4.62v-23.07h-3.91Z"/>
    <circle class="cls-1" cx="26.2" cy="53.53" r="3.24"/>
    <path class="cls-1" d="M42.07,33.82h-2.16c-4.38,0-7.96,3.58-7.96,7.96v7.49c0,4.38,3.58,7.96,7.96,7.96h2.16c4.38,0,7.96-3.58,7.96-7.96v-7.49c0-4.38-3.58-7.96-7.96-7.96ZM45.01,49.3c0,2.18-1.78,3.96-3.96,3.96s-3.96-1.78-3.96-3.96v-7.56c0-2.18,1.78-3.96,3.96-3.96s3.96,1.78,3.96,3.96v7.56Z"/>
  </g>
  <path class="cls-1" d="M40.29,0H4.78C2.14,0,0,2.14,0,4.78v57.84h0c0,2.64,2.14,4.78,4.78,4.78h48.72c2.64,0,4.78-2.14,4.78-4.78V17.99L40.29,0ZM40.99,7.77l9.3,9.3h-9.27l-.02-.02V7.77ZM53.28,62.4H5V5h30.99v12.05h0c0,2.77,2.25,5.02,5.02,5.02h12.27v40.33Z"/>
</svg>