<?xml version="1.0" encoding="UTF-8"?>
<svg id="Capa_1" data-name="Capa 1" xmlns="http://www.w3.org/2000/svg" viewBox="0 0 58.28 67.4">
  <defs>
    <style>
      .cls-1 {
        fill: #36c;
        stroke-width: 0px;
      }
    </style>
  </defs>
  <polygon class="cls-1" points="29.61 44.7 28.64 48.1 27.63 44.65 22.07 27.85 15.27 27.85 25.08 54.71 32.09 54.71 41.85 27.85 41.14 27.85 35.22 27.85 29.61 44.7"/>
  <path class="cls-1" d="M40.29,0H4.78C2.14,0,0,2.14,0,4.78v57.84h0c0,2.64,2.14,4.78,4.78,4.78h48.72c2.64,0,4.78-2.14,4.78-4.78V17.99L40.29,0ZM40.99,7.77l9.3,9.3h-9.27l-.02-.02V7.77ZM53.28,62.4H5V5h30.99v12.05h0c0,2.77,2.25,5.02,5.02,5.02h12.27v40.33Z"/>
</svg>