<?xml version="1.0" encoding="utf-8"?>
<!-- Generator: Adobe Illustrator 19.0.0, SVG Export Plug-In . SVG Version: 6.00 Build 0)  -->
<svg version="1.1" id="Capa_3" xmlns="http://www.w3.org/2000/svg" xmlns:xlink="http://www.w3.org/1999/xlink" x="0px" y="0px"
	 viewBox="-280 403.9 35 35" style="enable-background:new -280 403.9 35 35;" xml:space="preserve">
<style type="text/css">
	.st0{fill:#3366CC;}
	.st1{fill:#FFFFFF;}
</style>
<path class="st0" d="M-249.1,438.9h-26.8c-2.3,0-4.1-1.8-4.1-4.1V408c0-2.3,1.8-4.1,4.1-4.1h26.8c2.3,0,4.1,1.8,4.1,4.1v26.8
	C-245,437-246.8,438.9-249.1,438.9z"/>
<g>
	<path class="st1" d="M-255.3,429c0,0.3-0.1,0.5-0.3,0.7c-0.2,0.2-0.4,0.3-0.7,0.3s-0.5-0.1-0.7-0.3l-5.5-7l-5.5,7
		c-0.2,0.2-0.4,0.3-0.7,0.3c-0.2,0-0.5-0.1-0.7-0.3c-0.2-0.2-0.3-0.4-0.3-0.6s0.1-0.4,0.2-0.6l5.8-7.3l-5.5-6.9
		c-0.2-0.2-0.2-0.4-0.2-0.6s0.1-0.5,0.3-0.6c0.2-0.2,0.4-0.3,0.6-0.3c0.3,0,0.5,0.1,0.7,0.4l5.3,6.7l5.2-6.7
		c0.2-0.2,0.4-0.4,0.7-0.4c0.2,0,0.5,0.1,0.7,0.3c0.2,0.2,0.3,0.4,0.3,0.7c0,0.2-0.1,0.4-0.2,0.6l-5.5,6.9l5.8,7.3
		C-255.4,428.6-255.3,428.8-255.3,429z"/>
</g>
</svg>
